<svg width="20" height="18" viewBox="0 0 20 18" fill="none" xmlns="http://www.w3.org/2000/svg">
<path d="M1.75098 9.51572H18.25C18.664 9.51572 19 9.19781 19 8.80608C19 8.41435 18.664 8.09644 18.25 8.09644H1.75098C1.337 8.09644 1.00102 8.41435 1.00102 8.80608C1.00102 9.19781 1.337 9.51572 1.75098 9.51572Z" fill="#828380" stroke="white" stroke-width="0.2"/>
<path d="M1.75098 2.41929H18.25C18.664 2.41929 19 2.10137 19 1.70964C19 1.31792 18.664 1 18.25 1H1.75098C1.337 1 1.00102 1.31792 1.00102 1.70964C1.00102 2.10137 1.337 2.41929 1.75098 2.41929Z" fill="#828380" stroke="white" stroke-width="0.2"/>
<path d="M1.75098 17.3218H18.25C18.664 17.3218 19 17.0039 19 16.6122C19 16.2204 18.664 15.9025 18.25 15.9025H1.75098C1.337 15.9025 1.00102 16.2204 1.00102 16.6122C1.00102 17.0039 1.337 17.3218 1.75098 17.3218Z" fill="#828380" stroke="white" stroke-width="0.2"/>
</svg>
