<svg width="19" height="20" viewBox="0 0 19 20" fill="none" xmlns="http://www.w3.org/2000/svg">
<path d="M17.3331 15.6894C16.9066 14.679 16.2878 13.7612 15.511 12.9872C14.7366 12.2109 13.8192 11.592 12.8096 11.1646C12.8005 11.1601 12.7915 11.1578 12.7824 11.1533C14.1908 10.1357 15.1063 8.47814 15.1063 6.60804C15.1063 3.51005 12.5971 1 9.5 1C6.40295 1 3.89365 3.51005 3.89365 6.60804C3.89365 8.47814 4.80921 10.1357 6.21758 11.1555C6.20853 11.16 6.19949 11.1623 6.19045 11.1668C5.17769 11.5942 4.26892 12.207 3.489 12.9894C2.71295 13.7641 2.09421 14.6817 1.66694 15.6917C1.24719 16.6805 1.02081 17.7406 1.00006 18.8146C0.999453 18.8387 1.00369 18.8627 1.0125 18.8852C1.02132 18.9077 1.03455 18.9281 1.0514 18.9454C1.06825 18.9627 1.0884 18.9764 1.11064 18.9858C1.13288 18.9952 1.15677 19 1.18091 19H2.53728C2.63675 19 2.71587 18.9209 2.71813 18.8236C2.76334 17.0779 3.46414 15.443 4.70296 14.2038C5.98473 12.9216 7.68698 12.2161 9.5 12.2161C11.313 12.2161 13.0153 12.9216 14.297 14.2038C15.5359 15.443 16.2367 17.0779 16.2819 18.8236C16.2841 18.9231 16.3633 19 16.4627 19H17.8191C17.8432 19 17.8671 18.9952 17.8894 18.9858C17.9116 18.9764 17.9317 18.9627 17.9486 18.9454C17.9655 18.9281 17.9787 18.9077 17.9875 18.8852C17.9963 18.8627 18.0005 18.8387 17.9999 18.8146C17.9773 17.7337 17.7535 16.6822 17.3331 15.6894ZM9.5 10.4975C8.46237 10.4975 7.48578 10.0927 6.75108 9.35779C6.01638 8.62286 5.61173 7.64598 5.61173 6.60804C5.61173 5.5701 6.01638 4.59322 6.75108 3.85829C7.48578 3.12337 8.46237 2.71859 9.5 2.71859C10.5376 2.71859 11.5142 3.12337 12.2489 3.85829C12.9836 4.59322 13.3883 5.5701 13.3883 6.60804C13.3883 7.64598 12.9836 8.62286 12.2489 9.35779C11.5142 10.0927 10.5376 10.4975 9.5 10.4975Z" fill="#828380" stroke="white" stroke-width="0.7"/>
</svg>
