<svg width="32" height="41" viewBox="0 0 32 41" fill="none" xmlns="http://www.w3.org/2000/svg">
<path fill-rule="evenodd" clip-rule="evenodd" d="M8.72656 20.5C8.72656 20.8884 8.8798 21.2608 9.15256 21.5354C9.42531 21.81 9.79525 21.9643 10.181 21.9643H27.032L20.7867 28.249C20.5136 28.524 20.3601 28.8969 20.3601 29.2857C20.3601 29.6746 20.5136 30.0475 20.7867 30.3224C21.0598 30.5974 21.4302 30.7519 21.8164 30.7519C22.2026 30.7519 22.573 30.5974 22.8461 30.3224L31.5727 21.5367C31.7082 21.4007 31.8156 21.2391 31.8889 21.0612C31.9623 20.8833 32 20.6926 32 20.5C32 20.3074 31.9623 20.1167 31.8889 19.9388C31.8156 19.7609 31.7082 19.5993 31.5727 19.4633L22.8461 10.6776C22.573 10.4026 22.2026 10.2481 21.8164 10.2481C21.4302 10.2481 21.0598 10.4026 20.7867 10.6776C20.5136 10.9525 20.3601 11.3254 20.3601 11.7143C20.3601 12.1031 20.5136 12.476 20.7867 12.751L27.032 19.0357H10.181C9.79525 19.0357 9.42531 19.19 9.15256 19.4646C8.8798 19.7392 8.72656 20.1116 8.72656 20.5ZM1.45443 41C1.06869 41 0.69875 40.8457 0.425992 40.5711C0.153234 40.2965 0 39.9241 0 39.5357V1.46429C0 1.07593 0.153234 0.703486 0.425992 0.428879C0.69875 0.154272 1.06869 0 1.45443 0C1.84017 0 2.2101 0.154272 2.48286 0.428879C2.75562 0.703486 2.90885 1.07593 2.90885 1.46429V39.5357C2.90885 39.9241 2.75562 40.2965 2.48286 40.5711C2.2101 40.8457 1.84017 41 1.45443 41Z" fill="white"/>
</svg>
