<svg width="73" height="101" viewBox="0 0 73 101" fill="none" xmlns="http://www.w3.org/2000/svg">
<path d="M9.99 90.275C9.99 91.409 9.867 92.396 9.621 93.236C9.381 94.07 9.045 94.76 8.613 95.306C8.187 95.852 7.68 96.26 7.092 96.53C6.51 96.794 5.88 96.926 5.202 96.926C4.524 96.926 3.894 96.794 3.312 96.53C2.736 96.26 2.235 95.852 1.809 95.306C1.383 94.76 1.05 94.07 0.81 93.236C0.57 92.396 0.45 91.409 0.45 90.275C0.45 89.135 0.57 88.148 0.81 87.314C1.05 86.48 1.383 85.79 1.809 85.244C2.235 84.698 2.736 84.293 3.312 84.029C3.894 83.759 4.524 83.624 5.202 83.624C5.88 83.624 6.51 83.759 7.092 84.029C7.68 84.293 8.187 84.698 8.613 85.244C9.045 85.79 9.381 86.48 9.621 87.314C9.867 88.148 9.99 89.135 9.99 90.275ZM7.695 90.275C7.695 89.333 7.626 88.553 7.488 87.935C7.35 87.317 7.164 86.825 6.93 86.459C6.702 86.093 6.438 85.838 6.138 85.694C5.838 85.544 5.526 85.469 5.202 85.469C4.884 85.469 4.575 85.544 4.275 85.694C3.981 85.838 3.72 86.093 3.492 86.459C3.264 86.825 3.081 87.317 2.943 87.935C2.811 88.553 2.745 89.333 2.745 90.275C2.745 91.217 2.811 91.997 2.943 92.615C3.081 93.233 3.264 93.725 3.492 94.091C3.72 94.457 3.981 94.715 4.275 94.865C4.575 95.009 4.884 95.081 5.202 95.081C5.526 95.081 5.838 95.009 6.138 94.865C6.438 94.715 6.702 94.457 6.93 94.091C7.164 93.725 7.35 93.233 7.488 92.615C7.626 91.997 7.695 91.217 7.695 90.275ZM11.6474 90.419H16.3094V92.273H11.6474V90.419ZM26.3453 94.712C26.5853 94.712 26.7743 94.781 26.9123 94.919C27.0563 95.051 27.1283 95.228 27.1283 95.45V96.782H18.2003V96.044C18.2003 95.894 18.2303 95.738 18.2903 95.576C18.3563 95.408 18.4583 95.258 18.5963 95.126L22.5473 91.166C22.8773 90.83 23.1713 90.509 23.4293 90.203C23.6933 89.897 23.9123 89.594 24.0863 89.294C24.2603 88.994 24.3923 88.691 24.4823 88.385C24.5783 88.073 24.6263 87.746 24.6263 87.404C24.6263 87.092 24.5813 86.819 24.4913 86.585C24.4013 86.345 24.2723 86.144 24.1043 85.982C23.9423 85.82 23.7443 85.7 23.5103 85.622C23.2823 85.538 23.0243 85.496 22.7363 85.496C22.4723 85.496 22.2263 85.535 21.9983 85.613C21.7763 85.685 21.5783 85.79 21.4043 85.928C21.2303 86.06 21.0833 86.216 20.9633 86.396C20.8433 86.576 20.7533 86.774 20.6933 86.99C20.5913 87.266 20.4593 87.449 20.2973 87.539C20.1353 87.629 19.9013 87.65 19.5953 87.602L18.4253 87.395C18.5153 86.771 18.6893 86.225 18.9473 85.757C19.2053 85.283 19.5263 84.89 19.9103 84.578C20.3003 84.26 20.7443 84.023 21.2423 83.867C21.7463 83.705 22.2863 83.624 22.8623 83.624C23.4623 83.624 24.0113 83.714 24.5093 83.894C25.0073 84.068 25.4333 84.317 25.7873 84.641C26.1413 84.965 26.4173 85.355 26.6153 85.811C26.8133 86.267 26.9123 86.774 26.9123 87.332C26.9123 87.812 26.8403 88.256 26.6963 88.664C26.5583 89.072 26.3693 89.462 26.1293 89.834C25.8953 90.206 25.6193 90.566 25.3013 90.914C24.9833 91.262 24.6503 91.616 24.3023 91.976L21.3683 94.973C21.6503 94.889 21.9293 94.826 22.2053 94.784C22.4873 94.736 22.7543 94.712 23.0063 94.712H26.3453ZM34.5457 91.877V87.62C34.5457 87.218 34.5727 86.774 34.6267 86.288L30.5857 91.877H34.5457ZM38.1187 91.877V93.164C38.1187 93.284 38.0797 93.389 38.0017 93.479C37.9237 93.563 37.8127 93.605 37.6687 93.605H36.4807V96.782H34.5457V93.605H29.0557C28.9057 93.605 28.7737 93.56 28.6597 93.47C28.5457 93.374 28.4737 93.257 28.4437 93.119L28.2097 91.994L34.3747 83.759H36.4807V91.877H38.1187ZM58.877 83.768V96.782H56.744V88.376C56.744 88.04 56.762 87.677 56.798 87.287L52.865 94.676C52.679 95.03 52.394 95.207 52.01 95.207H51.668C51.284 95.207 50.999 95.03 50.813 94.676L46.835 87.26C46.853 87.458 46.868 87.653 46.88 87.845C46.892 88.037 46.898 88.214 46.898 88.376V96.782H44.765V83.768H46.592C46.7 83.768 46.793 83.771 46.871 83.777C46.949 83.783 47.018 83.798 47.078 83.822C47.144 83.846 47.201 83.885 47.249 83.939C47.303 83.993 47.354 84.065 47.402 84.155L51.299 91.382C51.401 91.574 51.494 91.772 51.578 91.976C51.668 92.18 51.755 92.39 51.839 92.606C51.923 92.384 52.01 92.171 52.1 91.967C52.19 91.757 52.286 91.556 52.388 91.364L56.231 84.155C56.279 84.065 56.33 83.993 56.384 83.939C56.438 83.885 56.495 83.846 56.555 83.822C56.621 83.798 56.693 83.783 56.771 83.777C56.849 83.771 56.942 83.768 57.05 83.768H58.877ZM70.8976 93.713C71.0296 93.713 71.1466 93.764 71.2486 93.866L72.2026 94.901C71.6746 95.555 71.0236 96.056 70.2496 96.404C69.4816 96.752 68.5576 96.926 67.4776 96.926C66.5116 96.926 65.6416 96.761 64.8676 96.431C64.0996 96.101 63.4426 95.642 62.8966 95.054C62.3506 94.466 61.9306 93.764 61.6366 92.948C61.3486 92.132 61.2046 91.241 61.2046 90.275C61.2046 89.297 61.3606 88.403 61.6726 87.593C61.9846 86.777 62.4226 86.075 62.9866 85.487C63.5566 84.899 64.2346 84.443 65.0206 84.119C65.8066 83.789 66.6766 83.624 67.6306 83.624C68.5786 83.624 69.4186 83.78 70.1506 84.092C70.8886 84.404 71.5156 84.812 72.0316 85.316L71.2216 86.441C71.1736 86.513 71.1106 86.576 71.0326 86.63C70.9606 86.684 70.8586 86.711 70.7266 86.711C70.6366 86.711 70.5436 86.687 70.4476 86.639C70.3516 86.585 70.2466 86.522 70.1326 86.45C70.0186 86.372 69.8866 86.288 69.7366 86.198C69.5866 86.108 69.4126 86.027 69.2146 85.955C69.0166 85.877 68.7856 85.814 68.5216 85.766C68.2636 85.712 67.9636 85.685 67.6216 85.685C67.0396 85.685 66.5056 85.79 66.0196 86C65.5396 86.204 65.1256 86.504 64.7776 86.9C64.4296 87.29 64.1596 87.77 63.9676 88.34C63.7756 88.904 63.6796 89.549 63.6796 90.275C63.6796 91.007 63.7816 91.658 63.9856 92.228C64.1956 92.798 64.4776 93.278 64.8316 93.668C65.1856 94.058 65.6026 94.358 66.0826 94.568C66.5626 94.772 67.0786 94.874 67.6306 94.874C67.9606 94.874 68.2576 94.856 68.5216 94.82C68.7916 94.784 69.0376 94.727 69.2596 94.649C69.4876 94.571 69.7006 94.472 69.8986 94.352C70.1026 94.226 70.3036 94.073 70.5016 93.893C70.5616 93.839 70.6246 93.797 70.6906 93.767C70.7566 93.731 70.8256 93.713 70.8976 93.713Z" fill="#5D7E9D"/>
<path d="M66 28.8331C65.0523 32.9158 62.0792 35.409 58.9528 37.7666C58.0667 38.4347 57.1191 39.0286 56.1591 39.5862C55.8902 39.7423 55.3914 39.7934 55.1416 39.6473C52.0899 37.8607 49.2736 35.775 47.1044 32.932C46.1222 31.6448 45.3813 30.2378 45.2279 28.5836C44.8113 24.094 48.7761 21.0192 53.0097 22.5642C53.5888 22.7755 54.1341 23.0796 54.7344 23.3592C54.7344 18.999 54.7344 14.6569 54.7344 10.2705C48.7855 10.2705 42.8413 10.2705 36.856 10.2705C36.856 19.1334 36.856 27.99 36.856 36.9157C37.156 36.8819 37.454 36.8369 37.7537 36.8165C40.0713 36.6577 42.2532 37.121 44.2944 38.2414C44.7227 38.4764 45.0482 38.7562 44.9149 39.2977C44.7863 39.8204 44.3622 39.8993 43.9105 39.9154C40.0271 40.0534 36.7209 42.9767 35.9484 46.7424C34.932 51.6968 38.6962 56.6063 43.7491 56.8635C44.0177 56.8771 44.3126 56.8932 44.5441 57.0098C45.1302 57.3048 45.068 58.0953 44.4354 58.4627C43.1733 59.1956 41.8149 59.6741 40.3713 59.879C34.2291 60.7503 28.6085 56.8341 27.292 50.7789C26.0754 45.1832 29.2206 39.5055 34.6674 37.5011C35.0618 37.3559 35.1954 37.1822 35.1946 36.7588C35.1813 28.1253 35.1846 19.4919 35.1846 10.8584C35.1846 10.6684 35.1846 10.4784 35.1846 10.2586C29.369 10.2586 23.6181 10.2586 17.842 10.2586C17.842 12.5071 17.5831 14.7641 17.9158 16.9301C18.2401 19.042 19.1772 21.0586 19.8259 23.1232C19.9311 23.4576 20.1415 23.4536 20.4053 23.4528C22.534 23.4473 24.6626 23.4532 26.7914 23.4414C27.2718 23.4387 27.7168 23.4878 27.8862 24.0119C28.0564 24.5387 27.7143 24.8377 27.3276 25.1156C25.6156 26.3458 23.9184 27.5968 22.1967 28.8134C21.8606 29.0509 21.8125 29.2536 21.9384 29.6282C22.6279 31.6795 23.285 33.7416 23.9651 35.796C24.1209 36.2664 24.08 36.7172 23.6087 36.8815C23.3232 36.9809 22.864 36.8916 22.6067 36.711C20.8654 35.4887 19.1492 34.2301 17.4448 32.9566C17.0872 32.6894 16.8512 32.6889 16.4929 32.9566C14.7884 34.2301 13.0633 35.4761 11.3406 36.725C10.7703 37.1384 10.2187 37.0965 10.007 36.581C9.90202 36.3256 9.9253 35.9657 10.0122 35.6916C10.6476 33.6842 11.3026 31.6828 11.9794 29.6888C12.1203 29.2736 12.0728 29.0423 11.6936 28.776C10.0001 27.5874 8.33046 26.3648 6.6614 25.1418C6.41547 24.9615 6.21922 24.7131 6 24.4962C6 24.3009 6 24.1055 6 23.9102C6.33062 23.5337 6.74078 23.4295 7.24078 23.4356C9.3278 23.4611 11.4153 23.4395 13.5025 23.459C13.8792 23.4626 14.0454 23.347 14.1564 22.9824C14.587 21.5665 15.0561 20.1624 15.5059 18.7521C15.7306 18.0476 16.1062 17.3458 16.1331 16.6321C16.2117 14.5484 16.1493 12.4595 16.139 10.3727C16.1389 10.3416 16.0983 10.3107 16.0389 10.2261C15.8659 10.2261 15.6548 10.2261 15.4437 10.2261C13.4929 10.2261 11.5422 10.2314 9.59155 10.2213C9.22421 10.2194 8.84531 10.2028 8.49202 10.1128C7.12593 9.76511 6.39937 8.78416 6.00016 7.50129C6.00016 7.11059 6.00016 6.7199 6.00016 6.32921C6.87453 4.11477 7.68828 3.56733 10.1059 3.56733C12.5861 3.56733 15.0662 3.56733 17.5464 3.56733C21.9014 3.56733 26.2562 3.56186 30.6112 3.57561C31.0515 3.57702 31.2477 3.44809 31.4798 3.03646C31.8832 2.32087 32.3687 1.5809 33.0027 1.0855C33.6532 0.577286 34.5231 0.35006 35.297 0C35.7657 0 36.2345 0 36.7032 0C36.8315 0.0409445 36.9579 0.0887652 37.088 0.121896C38.6598 0.522121 39.8366 1.43071 40.4783 2.92331C40.7029 3.44575 40.9685 3.58077 41.5057 3.57936C48.4582 3.56108 55.4107 3.56561 62.3633 3.56842C64.2431 3.56921 65.3492 4.38919 65.9136 6.177C65.9308 6.23138 65.9706 6.27858 66 6.32921C66 6.7199 66 7.11059 66 7.50129C65.0963 9.71901 64.3291 10.2263 61.8788 10.2263C60.278 10.2263 58.6771 10.2263 57.0763 10.2263C56.8682 10.2263 56.66 10.2263 56.4432 10.2263C56.4432 14.6588 56.4432 19.0131 56.4432 23.3674C57.0594 23.0804 57.6224 22.763 58.2219 22.5479C61.4702 21.3826 64.723 22.9264 65.7098 26.0809C65.813 26.4103 65.9036 26.7435 65.9998 27.0751C66 27.661 66 28.247 66 28.8331ZM35.9382 8.62226C44.6662 8.62226 53.3941 8.62288 62.122 8.61976C62.433 8.6196 62.7508 8.61554 63.0536 8.55459C63.802 8.40394 64.3439 7.72757 64.367 6.96463C64.3997 5.88757 63.6134 5.17979 62.3635 5.17964C44.8099 5.17807 27.2565 5.17823 9.70296 5.18198C9.43218 5.18198 9.15374 5.20339 8.89202 5.26793C8.11718 5.45922 7.61578 6.14933 7.63343 6.95744C7.65046 7.74086 8.21546 8.42254 8.99749 8.56506C9.28296 8.6171 9.57999 8.61992 9.87171 8.61992C18.5606 8.62273 27.2493 8.62226 35.9382 8.62226ZM64.3709 27.9868C64.3658 25.3304 62.3889 23.4945 59.8511 23.8145C58.4846 23.9869 57.356 24.6544 56.3653 25.5856C55.7389 26.1745 55.493 26.1178 54.8127 25.6017C54.075 25.0423 53.3116 24.4456 52.4619 24.1174C49.2568 22.8795 46.3536 25.2873 46.8694 28.6809C47.0413 29.8115 47.5505 30.7912 48.2047 31.699C49.9925 34.1795 52.3741 35.9924 54.8992 37.6508C55.4083 37.9851 55.77 37.9981 56.2877 37.6555C58.8227 35.978 61.2325 34.1679 63.0144 31.654C63.7916 30.5576 64.3703 29.3758 64.3709 27.9868ZM41.0819 38.7516C37.6834 37.7588 33.191 38.8806 30.5318 42.5806C27.9232 46.2103 28.0484 51.0734 30.8479 54.6201C33.6246 58.1381 38.1565 58.9781 41.0474 58.0215C36.7577 56.2321 34.2109 53.1007 34.2051 48.4088C34.1993 43.6876 36.7604 40.5446 41.0819 38.7516ZM9.38077 25.0824C9.66577 25.3039 9.82577 25.4356 9.99311 25.557C11.0989 26.3601 12.207 27.16 13.3126 27.9631C13.9656 28.4374 14.0175 28.6074 13.7612 29.4018C13.6056 29.8842 13.4462 30.3655 13.29 30.8478C12.9617 31.8617 12.6342 32.8758 12.2534 34.054C13.4615 33.174 14.5308 32.4006 15.5943 31.6193C17.0679 30.5371 16.869 30.5405 18.3329 31.6093C19.3982 32.3871 20.4651 33.1627 21.5312 33.9393C21.2184 32.6173 20.824 31.3582 20.4009 30.1088C19.7961 28.3231 19.8667 28.5119 21.2584 27.5086C22.3245 26.74 23.3834 25.9616 24.4456 25.1876C24.2182 25.0782 24.0296 25.078 23.841 25.0782C22.4348 25.0796 21.0284 25.066 19.6225 25.0893C19.0256 25.0991 18.6839 24.8718 18.5054 24.291C18.0759 22.8935 17.609 21.5073 17.1551 20.1172C17.1062 19.9673 17.0442 19.8218 16.9498 19.573C16.4225 21.2096 15.9203 22.7269 15.4484 24.2534C15.2656 24.8449 14.9281 25.1024 14.2965 25.0915C12.7161 25.064 11.1344 25.0824 9.38077 25.0824ZM38.9323 3.54139C38.3823 2.26258 37.0966 1.53464 35.6807 1.64091C34.5454 1.72608 33.3682 2.58716 33.1107 3.54139C35.0387 3.54139 36.9595 3.54139 38.9323 3.54139Z" fill="#5D7E9D"/>
</svg>
