<svg width="74" height="101" viewBox="0 0 74 101" fill="none" xmlns="http://www.w3.org/2000/svg">
<path d="M5.22 96.9754C4.548 96.9754 3.933 96.8854 3.375 96.7054C2.823 96.5254 2.349 96.2704 1.953 95.9404C1.557 95.6104 1.248 95.2114 1.026 94.7434C0.81 94.2754 0.702 93.7534 0.702 93.1774C0.702 92.4094 0.891 91.7614 1.269 91.2334C1.647 90.6994 2.235 90.3034 3.033 90.0454C2.397 89.7814 1.92 89.4064 1.602 88.9204C1.29 88.4344 1.134 87.8494 1.134 87.1654C1.134 86.6734 1.233 86.2144 1.431 85.7884C1.635 85.3624 1.917 84.9934 2.277 84.6814C2.637 84.3634 3.066 84.1174 3.564 83.9434C4.068 83.7634 4.62 83.6734 5.22 83.6734C5.82 83.6734 6.369 83.7634 6.867 83.9434C7.371 84.1174 7.803 84.3634 8.163 84.6814C8.523 84.9934 8.802 85.3624 9 85.7884C9.204 86.2144 9.306 86.6734 9.306 87.1654C9.306 87.8494 9.147 88.4344 8.829 88.9204C8.511 89.4064 8.037 89.7814 7.407 90.0454C8.205 90.3034 8.793 90.6994 9.171 91.2334C9.549 91.7614 9.738 92.4094 9.738 93.1774C9.738 93.7534 9.627 94.2754 9.405 94.7434C9.189 95.2114 8.883 95.6104 8.487 95.9404C8.091 96.2704 7.614 96.5254 7.056 96.7054C6.504 96.8854 5.892 96.9754 5.22 96.9754ZM5.22 95.2384C5.586 95.2384 5.907 95.1874 6.183 95.0854C6.459 94.9774 6.69 94.8304 6.876 94.6444C7.068 94.4584 7.212 94.2364 7.308 93.9784C7.404 93.7204 7.452 93.4414 7.452 93.1414C7.452 92.4274 7.254 91.8874 6.858 91.5214C6.462 91.1554 5.916 90.9724 5.22 90.9724C4.524 90.9724 3.978 91.1554 3.582 91.5214C3.186 91.8874 2.988 92.4274 2.988 93.1414C2.988 93.4414 3.036 93.7204 3.132 93.9784C3.228 94.2364 3.369 94.4584 3.555 94.6444C3.747 94.8304 3.981 94.9774 4.257 95.0854C4.533 95.1874 4.854 95.2384 5.22 95.2384ZM5.22 89.2264C5.58 89.2264 5.883 89.1694 6.129 89.0554C6.375 88.9414 6.573 88.7914 6.723 88.6054C6.873 88.4134 6.978 88.1974 7.038 87.9574C7.104 87.7114 7.137 87.4594 7.137 87.2014C7.137 86.9554 7.098 86.7214 7.02 86.4994C6.942 86.2774 6.825 86.0824 6.669 85.9144C6.513 85.7404 6.315 85.6024 6.075 85.5004C5.835 85.3984 5.55 85.3474 5.22 85.3474C4.89 85.3474 4.605 85.3984 4.365 85.5004C4.125 85.6024 3.924 85.7404 3.762 85.9144C3.606 86.0824 3.489 86.2774 3.411 86.4994C3.339 86.7214 3.303 86.9554 3.303 87.2014C3.303 87.4594 3.333 87.7114 3.393 87.9574C3.459 88.1974 3.567 88.4134 3.717 88.6054C3.867 88.7914 4.065 88.9414 4.311 89.0554C4.557 89.1694 4.86 89.2264 5.22 89.2264ZM11.5214 90.4684H16.1834V92.3224H11.5214V90.4684ZM19.6912 95.1664H22.3282V87.5794C22.3282 87.2854 22.3372 86.9764 22.3552 86.6524L20.4832 88.2184C20.4052 88.2844 20.3242 88.3294 20.2402 88.3534C20.1622 88.3774 20.0842 88.3894 20.0062 88.3894C19.8862 88.3894 19.7752 88.3654 19.6732 88.3174C19.5772 88.2634 19.5052 88.2034 19.4572 88.1374L18.7552 87.1744L22.7242 83.7994H24.5512V95.1664H26.8912V96.8314H19.6912V95.1664ZM37.8816 90.3244C37.8816 91.4584 37.7586 92.4454 37.5126 93.2854C37.2726 94.1194 36.9366 94.8094 36.5046 95.3554C36.0786 95.9014 35.5716 96.3094 34.9836 96.5794C34.4016 96.8434 33.7716 96.9754 33.0936 96.9754C32.4156 96.9754 31.7856 96.8434 31.2036 96.5794C30.6276 96.3094 30.1266 95.9014 29.7006 95.3554C29.2746 94.8094 28.9416 94.1194 28.7016 93.2854C28.4616 92.4454 28.3416 91.4584 28.3416 90.3244C28.3416 89.1844 28.4616 88.1974 28.7016 87.3634C28.9416 86.5294 29.2746 85.8394 29.7006 85.2934C30.1266 84.7474 30.6276 84.3424 31.2036 84.0784C31.7856 83.8084 32.4156 83.6734 33.0936 83.6734C33.7716 83.6734 34.4016 83.8084 34.9836 84.0784C35.5716 84.3424 36.0786 84.7474 36.5046 85.2934C36.9366 85.8394 37.2726 86.5294 37.5126 87.3634C37.7586 88.1974 37.8816 89.1844 37.8816 90.3244ZM35.5866 90.3244C35.5866 89.3824 35.5176 88.6024 35.3796 87.9844C35.2416 87.3664 35.0556 86.8744 34.8216 86.5084C34.5936 86.1424 34.3296 85.8874 34.0296 85.7434C33.7296 85.5934 33.4176 85.5184 33.0936 85.5184C32.7756 85.5184 32.4666 85.5934 32.1666 85.7434C31.8726 85.8874 31.6116 86.1424 31.3836 86.5084C31.1556 86.8744 30.9726 87.3664 30.8346 87.9844C30.7026 88.6024 30.6366 89.3824 30.6366 90.3244C30.6366 91.2664 30.7026 92.0464 30.8346 92.6644C30.9726 93.2824 31.1556 93.7744 31.3836 94.1404C31.6116 94.5064 31.8726 94.7644 32.1666 94.9144C32.4666 95.0584 32.7756 95.1304 33.0936 95.1304C33.4176 95.1304 33.7296 95.0584 34.0296 94.9144C34.3296 94.7644 34.5936 94.5064 34.8216 94.1404C35.0556 93.7744 35.2416 93.2824 35.3796 92.6644C35.5176 92.0464 35.5866 91.2664 35.5866 90.3244ZM45.9084 94.8334H51.1194V96.8314H43.4874V83.8174H45.9084V94.8334ZM64.4053 96.8314H62.5333C62.3233 96.8314 62.1493 96.7804 62.0113 96.6784C61.8793 96.5704 61.7833 96.4384 61.7233 96.2824L60.7513 93.6274H55.3603L54.3883 96.2824C54.3403 96.4204 54.2443 96.5464 54.1003 96.6604C53.9623 96.7744 53.7913 96.8314 53.5873 96.8314H51.7063L56.8183 83.8174H59.2933L64.4053 96.8314ZM55.9813 91.9174H60.1303L58.5463 87.5884C58.4743 87.3964 58.3933 87.1714 58.3033 86.9134C58.2193 86.6494 58.1353 86.3644 58.0513 86.0584C57.9673 86.3644 57.8833 86.6494 57.7993 86.9134C57.7213 87.1774 57.6433 87.4084 57.5653 87.6064L55.9813 91.9174ZM73.7782 83.8174V85.8064H69.8632V96.8314H67.4422V85.8064H63.5092V83.8174H73.7782Z" fill="#5D7E9D"/>
<path d="M69.9305 40.404C69.8121 41.1313 69.7275 41.8585 69.5584 42.5858C68.8481 45.6131 67.1737 47.9639 64.5692 49.6383C64.2309 49.8581 64.0956 50.078 64.0787 50.4839C63.9434 55.3716 60.0028 59.5152 55.2504 59.9549C50.0244 60.4454 45.4749 56.8768 44.5448 52.006C44.5109 51.82 44.4602 51.634 44.4095 51.4141C44.1727 51.4141 43.9697 51.4141 43.7499 51.4141C39.4033 51.4141 35.0399 51.4141 30.6934 51.3972C30.2367 51.3972 30.0169 51.4648 29.9154 52.006C29.019 56.6908 24.7909 60.1071 20.0892 59.9888C15.1677 59.8704 11.041 56.3018 10.4998 51.4648C10.3476 50.1457 9.89098 49.3508 8.91005 48.539C6.59303 46.6109 5.29077 44.0402 5.08782 40.9791C4.68192 34.5354 5.64593 28.3285 8.75784 22.5951C12.0558 16.5235 17.231 13.0565 24.0299 11.9741C28.4948 11.2637 32.9258 11.3821 37.2724 12.6675C42.7013 14.2742 46.7941 17.6905 49.8384 22.3753C50.9377 24.0665 51.8848 25.8762 52.7981 27.6689C53.1871 28.4469 53.593 28.7851 54.5062 28.7344C55.91 28.6329 57.3306 28.6837 58.7513 28.7175C62.3706 28.819 65.2626 30.358 67.5458 33.1655C68.8819 34.7891 69.5922 36.6495 69.8121 38.7128C69.829 38.8481 69.8797 38.9834 69.9135 39.1356C69.9305 39.5584 69.9305 39.9812 69.9305 40.404ZM67.2752 40.8269C66.0068 40.8269 64.806 40.8438 63.6052 40.8269C63.0301 40.8269 62.4551 40.8438 61.897 40.7254C60.1212 40.3195 58.9204 38.6959 59.005 36.9031C59.1064 35.0766 60.4764 33.6052 62.3367 33.4023C62.861 33.3346 63.4022 33.3515 63.9603 33.3177C63.9265 33.2331 63.9265 33.1824 63.8927 33.1655C63.7743 33.064 63.6728 32.9794 63.5375 32.8949C62.083 31.8801 60.4594 31.322 58.6836 31.3051C56.7387 31.2713 54.7937 31.2882 52.8488 31.3051C52.1892 31.3051 51.6987 31.0683 51.3943 30.4933C51.2252 30.172 51.0561 29.8675 50.87 29.5462C49.8384 27.6689 48.8913 25.707 47.7243 23.9143C45.0183 19.6862 41.3652 16.5912 36.4775 15.1536C32.6722 14.0205 28.7654 13.919 24.8586 14.4602C18.4318 15.3735 13.5948 18.6038 10.652 24.4386C8.08134 29.5462 7.28645 35.0259 7.59087 40.6916C7.70926 43.0086 8.7071 44.9535 10.3814 46.5602C10.5167 46.6955 10.6859 46.8139 10.8719 46.9492C10.9565 46.7632 11.0072 46.6448 11.0579 46.5264C12.7154 42.4166 16.8251 39.9136 21.1885 40.3364C25.5351 40.7592 29.1036 44.0402 29.9323 48.3698C30.0169 48.8096 30.186 48.911 30.5919 48.911C35.0061 48.8941 39.4203 48.8941 43.8513 48.911C44.2911 48.911 44.4602 48.7757 44.5448 48.336C45.3735 44.463 47.6736 41.8416 51.4451 40.7254C55.2335 39.6091 58.5821 40.5901 61.3727 43.3806C62.4382 44.4461 63.1316 45.7315 63.6559 47.2029C65.8038 45.5454 66.9708 43.4821 67.2752 40.8269ZM20.2414 57.4519C24.2666 57.4688 27.5477 54.2047 27.5646 50.1964C27.5815 46.1374 24.3005 42.8394 20.2753 42.8394C16.2501 42.8394 12.986 46.0697 12.9521 50.1118C12.9183 54.137 16.1824 57.435 20.2414 57.4519ZM54.2356 57.4519C58.2608 57.4688 61.5418 54.2047 61.5588 50.1795C61.5757 46.1205 58.2946 42.8225 54.2525 42.8225C50.2274 42.8225 46.9632 46.0528 46.9294 50.0949C46.9125 54.1539 50.1766 57.435 54.2356 57.4519ZM67.2752 39.2709C67.1061 37.7319 66.6494 36.3958 65.8207 35.195C65.7192 35.0597 65.5332 34.9075 65.381 34.8906C64.3493 34.8906 63.3177 34.8398 62.286 34.9582C61.2712 35.0766 60.5102 36.1083 60.544 37.1399C60.5778 38.2054 61.4065 39.2032 62.4551 39.2371C64.0449 39.3216 65.6178 39.2709 67.2752 39.2709Z" fill="#5D7E9D" stroke="#F4F6F8" stroke-width="0.7"/>
<path d="M69.2542 17.1155C68.9667 17.3692 68.8145 17.589 68.5946 17.6905C67.9012 18.0287 67.1571 18.2993 66.4806 18.6714C66.1761 18.8406 65.8886 19.1281 65.7533 19.4494C65.3982 20.2612 65.1614 21.1237 64.8401 21.9355C64.7555 22.1385 64.5356 22.2907 64.3665 22.4767C64.1974 22.2907 63.9437 22.1385 63.8422 21.9355C63.504 21.1237 63.2672 20.2612 62.9289 19.4494C62.8106 19.1619 62.54 18.8575 62.2524 18.7053C61.5421 18.3332 60.7811 18.0626 60.0707 17.6905C59.8678 17.589 59.631 17.3184 59.6141 17.1155C59.5972 16.9463 59.8509 16.6927 60.0538 16.5912C60.7472 16.236 61.4914 15.9823 62.1679 15.5933C62.4892 15.4242 62.7936 15.1029 62.9289 14.7815C63.2841 13.9697 63.5209 13.1241 63.8422 12.2954C63.9268 12.0925 64.1636 11.9572 64.3158 11.788C64.4849 11.9572 64.7217 12.0925 64.8062 12.2954C65.1276 13.1241 65.3813 13.9697 65.7195 14.7815C65.8548 15.086 66.1423 15.4073 66.4298 15.5595C67.1233 15.9485 67.8843 16.2191 68.6116 16.5743C68.8314 16.6757 68.9836 16.8618 69.2542 17.1155Z" fill="#5D7E9D"/>
<path d="M46.7606 4.65096C46.6591 4.82009 46.6253 4.93847 46.5408 5.02304C46.4393 5.12451 46.2871 5.19216 46.1518 5.22599C44.7142 5.58115 43.9193 6.51134 43.6656 7.9489C43.6487 8.0842 43.598 8.25333 43.5134 8.3548C43.4289 8.47319 43.2766 8.64232 43.1583 8.64232C43.0399 8.64232 42.8707 8.47319 42.82 8.33789C42.6001 7.76287 42.4479 7.17093 42.1773 6.62973C42.0251 6.30839 41.7376 6.00396 41.4163 5.80101C40.9935 5.53041 40.503 5.39511 40.0464 5.15834C39.8772 5.07377 39.6235 4.85391 39.6574 4.75244C39.6912 4.5664 39.8941 4.32962 40.0633 4.27888C41.653 3.90681 42.4141 2.82441 42.7354 1.31919C42.7862 1.11624 43.006 0.947116 43.1583 0.761078C43.2936 0.947116 43.5303 1.11624 43.5811 1.3361C43.8686 2.89206 44.7142 3.8899 46.2702 4.2958C46.4562 4.32962 46.5915 4.51566 46.7606 4.65096Z" fill="#5D7E9D"/>
<path d="M59.7499 0.186054C61.086 0.186054 62.1177 1.23463 62.1007 2.57072C62.0838 3.8899 61.0353 4.92156 59.6992 4.90465C58.4138 4.88774 57.3652 3.83916 57.3652 2.55381C57.3652 1.21772 58.4307 0.169141 59.7499 0.186054Z" fill="#5D7E9D"/>
<path d="M35.6142 0C36.1723 0 36.6121 0.456638 36.5951 1.01475C36.5951 1.57287 36.1385 1.99568 35.5804 1.97877C35.0392 1.96185 34.6333 1.53904 34.6333 0.997839C34.6164 0.456638 35.0561 0 35.6142 0Z" fill="#5D7E9D"/>
<path d="M36.5623 31.322C34.9387 31.322 33.3151 31.322 31.6746 31.322C29.8988 31.3051 28.8333 30.2396 28.8164 28.4807C28.8164 26.0115 28.8164 23.5422 28.8164 21.073C28.8164 19.2465 30.051 18.0457 31.8437 18.2486C37.797 18.8913 41.9913 21.8848 44.1053 27.5843C44.8664 29.6138 43.6487 31.322 41.4839 31.3389C39.8603 31.322 38.2198 31.322 36.5623 31.322ZM36.5962 29.783C38.2198 29.783 39.8434 29.7999 41.4839 29.7661C41.8221 29.7661 42.2111 29.6646 42.4648 29.4616C42.9384 29.1065 42.8707 28.5822 42.6847 28.0748C40.9427 23.1871 37.0021 20.2612 31.6746 19.7538C30.8459 19.6693 30.3724 20.1597 30.3554 21.073C30.3554 23.5253 30.3554 25.9777 30.3554 28.43C30.3554 29.394 30.7444 29.783 31.6915 29.783C33.3321 29.7999 34.9726 29.783 36.5962 29.783Z" fill="#5D7E9D"/>
<path d="M24.9433 25.724C24.9433 26.688 24.9603 27.6689 24.9433 28.6329C24.9095 30.2227 23.844 31.2882 22.2712 31.322C20.4277 31.3389 18.6011 31.3558 16.7577 31.322C14.6943 31.2882 13.4766 29.394 14.3223 27.5167C15.7429 24.354 18.0769 22.037 21.1042 20.4303C22.8124 19.5171 24.825 20.7009 24.9095 22.629C24.9603 23.6437 24.9264 24.6754 24.9433 25.724C24.9264 25.724 24.9264 25.724 24.9433 25.724ZM23.4043 25.7578C23.4043 24.7599 23.4212 23.779 23.3874 22.7812C23.3536 21.8679 22.5418 21.3605 21.7469 21.8003C19.0916 23.2716 16.9945 25.3011 15.726 28.0917C15.3032 29.005 15.7937 29.7661 16.8084 29.7661C18.5842 29.783 20.36 29.783 22.1359 29.7661C23.0153 29.7661 23.3874 29.3602 23.3874 28.4638C23.4043 27.5674 23.4043 26.6711 23.4043 25.7578Z" fill="#5D7E9D"/>
<path d="M11.8532 35.8715C11.8363 36.1759 11.8363 36.4634 11.8025 36.734C11.6841 37.4443 11.1091 37.9348 10.4326 37.8841C9.73918 37.8333 9.26562 37.309 9.26562 36.548C9.26562 36.1082 9.29945 35.6516 9.3671 35.2288C9.5024 34.417 10.0605 33.9773 10.8216 34.0787C11.515 34.1633 11.9547 34.7722 11.8871 35.5501C11.8871 35.6516 11.8702 35.7869 11.8532 35.8715Z" fill="#5D7E9D"/>
<path d="M12.7489 30.5779C12.6644 30.9499 12.5629 31.508 12.3938 32.0154C12.1908 32.5904 11.5143 32.8949 10.9393 32.7427C10.3304 32.5735 9.8907 32.0323 9.97527 31.4404C10.0429 30.9161 10.1613 30.3918 10.3304 29.9014C10.5334 29.3094 11.1591 29.005 11.768 29.1403C12.3599 29.2418 12.7658 29.783 12.7489 30.5779Z" fill="#5D7E9D"/>
<path d="M45.3063 37.0553C45.3063 36.8016 45.2894 36.548 45.3063 36.2943C45.3402 35.8545 45.5769 35.5839 46.0336 35.567C46.4902 35.5501 46.7777 35.8207 46.8116 36.2435C46.8623 36.8016 46.8623 37.3936 46.8116 37.9517C46.7777 38.3745 46.4733 38.6451 46.0336 38.6113C45.5939 38.5775 45.3402 38.3238 45.3233 37.8671C45.2894 37.6134 45.3063 37.3259 45.3063 37.0553Z" fill="#5D7E9D"/>
<path d="M42.2786 40.4548C42.2786 40.7254 42.2955 41.0129 42.2786 41.2835C42.2279 41.7232 41.9573 41.9769 41.5176 41.9769C41.0778 41.9769 40.7903 41.7063 40.7734 41.2666C40.7396 40.7254 40.7396 40.1673 40.7734 39.6261C40.8072 39.1863 41.0948 38.9326 41.5345 38.9326C41.9742 38.9326 42.2448 39.2032 42.2786 39.643C42.2955 39.8967 42.2786 40.1842 42.2786 40.4548Z" fill="#5D7E9D"/>
<path d="M23.5567 50.1118C23.5736 51.9384 22.1022 53.4436 20.2926 53.4605C18.4999 53.4774 16.9777 51.9891 16.9439 50.1795C16.9101 48.3698 18.3984 46.8646 20.225 46.8477C22.0684 46.8308 23.5398 48.2684 23.5567 50.1118ZM20.2419 48.3868C19.2609 48.3868 18.4661 49.1986 18.483 50.1626C18.4999 51.1266 19.3117 51.9384 20.2757 51.9215C21.2397 51.9046 22.0177 51.1097 22.0177 50.1287C22.0008 49.1309 21.2397 48.3698 20.2419 48.3868Z" fill="#5D7E9D"/>
<path d="M57.5503 50.1288C57.5503 51.9553 56.062 53.4436 54.2524 53.4436C52.4596 53.4436 50.9375 51.9384 50.9375 50.1288C50.9375 48.3191 52.4258 46.8308 54.2524 46.8308C56.0789 46.8477 57.5503 48.3022 57.5503 50.1288ZM54.3031 48.3868C53.3053 48.3699 52.5104 49.0971 52.4765 50.078C52.4427 51.0251 53.2207 51.8707 54.1847 51.9046C55.1487 51.9384 55.9774 51.1604 55.9943 50.1964C56.0282 49.1986 55.284 48.4037 54.3031 48.3868Z" fill="#5D7E9D"/>
</svg>
