<svg width="64" height="101" viewBox="0 0 64 101" fill="none" xmlns="http://www.w3.org/2000/svg">
<path d="M5.418 83.6734C6.018 83.6734 6.567 83.7634 7.065 83.9434C7.563 84.1174 7.989 84.3664 8.343 84.6904C8.697 85.0144 8.973 85.4044 9.171 85.8604C9.369 86.3164 9.468 86.8234 9.468 87.3814C9.468 87.8614 9.396 88.3054 9.252 88.7134C9.114 89.1214 8.925 89.5114 8.685 89.8834C8.451 90.2554 8.175 90.6154 7.857 90.9634C7.539 91.3114 7.206 91.6654 6.858 92.0254L3.924 95.0224C4.212 94.9384 4.494 94.8754 4.77 94.8334C5.046 94.7854 5.31 94.7614 5.562 94.7614H8.901C9.141 94.7614 9.33 94.8304 9.468 94.9684C9.612 95.1004 9.684 95.2774 9.684 95.4994V96.8314H0.756V96.0934C0.756 95.9434 0.786 95.7874 0.846 95.6254C0.912 95.4634 1.014 95.3134 1.152 95.1754L5.103 91.2154C5.433 90.8794 5.727 90.5584 5.985 90.2524C6.249 89.9464 6.468 89.6434 6.642 89.3434C6.822 89.0434 6.957 88.7404 7.047 88.4344C7.143 88.1224 7.191 87.7954 7.191 87.4534C7.191 87.1414 7.146 86.8684 7.056 86.6344C6.966 86.3944 6.837 86.1934 6.669 86.0314C6.501 85.8694 6.3 85.7494 6.066 85.6714C5.838 85.5874 5.58 85.5454 5.292 85.5454C4.758 85.5454 4.317 85.6804 3.969 85.9504C3.627 86.2204 3.387 86.5834 3.249 87.0394C3.183 87.2674 3.084 87.4324 2.952 87.5344C2.82 87.6304 2.652 87.6784 2.448 87.6784C2.358 87.6784 2.259 87.6694 2.151 87.6514L0.981 87.4444C1.071 86.8204 1.245 86.2744 1.503 85.8064C1.761 85.3324 2.082 84.9394 2.466 84.6274C2.856 84.3094 3.3 84.0724 3.798 83.9164C4.302 83.7544 4.842 83.6734 5.418 83.6734ZM11.5214 90.4684H16.1834V92.3224H11.5214V90.4684ZM25.7482 91.9264H27.3862V93.2134C27.3862 93.3334 27.3472 93.4384 27.2692 93.5284C27.1912 93.6124 27.0772 93.6544 26.9272 93.6544H25.7482V96.8314H23.8042V93.6544H18.3142C18.1642 93.6544 18.0322 93.6094 17.9182 93.5194C17.8042 93.4234 17.7322 93.3064 17.7022 93.1684L17.4772 92.0434L23.6422 83.8084H25.7482V91.9264ZM23.8042 87.6694C23.8042 87.4774 23.8102 87.2704 23.8222 87.0484C23.8342 86.8264 23.8552 86.5954 23.8852 86.3554L19.8442 91.9264H23.8042V87.6694ZM35.287 94.8334H40.498V96.8314H32.866V83.8174H35.287V94.8334ZM53.7839 96.8314H51.9119C51.7019 96.8314 51.5279 96.7804 51.3899 96.6784C51.2579 96.5704 51.1619 96.4384 51.1019 96.2824L50.1299 93.6274H44.7389L43.7669 96.2824C43.7189 96.4204 43.6229 96.5464 43.4789 96.6604C43.3409 96.7744 43.1699 96.8314 42.9659 96.8314H41.0849L46.1969 83.8174H48.6719L53.7839 96.8314ZM45.3599 91.9174H49.5089L47.9249 87.5884C47.8529 87.3964 47.7719 87.1714 47.6819 86.9134C47.5979 86.6494 47.5139 86.3644 47.4299 86.0584C47.3459 86.3644 47.2619 86.6494 47.1779 86.9134C47.0999 87.1774 47.0219 87.4084 46.9439 87.6064L45.3599 91.9174ZM63.1568 83.8174V85.8064H59.2418V96.8314H56.8208V85.8064H52.8878V83.8174H63.1568Z" fill="#5D7E9D"/>
<path d="M61.9961 4.81609C61.9961 21.6119 61.9961 38.4077 61.9961 55.2034C61.9492 55.3441 61.9024 55.5003 61.8711 55.6409C61.3711 57.6095 60.215 58.9688 58.2932 59.6719C57.9339 59.7969 57.5589 59.8906 57.1839 60C40.3881 60 23.5923 60 6.79656 60C6.70282 59.9688 6.6247 59.9219 6.53095 59.9063C3.76551 59.3125 2 57.1564 2 54.3129C2 38.1108 2 21.9087 2 5.70666C2 5.20669 2.04687 4.6911 2.17186 4.20676C2.81245 1.66005 4.9998 0.01953 7.74963 0.003906C21.5456 0.003906 35.3572 0.003906 49.1532 0.003906C51.6374 0.003906 54.106 -0.011718 56.5902 0.01953C58.8869 0.0507779 60.9024 1.51943 61.668 3.69117C61.793 4.06614 61.8867 4.44112 61.9961 4.81609ZM31.9824 2.3475C23.9517 2.3475 15.9366 2.3475 7.90587 2.3475C5.62476 2.3475 4.3436 3.62867 4.3436 5.90977C4.3436 21.9869 4.3436 38.0483 4.3436 54.1254C4.3436 56.3909 5.62476 57.672 7.90587 57.672C23.9517 57.672 40.0131 57.672 56.059 57.672C58.3713 57.672 59.6525 56.3909 59.6525 54.0941C59.6525 38.0483 59.6525 21.9869 59.6525 5.94102C59.6525 3.64429 58.3713 2.36313 56.059 2.36313C48.0283 2.3475 40.0131 2.3475 31.9824 2.3475Z" fill="#5D7E9D"/>
<path d="M20.6713 28.1739C18.5308 28.1739 16.3747 28.1739 14.2342 28.1739C12.3906 28.1739 11.3906 27.1584 11.3906 25.2991C11.3906 21.0025 11.3906 16.7059 11.3906 12.425C11.3906 10.6126 12.4062 9.59702 14.2186 9.59702C18.5464 9.59702 22.8899 9.59702 27.2177 9.59702C28.9832 9.59702 30.0144 10.6282 30.0144 12.4093C30.0144 16.7216 30.0144 21.0338 30.0144 25.346C30.0144 27.1584 28.9989 28.1739 27.1865 28.1739C24.9991 28.1739 22.8274 28.1739 20.6713 28.1739ZM20.6556 25.8303C22.7805 25.8303 24.9054 25.8147 27.0302 25.846C27.5146 25.846 27.6552 25.6897 27.6552 25.2054C27.6396 20.9869 27.6396 16.784 27.6552 12.5656C27.6552 12.0812 27.5302 11.925 27.0302 11.925C22.7961 11.9406 18.562 11.9406 14.3279 11.925C13.8436 11.925 13.703 12.0812 13.703 12.5499C13.7186 16.7684 13.7186 20.9713 13.703 25.1897C13.703 25.7366 13.8905 25.8303 14.3748 25.8303C16.484 25.8147 18.562 25.8303 20.6556 25.8303Z" fill="#5D7E9D"/>
<path d="M20.5771 31.2831C21.5146 31.2831 22.1552 31.6268 22.6551 32.2674C23.3894 33.2049 24.1082 34.1579 24.8581 35.0797C25.0456 35.3141 25.3112 35.5016 25.5924 35.611C26.6861 36.0328 27.7954 36.4078 28.8891 36.814C30.5921 37.4702 31.1233 39.142 30.1234 40.6575C29.4828 41.6418 28.7953 42.5949 28.1704 43.5792C28.0141 43.8292 27.9204 44.1417 27.9048 44.4385C27.8423 45.6259 27.8267 46.8134 27.7642 48.0164C27.686 49.6725 26.233 50.7662 24.6237 50.3288C23.4363 50.0163 22.2645 49.6413 21.0771 49.3288C20.8271 49.2663 20.5303 49.2663 20.2959 49.3288C19.1241 49.6413 17.9679 49.985 16.8118 50.2975C15.0931 50.7662 13.6401 49.6882 13.5932 47.9227C13.562 46.7352 13.5307 45.5478 13.4682 44.3448C13.4526 44.0948 13.3589 43.8136 13.2182 43.5948C12.5777 42.6105 11.9058 41.6574 11.2652 40.6731C10.2184 39.0951 10.7809 37.4233 12.562 36.7671C12.7964 36.6734 13.0307 36.564 13.2807 36.5172C15.4525 36.0484 17.0774 34.8298 18.1867 32.9236C18.3585 32.6268 18.6085 32.3612 18.8429 32.0956C19.3272 31.5487 19.9522 31.2675 20.5771 31.2831ZM13.0151 39.1107C13.7026 40.1263 14.2807 41.0794 14.9525 41.9543C15.5931 42.7824 15.8587 43.6729 15.8274 44.7197C15.7962 45.829 15.8899 46.9227 15.9368 48.1101C16.9211 47.8289 17.8742 47.6414 18.7491 47.2977C20.0459 46.7977 21.2958 46.7821 22.5926 47.2977C23.4676 47.6414 24.4206 47.8289 25.3893 48.1101C25.4362 46.6727 25.4518 45.2978 25.5456 43.9385C25.5768 43.5011 25.7174 43.0167 25.9518 42.6418C26.5924 41.5949 27.3111 40.595 27.9985 39.5795C28.0923 39.4388 28.1704 39.2982 28.2798 39.0951C27.0142 38.6264 25.8112 38.1577 24.5925 37.7514C23.9675 37.5483 23.4988 37.2359 23.1082 36.689C22.452 35.7828 21.7489 34.9235 21.0615 34.0486C20.9365 33.8923 20.7959 33.7361 20.624 33.5486C19.8272 34.5642 19.0616 35.5016 18.3585 36.4703C17.8742 37.1577 17.2648 37.5796 16.468 37.8296C15.3587 38.2202 14.2494 38.6733 13.0151 39.1107Z" fill="#5D7E9D"/>
<path d="M44.1378 49.8288C41.4661 49.8288 38.7944 49.8132 36.1071 49.8288C35.0915 49.8444 34.2634 49.5475 33.7478 48.6257C33.2166 47.6883 33.4354 46.8133 33.9822 45.9384C36.6539 41.7043 39.31 37.439 41.9817 33.2049C43.1222 31.3769 45.1221 31.3925 46.2627 33.2205C48.9344 37.4858 51.6061 41.7512 54.2778 46.0165C54.8246 46.8758 54.9808 47.7508 54.4652 48.657C53.9653 49.5475 53.1528 49.8444 52.1529 49.8444C49.4968 49.8132 46.8095 49.8288 44.1378 49.8288ZM44.1222 34.2048C41.3411 38.642 38.6069 43.0167 35.8258 47.4383C41.388 47.4383 46.8564 47.4383 52.4029 47.4383C49.6374 43.0167 46.9032 38.6576 44.1222 34.2048Z" fill="#5D7E9D"/>
<path d="M44.1069 28.1739C38.9666 28.1739 34.795 23.9867 34.8106 18.8464C34.8262 13.7374 38.9978 9.59702 44.1225 9.59702C49.2628 9.59702 53.4344 13.7999 53.4188 18.9245C53.4031 24.0336 49.2315 28.1739 44.1069 28.1739ZM44.1225 25.8303C47.966 25.8303 51.0908 22.7055 51.0908 18.8777C51.0908 15.0654 47.9816 11.9562 44.1537 11.9406C40.3102 11.925 37.1698 15.0342 37.1698 18.862C37.1542 22.6899 40.279 25.8303 44.1225 25.8303Z" fill="#5D7E9D"/>
</svg>
