<svg width="85" height="101" viewBox="0 0 85 101" fill="none" xmlns="http://www.w3.org/2000/svg">
<path d="M2.421 95.1664H5.058V87.5794C5.058 87.2854 5.067 86.9764 5.085 86.6524L3.213 88.2184C3.135 88.2844 3.054 88.3294 2.97 88.3534C2.892 88.3774 2.814 88.3894 2.736 88.3894C2.616 88.3894 2.505 88.3654 2.403 88.3174C2.307 88.2634 2.235 88.2034 2.187 88.1374L1.485 87.1744L5.454 83.7994H7.281V95.1664H9.621V96.8314H2.421V95.1664ZM20.6114 90.3244C20.6114 91.4584 20.4884 92.4454 20.2424 93.2854C20.0024 94.1194 19.6664 94.8094 19.2344 95.3554C18.8084 95.9014 18.3014 96.3094 17.7134 96.5794C17.1314 96.8434 16.5014 96.9754 15.8234 96.9754C15.1454 96.9754 14.5154 96.8434 13.9334 96.5794C13.3574 96.3094 12.8564 95.9014 12.4304 95.3554C12.0044 94.8094 11.6714 94.1194 11.4314 93.2854C11.1914 92.4454 11.0714 91.4584 11.0714 90.3244C11.0714 89.1844 11.1914 88.1974 11.4314 87.3634C11.6714 86.5294 12.0044 85.8394 12.4304 85.2934C12.8564 84.7474 13.3574 84.3424 13.9334 84.0784C14.5154 83.8084 15.1454 83.6734 15.8234 83.6734C16.5014 83.6734 17.1314 83.8084 17.7134 84.0784C18.3014 84.3424 18.8084 84.7474 19.2344 85.2934C19.6664 85.8394 20.0024 86.5294 20.2424 87.3634C20.4884 88.1974 20.6114 89.1844 20.6114 90.3244ZM18.3164 90.3244C18.3164 89.3824 18.2474 88.6024 18.1094 87.9844C17.9714 87.3664 17.7854 86.8744 17.5514 86.5084C17.3234 86.1424 17.0594 85.8874 16.7594 85.7434C16.4594 85.5934 16.1474 85.5184 15.8234 85.5184C15.5054 85.5184 15.1964 85.5934 14.8964 85.7434C14.6024 85.8874 14.3414 86.1424 14.1134 86.5084C13.8854 86.8744 13.7024 87.3664 13.5644 87.9844C13.4324 88.6024 13.3664 89.3824 13.3664 90.3244C13.3664 91.2664 13.4324 92.0464 13.5644 92.6644C13.7024 93.2824 13.8854 93.7744 14.1134 94.1404C14.3414 94.5064 14.6024 94.7644 14.8964 94.9144C15.1964 95.0584 15.5054 95.1304 15.8234 95.1304C16.1474 95.1304 16.4594 95.0584 16.7594 94.9144C17.0594 94.7644 17.3234 94.5064 17.5514 94.1404C17.7854 93.7744 17.9714 93.2824 18.1094 92.6644C18.2474 92.0464 18.3164 91.2664 18.3164 90.3244ZM22.1428 90.4684H26.8048V92.3224H22.1428V90.4684ZM30.3126 95.1664H32.9496V87.5794C32.9496 87.2854 32.9586 86.9764 32.9766 86.6524L31.1046 88.2184C31.0266 88.2844 30.9456 88.3294 30.8616 88.3534C30.7836 88.3774 30.7056 88.3894 30.6276 88.3894C30.5076 88.3894 30.3966 88.3654 30.2946 88.3174C30.1986 88.2634 30.1266 88.2034 30.0786 88.1374L29.3766 87.1744L33.3456 83.7994H35.1726V95.1664H37.5126V96.8314H30.3126V95.1664ZM43.931 83.6734C44.531 83.6734 45.08 83.7634 45.578 83.9434C46.076 84.1174 46.502 84.3664 46.856 84.6904C47.21 85.0144 47.486 85.4044 47.684 85.8604C47.882 86.3164 47.981 86.8234 47.981 87.3814C47.981 87.8614 47.909 88.3054 47.765 88.7134C47.627 89.1214 47.438 89.5114 47.198 89.8834C46.964 90.2554 46.688 90.6154 46.37 90.9634C46.052 91.3114 45.719 91.6654 45.371 92.0254L42.437 95.0224C42.725 94.9384 43.007 94.8754 43.283 94.8334C43.559 94.7854 43.823 94.7614 44.075 94.7614H47.414C47.654 94.7614 47.843 94.8304 47.981 94.9684C48.125 95.1004 48.197 95.2774 48.197 95.4994V96.8314H39.269V96.0934C39.269 95.9434 39.299 95.7874 39.359 95.6254C39.425 95.4634 39.527 95.3134 39.665 95.1754L43.616 91.2154C43.946 90.8794 44.24 90.5584 44.498 90.2524C44.762 89.9464 44.981 89.6434 45.155 89.3434C45.335 89.0434 45.47 88.7404 45.56 88.4344C45.656 88.1224 45.704 87.7954 45.704 87.4534C45.704 87.1414 45.659 86.8684 45.569 86.6344C45.479 86.3944 45.35 86.1934 45.182 86.0314C45.014 85.8694 44.813 85.7494 44.579 85.6714C44.351 85.5874 44.093 85.5454 43.805 85.5454C43.271 85.5454 42.83 85.6804 42.482 85.9504C42.14 86.2204 41.9 86.5834 41.762 87.0394C41.696 87.2674 41.597 87.4324 41.465 87.5344C41.333 87.6304 41.165 87.6784 40.961 87.6784C40.871 87.6784 40.772 87.6694 40.664 87.6514L39.494 87.4444C39.584 86.8204 39.758 86.2744 40.016 85.8064C40.274 85.3324 40.595 84.9394 40.979 84.6274C41.369 84.3094 41.813 84.0724 42.311 83.9164C42.815 83.7544 43.355 83.6734 43.931 83.6734ZM56.5298 94.8334H61.7408V96.8314H54.1088V83.8174H56.5298V94.8334ZM75.0267 96.8314H73.1547C72.9447 96.8314 72.7707 96.7804 72.6327 96.6784C72.5007 96.5704 72.4047 96.4384 72.3447 96.2824L71.3727 93.6274H65.9817L65.0097 96.2824C64.9617 96.4204 64.8657 96.5464 64.7217 96.6604C64.5837 96.7744 64.4127 96.8314 64.2087 96.8314H62.3277L67.4397 83.8174H69.9147L75.0267 96.8314ZM66.6027 91.9174H70.7517L69.1677 87.5884C69.0957 87.3964 69.0147 87.1714 68.9247 86.9134C68.8407 86.6494 68.7567 86.3644 68.6727 86.0584C68.5887 86.3644 68.5047 86.6494 68.4207 86.9134C68.3427 87.1774 68.2647 87.4084 68.1867 87.6064L66.6027 91.9174ZM84.3996 83.8174V85.8064H80.4846V96.8314H78.0636V85.8064H74.1306V83.8174H84.3996Z" fill="#5D7E9D"/>
<path d="M12 34.2212C12.0972 33.8894 12.1855 33.5546 12.2929 33.226C13.0529 30.9005 15.1197 29.2401 17.5639 29.1686C20.2952 29.0887 23.0304 29.1383 25.7639 29.1316C25.9955 29.1309 26.2268 29.1316 26.5498 29.1316C26.5498 28.8596 26.5498 28.6354 26.5498 28.4112C26.5498 21.0107 26.5467 13.6102 26.5515 6.20973C26.5532 3.46076 27.9934 1.27393 30.4485 0.393071C31.1139 0.154343 31.8554 0.025292 32.5628 0.0221673C38.8502 -0.00579891 45.1378 -0.00423656 51.4252 0.0099809C54.7703 0.0174802 57.3292 2.50069 57.4315 5.8507C57.4845 7.58695 57.4504 9.32617 57.4412 11.0638C57.4378 11.7166 57.1044 12.0847 56.5672 12.0908C56.004 12.097 55.692 11.7284 55.6896 11.024C55.6842 9.42288 55.6917 7.82162 55.6867 6.22051C55.6784 3.50998 53.9209 1.76467 51.1989 1.76388C45.0676 1.76217 38.9365 1.76232 32.8051 1.76388C30.0551 1.76451 28.3096 3.5106 28.3085 6.26926C28.3057 13.6697 28.3076 21.0703 28.3076 28.4707C28.3076 28.6628 28.3076 28.8552 28.3076 29.1316C28.583 29.1316 28.8108 29.1316 29.0388 29.1316C31.5771 29.1316 34.1158 29.1489 36.654 29.1262C38.8241 29.1069 40.5523 29.9345 41.831 31.6918C41.8737 31.7505 41.9268 31.8016 42.0051 31.8904C42.0956 31.7735 42.1646 31.6865 42.2315 31.5977C43.4831 29.9415 45.1443 29.1227 47.2226 29.1295C49.8 29.1381 52.3776 29.1316 54.955 29.1316C55.183 29.1316 55.4109 29.1316 55.6876 29.1316C55.6876 28.8167 55.6876 28.5858 55.6876 28.3551C55.6876 23.9811 55.6874 19.6073 55.6881 15.2333C55.6881 15.0381 55.679 14.8411 55.7007 14.648C55.7548 14.1682 56.0596 13.9056 56.5149 13.8772C56.9481 13.8501 57.2703 14.08 57.384 14.511C57.4424 14.7326 57.4428 14.9736 57.4429 15.2058C57.446 19.5796 57.4453 23.9536 57.4453 28.3276C57.4453 28.5604 57.4453 28.7931 57.4453 29.0967C57.7009 29.1094 57.9241 29.1298 58.1475 29.1301C60.6859 29.1325 63.2244 29.1281 65.7628 29.1325C69.4871 29.1391 71.9927 31.6565 71.9941 35.3943C71.9963 41.4278 71.9946 47.4615 71.9946 53.495C71.9946 57.0246 70.3599 59.1041 66.9341 59.9356C66.8992 59.9441 66.8705 59.978 66.8388 60C59.9644 60 53.09 60 46.2156 60C46.1099 59.9613 46.0069 59.9089 45.8979 59.8858C44.4105 59.5716 43.2097 58.8073 42.2871 57.601C42.1984 57.4851 42.097 57.3787 41.9748 57.2371C41.2792 58.2361 40.4529 59.0182 39.3658 59.4702C38.8523 59.6838 38.3089 59.8256 37.7789 60C30.9045 60 24.0302 60 17.1558 60C17.0481 59.9631 16.9431 59.9134 16.8327 59.8914C15.2117 59.5685 13.8831 58.7531 13.0258 57.3479C12.5621 56.5878 12.3342 55.6835 12 54.8444C12 52.8524 12 50.8604 12 48.8684C12.2761 48.4495 12.6195 48.1339 13.1604 48.3242C13.6934 48.5117 13.7673 48.9651 13.7625 49.47C13.7487 50.895 13.7566 52.3204 13.758 53.7456C13.7606 56.5027 15.497 58.2413 18.2547 58.242C24.385 58.2438 30.5152 58.2439 36.6454 58.242C39.3439 58.2411 41.108 56.5198 41.1135 53.837C41.1261 47.6482 41.1275 41.4593 41.1128 35.2707C41.1064 32.6069 39.3585 30.8931 36.6884 30.8909C30.5191 30.8859 24.3498 30.8861 18.1807 30.8909C15.4962 30.8931 13.7605 32.6433 13.7586 35.3352C13.7561 38.6541 13.7548 41.973 13.7614 45.292C13.7623 45.7879 13.7159 46.2386 13.1747 46.4453C12.6218 46.6565 12.3022 46.3159 12.0003 45.9391C12 42.033 12 38.1271 12 34.2212ZM42.8777 44.5456C42.8777 47.6699 42.8599 50.7943 42.8831 53.9184C42.9025 56.503 44.6744 58.2391 47.2556 58.2408C53.465 58.2453 59.6746 58.2461 65.884 58.2403C68.4482 58.238 70.2327 56.4541 70.235 53.8918C70.2407 47.6824 70.2402 41.4728 70.2353 35.2633C70.2333 32.6525 68.4763 30.8944 65.8573 30.8914C59.6674 30.8845 53.4773 30.887 47.2874 30.8939C46.8804 30.8944 46.4619 30.9161 46.0688 31.0111C44.096 31.4876 42.8877 33.109 42.88 35.2897C42.8691 38.3752 42.877 41.4604 42.8777 44.5456Z" fill="#5D7E9D"/>
<path d="M32.2699 15.4467C32.2699 12.5966 32.2688 9.74657 32.2706 6.89652C32.2712 5.98738 32.5385 5.71959 33.4614 5.71928C39.1615 5.71709 44.8616 5.71678 50.5617 5.71959C51.4644 5.72006 51.7276 5.99691 51.7277 6.92183C51.7286 12.6024 51.7288 18.283 51.7277 23.9637C51.7276 24.9033 51.4488 25.183 50.5069 25.1833C44.8263 25.1847 39.1457 25.185 33.465 25.1831C32.5587 25.1828 32.2712 24.8953 32.2706 23.9972C32.2687 21.1468 32.2699 18.2967 32.2699 15.4467ZM34.0552 23.3817C39.383 23.3817 44.6607 23.3817 49.9221 23.3817C49.9221 18.0588 49.9221 12.7807 49.9221 7.51005C44.6099 7.51005 39.3463 7.51005 34.0552 7.51005C34.0552 12.8091 34.0552 18.0738 34.0552 23.3817Z" fill="#5D7E9D"/>
<path d="M27.4326 54.2877C24.6217 54.2877 21.8107 54.2886 18.9999 54.2872C17.9475 54.2866 17.7139 54.0593 17.7137 53.0327C17.7127 47.3718 17.7125 41.7109 17.7139 36.0501C17.7142 35.0962 17.9828 34.8229 18.9204 34.8226C24.6008 34.8212 30.281 34.821 35.9615 34.8228C36.8897 34.8231 37.1754 35.1148 37.1757 36.0589C37.1771 41.7198 37.1771 47.3807 37.1759 53.0414C37.1757 54.0218 36.9108 54.2861 35.9238 54.2869C33.0934 54.2891 30.2629 54.2877 27.4326 54.2877ZM35.3879 36.6152C30.0537 36.6152 24.7919 36.6152 19.5112 36.6152C19.5112 41.9274 19.5112 47.2037 19.5112 52.4818C24.8265 52.4818 30.1011 52.4818 35.3879 52.4818C35.3879 47.1729 35.3879 41.912 35.3879 36.6152Z" fill="#5D7E9D"/>
<path d="M66.2797 44.5613C66.2797 47.4112 66.2816 50.2613 66.2786 53.1112C66.2777 54.0254 66.0152 54.2862 65.0901 54.2865C59.4097 54.2887 53.7294 54.2887 48.049 54.2868C47.0754 54.2865 46.8173 54.0181 46.8171 53.0213C46.8162 47.38 46.8162 41.7386 46.8171 36.0974C46.8173 35.0892 47.0883 34.8223 48.109 34.8223C53.7504 34.8216 59.3917 34.8214 65.033 34.8225C66.0188 34.8227 66.2783 35.0822 66.2791 36.0702C66.281 38.9004 66.2797 41.7308 66.2797 44.5613ZM48.6082 52.4907C53.9179 52.4907 59.1935 52.4907 64.4769 52.4907C64.4769 47.1762 64.4769 41.9012 64.4769 36.6292C59.1568 36.6292 53.8819 36.6292 48.6082 36.6292C48.6082 41.9412 48.6082 47.2032 48.6082 52.4907Z" fill="#5D7E9D"/>
<path d="M42.2688 10.4256C42.4501 10.6018 42.8708 10.8296 43.0049 11.1701C44.0532 13.8339 45.0523 16.5172 46.0519 19.2001C46.2457 19.7199 46.0287 20.2025 45.589 20.375C45.1055 20.5647 44.6552 20.3484 44.4119 19.8097C44.404 19.7919 44.3951 19.7746 44.3876 19.7565C44.209 19.327 44.1432 18.7088 43.8224 18.5167C43.4447 18.2907 42.8458 18.4324 42.3427 18.4177C42.1673 18.4125 41.9879 18.4399 41.8165 18.4132C40.6549 18.2319 39.8042 18.4611 39.5566 19.8227C39.4558 20.3769 38.8673 20.5681 38.3922 20.3692C37.958 20.1875 37.7574 19.7079 37.9555 19.1826C38.9659 16.504 39.9897 13.8303 41.0121 11.1562C41.1919 10.6865 41.5494 10.4579 42.2688 10.4256ZM40.8051 16.6271C41.6334 16.6271 42.3846 16.6271 43.2055 16.6271C42.8141 15.5934 42.4423 14.6115 42.0106 13.4711C41.5758 14.6093 41.2041 15.5825 40.8051 16.6271Z" fill="#5D7E9D"/>
<path d="M29.5933 43.9537C30.6139 44.8554 31.0415 45.9244 30.7331 47.2298C30.4255 48.5314 29.2282 49.5019 27.843 49.5522C26.9084 49.5861 25.9716 49.5739 25.0359 49.5635C24.3835 49.5561 24.0573 49.2397 24.0553 48.5932C24.0467 45.9029 24.0467 43.2123 24.0554 40.5219C24.0574 39.897 24.3607 39.5866 24.9883 39.5687C25.7674 39.5467 26.5488 39.5387 27.3273 39.5705C29.521 39.66 30.7204 41.7523 29.7166 43.7135C29.6821 43.7812 29.6472 43.8488 29.5933 43.9537ZM25.8082 47.8046C26.4149 47.8046 26.9551 47.8056 27.4954 47.8038C27.6315 47.8033 27.7696 47.8071 27.903 47.7858C28.5564 47.6819 29.0387 47.156 29.0754 46.5175C29.111 45.8968 28.6555 45.2295 28.0221 45.1645C27.2993 45.0904 26.5632 45.1473 25.8082 45.1473C25.8082 45.829 25.8082 46.4509 25.8082 47.0729C25.8082 47.2863 25.8082 47.4997 25.8082 47.8046ZM25.854 41.3378C25.854 42.038 25.854 42.6835 25.854 43.3486C26.4032 43.3486 26.9089 43.3789 27.4095 43.3404C27.963 43.2979 28.3269 42.8528 28.3169 42.3136C28.3072 41.7907 27.9655 41.3878 27.421 41.3461C26.9198 41.3073 26.4133 41.3378 25.854 41.3378Z" fill="#5D7E9D"/>
<path d="M57.4253 39.412C58.2267 39.6853 59.051 39.9062 59.8221 40.2474C60.4927 40.5443 60.6632 41.0766 60.3851 41.565C60.1079 42.0518 59.6145 42.1206 58.9646 41.7632C57.4339 40.9216 55.6224 41.3242 54.6514 42.7219C53.7061 44.0826 53.9413 45.9141 55.2007 47.0135C56.3535 48.0199 58.2348 48.1233 59.2275 46.9935C59.6307 46.5348 60.1405 46.5358 60.5164 46.8936C60.8948 47.2537 60.8694 47.7785 60.451 48.2453C58.9503 49.9195 56.0843 50.0095 54.1706 48.4428C52.5187 47.0903 51.8986 44.8881 52.6084 42.8952C53.3296 40.8707 55.2125 39.5555 57.3716 39.5683C57.3897 39.5161 57.4075 39.4641 57.4253 39.412Z" fill="#5D7E9D"/>
</svg>
