<svg width="65" height="101" viewBox="0 0 65 101" fill="none" xmlns="http://www.w3.org/2000/svg">
<path d="M6.408 92.095V87.838C6.408 87.436 6.435 86.992 6.489 86.506L2.448 92.095H6.408ZM9.981 92.095V93.382C9.981 93.502 9.942 93.607 9.864 93.697C9.786 93.781 9.675 93.823 9.531 93.823H8.343V97H6.408V93.823H0.918C0.768 93.823 0.636 93.778 0.522 93.688C0.408 93.592 0.336 93.475 0.306 93.337L0.072 92.212L6.237 83.977H8.343V92.095H9.981ZM11.6474 90.637H16.3094V92.491H11.6474V90.637ZM22.2143 88.711L21.7643 89.269C22.0163 89.143 22.2863 89.047 22.5743 88.981C22.8683 88.909 23.1833 88.873 23.5193 88.873C24.0113 88.873 24.4883 88.954 24.9503 89.116C25.4183 89.278 25.8293 89.524 26.1833 89.854C26.5373 90.178 26.8223 90.583 27.0383 91.069C27.2543 91.555 27.3623 92.122 27.3623 92.77C27.3623 93.376 27.2513 93.946 27.0293 94.48C26.8073 95.008 26.4953 95.47 26.0933 95.866C25.6913 96.262 25.2053 96.574 24.6353 96.802C24.0713 97.03 23.4473 97.144 22.7633 97.144C22.0673 97.144 21.4433 97.033 20.8913 96.811C20.3393 96.589 19.8683 96.28 19.4783 95.884C19.0883 95.482 18.7883 95.002 18.5783 94.444C18.3743 93.88 18.2723 93.256 18.2723 92.572C18.2723 91.96 18.3953 91.333 18.6413 90.691C18.8933 90.043 19.2803 89.371 19.8023 88.675L22.9073 84.508C23.0153 84.364 23.1713 84.241 23.3753 84.139C23.5853 84.037 23.8253 83.986 24.0953 83.986H26.0753L22.2143 88.711ZM22.7183 95.326C23.0723 95.326 23.3963 95.266 23.6903 95.146C23.9903 95.026 24.2453 94.858 24.4553 94.642C24.6713 94.426 24.8393 94.174 24.9593 93.886C25.0793 93.592 25.1393 93.274 25.1393 92.932C25.1393 92.56 25.0823 92.227 24.9683 91.933C24.8543 91.633 24.6923 91.381 24.4823 91.177C24.2723 90.967 24.0203 90.808 23.7263 90.7C23.4323 90.592 23.1083 90.538 22.7543 90.538C22.4003 90.538 22.0793 90.598 21.7913 90.718C21.5033 90.838 21.2573 91.006 21.0533 91.222C20.8493 91.432 20.6903 91.684 20.5763 91.978C20.4623 92.266 20.4053 92.578 20.4053 92.914C20.4053 93.274 20.4533 93.604 20.5493 93.904C20.6513 94.198 20.7983 94.45 20.9903 94.66C21.1883 94.87 21.4313 95.035 21.7193 95.155C22.0073 95.269 22.3403 95.326 22.7183 95.326ZM41.7666 95.002V97H34.1436V83.986H36.5646V95.002H41.7666ZM50.5512 92.086L48.9672 87.757C48.8892 87.565 48.8082 87.337 48.7242 87.073C48.6402 86.809 48.5562 86.524 48.4722 86.218C48.3942 86.524 48.3132 86.812 48.2292 87.082C48.1452 87.346 48.0642 87.577 47.9862 87.775L46.4112 92.086H50.5512ZM54.8262 97H52.9542C52.7442 97 52.5732 96.949 52.4412 96.847C52.3092 96.739 52.2102 96.607 52.1442 96.451L51.1722 93.796H45.7812L44.8092 96.451C44.7612 96.589 44.6682 96.715 44.5302 96.829C44.3922 96.943 44.2212 97 44.0172 97H42.1272L47.2482 83.986H49.7142L54.8262 97ZM64.1776 85.975H60.2536V97H57.8326V85.975H53.9086V83.986H64.1776V85.975Z" fill="#5D7E9D"/>
<path d="M2.01562 58.1101C2.21867 57.7977 2.4061 57.4853 2.64038 57.2042C6.71698 52.0655 10.7936 46.9268 14.8702 41.7881C14.9795 41.6475 15.0888 41.4913 15.2763 41.2414C14.5422 41.2414 13.9174 41.2414 13.277 41.2414C11.2621 41.2258 9.88766 39.8669 9.88766 37.8677C9.88766 33.2757 9.88766 28.6993 9.88766 24.1073C9.88766 22.1236 11.2621 20.7648 13.2458 20.7491C14.8389 20.7335 16.4477 20.7491 17.9315 20.7491C17.8846 19.5777 17.8066 18.4375 17.8066 17.3129C17.7909 15.3605 17.7909 13.4082 17.8066 11.4558C17.8066 10.7685 18.1502 10.3937 18.7125 10.4093C19.2435 10.4249 19.5559 10.7841 19.5559 11.4558C19.5715 13.908 19.5559 16.3758 19.5559 18.828C19.5559 20.2649 20.0401 20.7491 21.4927 20.7491C25.1944 20.7491 28.9118 20.7491 32.6135 20.7491C33.9099 20.7491 34.4253 20.2337 34.4253 18.9373C34.4253 13.8299 34.4253 8.70679 34.4253 3.59934C34.4253 2.27171 33.9099 1.7719 32.5666 1.7719C28.8337 1.7719 25.1163 1.7719 21.3833 1.7719C20.0713 1.7719 19.5559 2.28733 19.5559 3.63058C19.5559 4.88011 19.5559 6.12964 19.5559 7.37917C19.5559 7.8165 19.3841 8.20698 18.9468 8.26946C18.65 8.31632 18.2751 8.16012 18.0096 7.98831C17.869 7.8946 17.8066 7.5666 17.8066 7.34793C17.7909 5.94221 17.7597 4.53649 17.8222 3.13077C17.869 1.27209 19.2279 0.022561 21.071 0.00694183C24.9289 -0.00867729 28.8024 0.00694183 32.6603 0.00694183C34.8002 0.00694183 36.1278 1.31895 36.1434 3.47439C36.159 8.48813 36.159 13.5019 36.1434 18.5312C36.1434 19.2497 36.0341 19.9526 35.9872 20.7023C37.1899 20.7023 38.4707 20.7023 39.6577 20.7023C39.6109 19.7651 39.5171 18.828 39.5171 17.8752C39.5015 14.439 39.5015 11.0028 39.5171 7.5666C39.5171 5.4424 40.8604 4.09915 43.0002 4.11477C45.1869 4.13039 47.3736 4.0523 49.5446 4.23972C55.5267 4.75516 60.7904 9.72204 61.7432 15.6417C61.9306 16.8444 61.9774 18.0939 61.9774 19.3122C61.9931 21.1084 60.5717 22.4829 58.7599 22.4985C56.87 22.5141 54.9801 22.4985 53.1839 22.4985C53.2307 23.6699 53.2776 24.8257 53.3088 25.9815C53.3244 26.6844 52.9964 27.0593 52.4498 27.0749C51.8719 27.0905 51.5595 26.6844 51.5595 25.9503C51.5595 25.3099 51.5751 24.6539 51.5595 24.0135C51.5439 23.1076 50.9503 22.5297 50.0444 22.4985C49.9663 22.4985 49.8882 22.4985 49.8101 22.4985C37.6741 22.4985 25.5224 22.4985 13.3863 22.4985C12.1524 22.4985 11.6214 23.0452 11.6214 24.2947C11.6214 28.7618 11.6214 33.2288 11.6214 37.7115C11.6214 38.9454 12.168 39.4921 13.402 39.4921C14.3235 39.4921 15.245 39.4765 16.1509 39.5077C16.557 39.5233 16.7913 39.3828 17.0256 39.0704C18.1658 37.6022 19.3216 36.1652 20.4774 34.7126C21.3833 33.5724 22.3517 33.5724 23.2576 34.7126C24.4291 36.1808 25.5693 37.6647 26.7563 39.1016C26.9281 39.3047 27.2561 39.4765 27.5217 39.4765C34.9564 39.4921 42.3911 39.4921 49.8414 39.4921C50.9972 39.4921 51.5595 38.9298 51.5595 37.7584C51.5595 35.3218 51.5595 32.8852 51.5595 30.433C51.5595 30.2612 51.5439 30.0738 51.5751 29.9019C51.6532 29.4178 51.95 29.121 52.4498 29.1366C52.9496 29.1366 53.262 29.4334 53.3088 29.9332C53.3557 30.4642 53.3244 30.9797 53.3244 31.5107C53.3244 33.3069 53.3401 35.1031 53.3244 36.8993C53.3088 37.7427 53.2307 38.6018 53.1683 39.4921C54.0898 39.4921 55.1206 39.4921 56.1515 39.4921C58.2289 39.4921 59.5877 40.8041 59.5877 42.8814C59.6033 47.4422 59.5877 52.0186 59.5877 56.5794C59.5877 58.3912 58.6193 59.4689 56.9481 60C56.0422 60 55.1519 60 54.246 60C53.8086 59.7345 53.5119 59.3909 53.6837 58.8442C53.8555 58.3131 54.3084 58.2194 54.8239 58.235C55.2144 58.2507 55.6048 58.235 55.9953 58.235C57.2917 58.235 57.8228 57.7196 57.8228 56.4388C57.8228 51.9718 57.8228 47.5047 57.8228 43.0376C57.8228 41.7881 57.2917 41.257 56.0422 41.257C47.0456 41.257 38.0489 41.257 29.0523 41.257C28.8961 41.257 28.7243 41.2727 28.5057 41.2883C28.6462 41.4913 28.7556 41.6319 28.8493 41.7725C32.6603 46.5676 36.4714 51.3626 40.2825 56.1577C40.7042 56.6887 41.1884 57.2042 41.5008 57.7977C41.7194 58.1882 41.9381 58.2507 42.313 58.2507C44.9682 58.235 47.6235 58.2507 50.2787 58.235C50.7629 58.235 51.2315 58.2663 51.4501 58.7973C51.6688 59.344 51.3408 59.672 50.9816 60C35.0032 60 19.0405 60 3.0621 60C2.70286 59.6408 2.35924 59.2971 2 58.9379C2.01562 58.6567 2.01562 58.3912 2.01562 58.1101ZM21.8675 35.7747C15.9323 43.2563 10.0282 50.691 4.07734 58.1882C15.9791 58.1882 27.7716 58.1882 39.6577 58.1882C33.7068 50.691 27.8028 43.2563 21.8675 35.7747ZM50.7473 20.7491C53.3557 20.7491 55.9797 20.7491 58.5881 20.7491C59.6346 20.7491 60.2437 20.1712 60.2281 19.1248C60.2281 18.2657 60.1969 17.4066 60.1031 16.5632C59.5409 11.2683 54.8239 6.5045 49.5134 6.0203C47.3423 5.81726 45.1556 5.91097 42.969 5.87973C41.8132 5.86411 41.2509 6.44202 41.2509 7.59784C41.2509 11.4089 41.2509 15.2043 41.2509 19.0154C41.2509 20.2025 41.8131 20.7491 43.0158 20.7491C45.593 20.7491 48.1701 20.7491 50.7473 20.7491Z" fill="#5D7E9D"/>
</svg>
