<svg width="85" height="100" viewBox="0 0 85 100" fill="none" xmlns="http://www.w3.org/2000/svg">
<path d="M2.421 94.335H5.058V86.748C5.058 86.454 5.067 86.145 5.085 85.821L3.213 87.387C3.135 87.453 3.054 87.498 2.97 87.522C2.892 87.546 2.814 87.558 2.736 87.558C2.616 87.558 2.505 87.534 2.403 87.486C2.307 87.432 2.235 87.372 2.187 87.306L1.485 86.343L5.454 82.968H7.281V94.335H9.621V96H2.421V94.335ZM16.0394 82.842C16.6394 82.842 17.1884 82.932 17.6864 83.112C18.1844 83.286 18.6104 83.535 18.9644 83.859C19.3184 84.183 19.5944 84.573 19.7924 85.029C19.9904 85.485 20.0894 85.992 20.0894 86.55C20.0894 87.03 20.0174 87.474 19.8734 87.882C19.7354 88.29 19.5464 88.68 19.3064 89.052C19.0724 89.424 18.7964 89.784 18.4784 90.132C18.1604 90.48 17.8274 90.834 17.4794 91.194L14.5454 94.191C14.8334 94.107 15.1154 94.044 15.3914 94.002C15.6674 93.954 15.9314 93.93 16.1834 93.93H19.5224C19.7624 93.93 19.9514 93.999 20.0894 94.137C20.2334 94.269 20.3054 94.446 20.3054 94.668V96H11.3774V95.262C11.3774 95.112 11.4074 94.956 11.4674 94.794C11.5334 94.632 11.6354 94.482 11.7734 94.344L15.7244 90.384C16.0544 90.048 16.3484 89.727 16.6064 89.421C16.8704 89.115 17.0894 88.812 17.2634 88.512C17.4434 88.212 17.5784 87.909 17.6684 87.603C17.7644 87.291 17.8124 86.964 17.8124 86.622C17.8124 86.31 17.7674 86.037 17.6774 85.803C17.5874 85.563 17.4584 85.362 17.2904 85.2C17.1224 85.038 16.9214 84.918 16.6874 84.84C16.4594 84.756 16.2014 84.714 15.9134 84.714C15.3794 84.714 14.9384 84.849 14.5904 85.119C14.2484 85.389 14.0084 85.752 13.8704 86.208C13.8044 86.436 13.7054 86.601 13.5734 86.703C13.4414 86.799 13.2734 86.847 13.0694 86.847C12.9794 86.847 12.8804 86.838 12.7724 86.82L11.6024 86.613C11.6924 85.989 11.8664 85.443 12.1244 84.975C12.3824 84.501 12.7034 84.108 13.0874 83.796C13.4774 83.478 13.9214 83.241 14.4194 83.085C14.9234 82.923 15.4634 82.842 16.0394 82.842ZM22.1428 89.637H26.8048V91.491H22.1428V89.637ZM30.3126 94.335H32.9496V86.748C32.9496 86.454 32.9586 86.145 32.9766 85.821L31.1046 87.387C31.0266 87.453 30.9456 87.498 30.8616 87.522C30.7836 87.546 30.7056 87.558 30.6276 87.558C30.5076 87.558 30.3966 87.534 30.2946 87.486C30.1986 87.432 30.1266 87.372 30.0786 87.306L29.3766 86.343L33.3456 82.968H35.1726V94.335H37.5126V96H30.3126V94.335ZM46.991 91.095H48.629V92.382C48.629 92.502 48.59 92.607 48.512 92.697C48.434 92.781 48.32 92.823 48.17 92.823H46.991V96H45.047V92.823H39.557C39.407 92.823 39.275 92.778 39.161 92.688C39.047 92.592 38.975 92.475 38.945 92.337L38.72 91.212L44.885 82.977H46.991V91.095ZM45.047 86.838C45.047 86.646 45.053 86.439 45.065 86.217C45.077 85.995 45.098 85.764 45.128 85.524L41.087 91.095H45.047V86.838ZM56.5298 94.002H61.7408V96H54.1088V82.986H56.5298V94.002ZM75.0267 96H73.1547C72.9447 96 72.7707 95.949 72.6327 95.847C72.5007 95.739 72.4047 95.607 72.3447 95.451L71.3727 92.796H65.9817L65.0097 95.451C64.9617 95.589 64.8657 95.715 64.7217 95.829C64.5837 95.943 64.4127 96 64.2087 96H62.3277L67.4397 82.986H69.9147L75.0267 96ZM66.6027 91.086H70.7517L69.1677 86.757C69.0957 86.565 69.0147 86.34 68.9247 86.082C68.8407 85.818 68.7567 85.533 68.6727 85.227C68.5887 85.533 68.5047 85.818 68.4207 86.082C68.3427 86.346 68.2647 86.577 68.1867 86.775L66.6027 91.086ZM84.3996 82.986V84.975H80.4846V96H78.0636V84.975H74.1306V82.986H84.3996Z" fill="#5D7E9D"/>
<mask id="path-2-inside-1_2069_205" fill="white">
<path d="M74.4856 47.6473C73.8887 49.9664 72.03 51.2113 70.2566 52.4731C65.9593 55.5426 61.1164 57.3502 56.0007 58.5097C49.6401 59.9421 43.1942 60.2491 36.6972 59.8228C31.2234 59.4647 25.8859 58.4756 20.7702 56.4634C16.9334 54.9628 13.3524 53.0188 10.3852 50.0858C9.14038 48.841 8.69702 47.3403 9.20859 45.6351C10.1465 42.4974 14.0515 41.5084 16.4218 43.7764C16.7287 44.0662 17.0357 44.3561 17.3767 44.6972C17.7178 43.998 17.9906 43.3159 18.3828 42.7191C19.5254 40.9798 20.6849 39.2404 21.8957 37.5522C22.5436 36.6484 22.5948 36.4779 21.9639 35.5229C21.8104 35.3013 21.6569 35.0625 21.4864 34.7897C21.367 34.875 21.2477 34.9602 21.1453 35.0455C19.5424 36.529 17.6496 37.177 15.4839 37.0577C14.1709 36.9895 12.8919 36.8701 11.6812 36.3585C10.7263 35.9493 9.87364 35.3865 9.29386 34.4998C8.81638 33.7665 9.02102 33.0844 9.82248 32.7263C10.1294 32.5899 10.4534 32.4706 10.7433 32.3C13.1136 30.9017 13.7105 28.5996 12.602 25.9394C11.4766 23.211 11.4936 20.4997 12.7214 17.8395C13.7787 15.5545 15.6715 14.3608 18.1782 14.1732C21.3159 13.9515 23.8055 15.0429 25.4255 17.8566C25.6131 18.1806 25.7495 18.5387 25.8689 18.7944C31.4621 18.2658 37.0212 18.658 42.5633 18.5387C42.8532 18.5387 43.1772 18.5557 43.45 18.4534C43.9616 18.2829 44.1151 17.8566 44.1833 17.362C44.7119 13.9856 45.6157 10.7116 47.2527 7.67621C48.8557 4.70908 50.9872 2.28762 54.176 0.974579C57.1261 -0.236149 60.1274 -0.338464 63.1457 0.804054C63.4185 0.906369 63.7595 0.872264 64.0494 0.821106C65.5671 0.565319 67.0848 0.207216 68.6195 0.0196384C69.7791 -0.116782 70.2054 0.463004 70.0519 1.58847C69.8302 3.08909 69.2163 4.38508 68.2444 5.54465C69.2163 7.2499 70.2224 8.9381 71.1262 10.6604C71.8595 12.0928 72.6098 13.5593 73.1043 15.077C73.7523 17.1062 73.4113 19.1184 72.2517 20.8919C70.6147 23.3816 66.6414 23.6032 64.2882 21.4205C63.5549 20.7384 62.7876 20.0904 61.6962 19.8176C61.7644 20.3462 61.8326 20.8066 61.9008 21.2841C62.3442 24.814 62.5488 28.3438 61.5768 31.8055C61.0311 33.7324 60.9288 33.4255 62.3442 34.9773C64.4246 37.2623 66.1298 39.8031 67.4599 42.5827C67.5623 42.7873 67.6646 42.9919 67.7839 43.2307C68.7389 42.7362 69.6938 42.4463 70.7511 42.6168C72.4734 42.9067 73.6329 43.8787 74.2468 45.5157C74.3321 45.7545 74.4174 45.9932 74.5026 46.2319C74.4856 46.7094 74.4856 47.1698 74.4856 47.6473ZM67.7328 2.38994C67.6816 2.32173 67.6305 2.25352 67.5793 2.18531C66.7778 2.37288 65.9764 2.54341 65.1749 2.73099C64.6292 2.86741 64.2029 3.1573 63.8107 3.60066C62.276 5.35707 60.4173 6.49959 58.0129 6.53369C56.9556 6.55075 56.0518 7.01116 55.3868 7.79558C54.8411 8.42652 54.2613 9.12568 53.9544 9.87599C53.3405 11.3254 52.9312 12.8431 52.3855 14.3267C51.8569 15.7762 51.3624 17.2597 50.6632 18.6239C49.9129 20.0734 48.5999 20.7896 46.9117 20.7043C46.3148 20.6702 45.7351 20.7043 45.053 20.7043C45.053 21.0113 45.053 21.233 45.053 21.4546C45.053 22.5972 45.07 23.7567 45.053 24.8992C45.0018 28.1904 42.9896 30.7312 39.9202 31.4474C39.4768 31.5497 38.9993 31.6009 38.5389 31.6691C38.5389 33.7495 38.5389 35.7958 38.5389 37.9444C39.8519 37.7398 41.1138 37.5351 42.3757 37.3305C45.0018 36.9042 47.6108 36.4097 50.254 36.0857C51.891 35.8811 53.5792 35.9834 55.2333 35.8469C56.444 35.7617 57.4331 36.1027 58.2857 36.9724C60.0421 38.78 61.5768 40.7581 62.7876 42.9919C63.3162 43.9639 63.7766 44.953 64.3052 46.0102C64.9021 45.5839 65.4819 45.1747 66.0787 44.7654C65.9934 44.5778 65.9423 44.4414 65.8911 44.305C64.5099 41.1503 62.617 38.3366 60.2297 35.864C59.0872 34.6874 58.8655 33.4084 59.3088 31.8226C59.7181 30.4242 59.9568 28.9577 60.0592 27.5083C60.2638 24.6946 59.9227 21.898 59.36 19.1355C59.1213 17.9418 59.5305 17.4473 60.7413 17.4643C62.0031 17.4814 63.1627 17.8907 64.22 18.5216C64.3052 18.4704 64.3564 18.4363 64.4075 18.4022C66.1469 16.6799 67.8692 14.9406 69.6256 13.2183C69.9326 12.9284 69.7961 12.7067 69.6427 12.4339C68.466 10.3876 67.3065 8.32421 66.1298 6.27791C65.6865 5.51054 65.7376 5.18655 66.2833 4.50445C66.7778 3.82235 67.2383 3.10614 67.7328 2.38994ZM23.1064 48.0224C31.2575 51.2624 39.6985 51.7399 48.2588 50.9384C53.1358 50.478 57.8423 49.3525 62.276 47.1186C60.9459 43.7423 59.036 40.8433 56.5122 38.3707C56.2735 38.149 55.8301 38.0638 55.472 38.0467C54.8581 38.0297 54.2443 38.1831 53.6304 38.1661C50.2881 38.0979 47.014 38.5242 43.757 39.2574C39.4938 40.2294 35.1625 40.5023 30.8141 40.3147C28.9383 39.6667 27.7617 40.5705 26.6704 41.9858C25.2379 43.8446 23.9931 45.7715 23.1064 48.0224ZM41.7789 57.8276C41.7789 57.8958 41.7959 57.947 41.7959 58.0152C45.1382 57.7083 48.5146 57.5207 51.8399 57.0944C56.6316 56.4634 61.2528 55.1163 65.5671 52.8653C67.801 51.7058 69.9155 50.3245 71.6719 48.4999C72.5757 47.562 72.5416 46.266 71.6719 45.4134C70.8193 44.5778 69.4892 44.5437 68.6195 45.4134C66.2151 47.7837 63.3162 49.3184 60.2126 50.495C54.8922 52.5243 49.3502 53.3087 43.6888 53.4622C37.9932 53.6157 32.3659 53.1893 26.8579 51.6376C22.4072 50.3927 18.2294 48.6193 14.8359 45.3281C14.0174 44.5267 12.7555 44.5949 11.937 45.3452C11.0844 46.1296 10.965 47.3574 11.6983 48.2953C12.0564 48.7386 12.4827 49.1308 12.909 49.506C15.9273 52.098 19.4401 53.8203 23.1746 55.0822C29.1771 57.1114 35.4353 57.8106 41.7789 57.8276ZM29.7398 20.7896C26.7386 20.3121 23.942 21.7957 22.7994 24.49C21.3329 27.9516 21.7081 31.2769 23.8226 34.3804C24.931 36.0004 24.8628 37.3476 23.6521 38.8652C22.8335 39.8884 22.015 40.9456 21.3159 42.0541C20.5315 43.2989 19.8835 44.629 19.1502 45.9591C19.9005 46.3683 20.4973 46.7094 21.1112 47.0504C21.2306 46.8117 21.2988 46.6582 21.367 46.5048C22.5778 43.674 24.3001 41.1844 26.4828 39.0017C27.4036 38.0808 28.4609 37.7568 29.7398 37.9785C31.8884 38.3366 34.0541 38.149 36.2368 38.0638C36.2368 35.8981 36.2368 33.7836 36.2368 31.6691C32.1442 31.4133 29.5011 28.2586 29.7398 24.2683C29.791 23.1258 29.7398 21.9833 29.7398 20.7896ZM12.0905 34.1076C13.9321 35.2672 17.462 35.1819 19.1331 33.8859C19.5254 33.579 19.8664 33.1697 20.1563 32.7604C20.2927 32.5729 20.2927 32.2489 20.2586 32.0101C20.1222 31.1746 19.8494 30.339 19.8152 29.5034C19.6106 25.9053 20.4462 22.6824 23.3963 20.3121C23.8737 19.937 23.8908 19.6471 23.6691 19.1525C22.6971 17.0721 20.4973 15.9808 17.9565 16.39C16.3365 16.6458 15.1599 17.5155 14.546 19.0502C13.7275 21.0795 13.6934 23.0917 14.5972 25.1209C15.8591 27.9346 15.3816 31.0893 13.4035 33.0162C13.0113 33.4084 12.5338 33.7495 12.0905 34.1076ZM31.9566 20.7555C31.9566 22.3925 31.8373 23.9955 31.9907 25.5813C32.1783 27.6788 33.713 29.1794 35.8276 29.4011C36.8507 29.5205 37.925 29.5205 38.9482 29.4011C41.182 29.1624 42.6997 27.5253 42.8191 25.2744C42.8873 24.166 42.8361 23.0576 42.8532 21.9492C42.8532 21.5569 42.8532 21.1647 42.8532 20.7555C39.1528 20.7555 35.5718 20.7555 31.9566 20.7555ZM46.2125 18.4363C47.5256 18.7433 48.2418 18.4704 48.8898 17.3791C49.1626 16.9187 49.4013 16.4412 49.5548 15.9296C49.9641 14.6848 50.254 13.3888 50.7144 12.144C51.2089 10.7627 51.7034 9.38146 52.4196 8.10252C53.6986 5.81749 55.5914 4.38508 58.3539 4.28276C59.6669 4.23161 60.7583 3.63477 61.7303 2.61162C61.4575 2.52636 61.2869 2.44109 61.0994 2.40699C60.7754 2.33878 60.4343 2.25352 60.0933 2.21941C56.3758 1.87836 53.3234 3.22551 50.9702 6.07328C48.003 9.67136 46.9287 13.9856 46.2125 18.4363ZM70.8534 15.1964C69.2675 16.7993 67.6646 18.4022 66.0616 20.0052C67.1359 21.0113 69.3016 20.9942 70.2907 19.9029C71.2115 18.8627 71.4843 16.39 70.8534 15.1964Z"/>
</mask>
<path d="M74.4856 47.6473C73.8887 49.9664 72.03 51.2113 70.2566 52.4731C65.9593 55.5426 61.1164 57.3502 56.0007 58.5097C49.6401 59.9421 43.1942 60.2491 36.6972 59.8228C31.2234 59.4647 25.8859 58.4756 20.7702 56.4634C16.9334 54.9628 13.3524 53.0188 10.3852 50.0858C9.14038 48.841 8.69702 47.3403 9.20859 45.6351C10.1465 42.4974 14.0515 41.5084 16.4218 43.7764C16.7287 44.0662 17.0357 44.3561 17.3767 44.6972C17.7178 43.998 17.9906 43.3159 18.3828 42.7191C19.5254 40.9798 20.6849 39.2404 21.8957 37.5522C22.5436 36.6484 22.5948 36.4779 21.9639 35.5229C21.8104 35.3013 21.6569 35.0625 21.4864 34.7897C21.367 34.875 21.2477 34.9602 21.1453 35.0455C19.5424 36.529 17.6496 37.177 15.4839 37.0577C14.1709 36.9895 12.8919 36.8701 11.6812 36.3585C10.7263 35.9493 9.87364 35.3865 9.29386 34.4998C8.81638 33.7665 9.02102 33.0844 9.82248 32.7263C10.1294 32.5899 10.4534 32.4706 10.7433 32.3C13.1136 30.9017 13.7105 28.5996 12.602 25.9394C11.4766 23.211 11.4936 20.4997 12.7214 17.8395C13.7787 15.5545 15.6715 14.3608 18.1782 14.1732C21.3159 13.9515 23.8055 15.0429 25.4255 17.8566C25.6131 18.1806 25.7495 18.5387 25.8689 18.7944C31.4621 18.2658 37.0212 18.658 42.5633 18.5387C42.8532 18.5387 43.1772 18.5557 43.45 18.4534C43.9616 18.2829 44.1151 17.8566 44.1833 17.362C44.7119 13.9856 45.6157 10.7116 47.2527 7.67621C48.8557 4.70908 50.9872 2.28762 54.176 0.974579C57.1261 -0.236149 60.1274 -0.338464 63.1457 0.804054C63.4185 0.906369 63.7595 0.872264 64.0494 0.821106C65.5671 0.565319 67.0848 0.207216 68.6195 0.0196384C69.7791 -0.116782 70.2054 0.463004 70.0519 1.58847C69.8302 3.08909 69.2163 4.38508 68.2444 5.54465C69.2163 7.2499 70.2224 8.9381 71.1262 10.6604C71.8595 12.0928 72.6098 13.5593 73.1043 15.077C73.7523 17.1062 73.4113 19.1184 72.2517 20.8919C70.6147 23.3816 66.6414 23.6032 64.2882 21.4205C63.5549 20.7384 62.7876 20.0904 61.6962 19.8176C61.7644 20.3462 61.8326 20.8066 61.9008 21.2841C62.3442 24.814 62.5488 28.3438 61.5768 31.8055C61.0311 33.7324 60.9288 33.4255 62.3442 34.9773C64.4246 37.2623 66.1298 39.8031 67.4599 42.5827C67.5623 42.7873 67.6646 42.9919 67.7839 43.2307C68.7389 42.7362 69.6938 42.4463 70.7511 42.6168C72.4734 42.9067 73.6329 43.8787 74.2468 45.5157C74.3321 45.7545 74.4174 45.9932 74.5026 46.2319C74.4856 46.7094 74.4856 47.1698 74.4856 47.6473ZM67.7328 2.38994C67.6816 2.32173 67.6305 2.25352 67.5793 2.18531C66.7778 2.37288 65.9764 2.54341 65.1749 2.73099C64.6292 2.86741 64.2029 3.1573 63.8107 3.60066C62.276 5.35707 60.4173 6.49959 58.0129 6.53369C56.9556 6.55075 56.0518 7.01116 55.3868 7.79558C54.8411 8.42652 54.2613 9.12568 53.9544 9.87599C53.3405 11.3254 52.9312 12.8431 52.3855 14.3267C51.8569 15.7762 51.3624 17.2597 50.6632 18.6239C49.9129 20.0734 48.5999 20.7896 46.9117 20.7043C46.3148 20.6702 45.7351 20.7043 45.053 20.7043C45.053 21.0113 45.053 21.233 45.053 21.4546C45.053 22.5972 45.07 23.7567 45.053 24.8992C45.0018 28.1904 42.9896 30.7312 39.9202 31.4474C39.4768 31.5497 38.9993 31.6009 38.5389 31.6691C38.5389 33.7495 38.5389 35.7958 38.5389 37.9444C39.8519 37.7398 41.1138 37.5351 42.3757 37.3305C45.0018 36.9042 47.6108 36.4097 50.254 36.0857C51.891 35.8811 53.5792 35.9834 55.2333 35.8469C56.444 35.7617 57.4331 36.1027 58.2857 36.9724C60.0421 38.78 61.5768 40.7581 62.7876 42.9919C63.3162 43.9639 63.7766 44.953 64.3052 46.0102C64.9021 45.5839 65.4819 45.1747 66.0787 44.7654C65.9934 44.5778 65.9423 44.4414 65.8911 44.305C64.5099 41.1503 62.617 38.3366 60.2297 35.864C59.0872 34.6874 58.8655 33.4084 59.3088 31.8226C59.7181 30.4242 59.9568 28.9577 60.0592 27.5083C60.2638 24.6946 59.9227 21.898 59.36 19.1355C59.1213 17.9418 59.5305 17.4473 60.7413 17.4643C62.0031 17.4814 63.1627 17.8907 64.22 18.5216C64.3052 18.4704 64.3564 18.4363 64.4075 18.4022C66.1469 16.6799 67.8692 14.9406 69.6256 13.2183C69.9326 12.9284 69.7961 12.7067 69.6427 12.4339C68.466 10.3876 67.3065 8.32421 66.1298 6.27791C65.6865 5.51054 65.7376 5.18655 66.2833 4.50445C66.7778 3.82235 67.2383 3.10614 67.7328 2.38994ZM23.1064 48.0224C31.2575 51.2624 39.6985 51.7399 48.2588 50.9384C53.1358 50.478 57.8423 49.3525 62.276 47.1186C60.9459 43.7423 59.036 40.8433 56.5122 38.3707C56.2735 38.149 55.8301 38.0638 55.472 38.0467C54.8581 38.0297 54.2443 38.1831 53.6304 38.1661C50.2881 38.0979 47.014 38.5242 43.757 39.2574C39.4938 40.2294 35.1625 40.5023 30.8141 40.3147C28.9383 39.6667 27.7617 40.5705 26.6704 41.9858C25.2379 43.8446 23.9931 45.7715 23.1064 48.0224ZM41.7789 57.8276C41.7789 57.8958 41.7959 57.947 41.7959 58.0152C45.1382 57.7083 48.5146 57.5207 51.8399 57.0944C56.6316 56.4634 61.2528 55.1163 65.5671 52.8653C67.801 51.7058 69.9155 50.3245 71.6719 48.4999C72.5757 47.562 72.5416 46.266 71.6719 45.4134C70.8193 44.5778 69.4892 44.5437 68.6195 45.4134C66.2151 47.7837 63.3162 49.3184 60.2126 50.495C54.8922 52.5243 49.3502 53.3087 43.6888 53.4622C37.9932 53.6157 32.3659 53.1893 26.8579 51.6376C22.4072 50.3927 18.2294 48.6193 14.8359 45.3281C14.0174 44.5267 12.7555 44.5949 11.937 45.3452C11.0844 46.1296 10.965 47.3574 11.6983 48.2953C12.0564 48.7386 12.4827 49.1308 12.909 49.506C15.9273 52.098 19.4401 53.8203 23.1746 55.0822C29.1771 57.1114 35.4353 57.8106 41.7789 57.8276ZM29.7398 20.7896C26.7386 20.3121 23.942 21.7957 22.7994 24.49C21.3329 27.9516 21.7081 31.2769 23.8226 34.3804C24.931 36.0004 24.8628 37.3476 23.6521 38.8652C22.8335 39.8884 22.015 40.9456 21.3159 42.0541C20.5315 43.2989 19.8835 44.629 19.1502 45.9591C19.9005 46.3683 20.4973 46.7094 21.1112 47.0504C21.2306 46.8117 21.2988 46.6582 21.367 46.5048C22.5778 43.674 24.3001 41.1844 26.4828 39.0017C27.4036 38.0808 28.4609 37.7568 29.7398 37.9785C31.8884 38.3366 34.0541 38.149 36.2368 38.0638C36.2368 35.8981 36.2368 33.7836 36.2368 31.6691C32.1442 31.4133 29.5011 28.2586 29.7398 24.2683C29.791 23.1258 29.7398 21.9833 29.7398 20.7896ZM12.0905 34.1076C13.9321 35.2672 17.462 35.1819 19.1331 33.8859C19.5254 33.579 19.8664 33.1697 20.1563 32.7604C20.2927 32.5729 20.2927 32.2489 20.2586 32.0101C20.1222 31.1746 19.8494 30.339 19.8152 29.5034C19.6106 25.9053 20.4462 22.6824 23.3963 20.3121C23.8737 19.937 23.8908 19.6471 23.6691 19.1525C22.6971 17.0721 20.4973 15.9808 17.9565 16.39C16.3365 16.6458 15.1599 17.5155 14.546 19.0502C13.7275 21.0795 13.6934 23.0917 14.5972 25.1209C15.8591 27.9346 15.3816 31.0893 13.4035 33.0162C13.0113 33.4084 12.5338 33.7495 12.0905 34.1076ZM31.9566 20.7555C31.9566 22.3925 31.8373 23.9955 31.9907 25.5813C32.1783 27.6788 33.713 29.1794 35.8276 29.4011C36.8507 29.5205 37.925 29.5205 38.9482 29.4011C41.182 29.1624 42.6997 27.5253 42.8191 25.2744C42.8873 24.166 42.8361 23.0576 42.8532 21.9492C42.8532 21.5569 42.8532 21.1647 42.8532 20.7555C39.1528 20.7555 35.5718 20.7555 31.9566 20.7555ZM46.2125 18.4363C47.5256 18.7433 48.2418 18.4704 48.8898 17.3791C49.1626 16.9187 49.4013 16.4412 49.5548 15.9296C49.9641 14.6848 50.254 13.3888 50.7144 12.144C51.2089 10.7627 51.7034 9.38146 52.4196 8.10252C53.6986 5.81749 55.5914 4.38508 58.3539 4.28276C59.6669 4.23161 60.7583 3.63477 61.7303 2.61162C61.4575 2.52636 61.2869 2.44109 61.0994 2.40699C60.7754 2.33878 60.4343 2.25352 60.0933 2.21941C56.3758 1.87836 53.3234 3.22551 50.9702 6.07328C48.003 9.67136 46.9287 13.9856 46.2125 18.4363ZM70.8534 15.1964C69.2675 16.7993 67.6646 18.4022 66.0616 20.0052C67.1359 21.0113 69.3016 20.9942 70.2907 19.9029C71.2115 18.8627 71.4843 16.39 70.8534 15.1964Z" fill="#5D7E9D" stroke="#F4F6F8" stroke-width="0.4" mask="url(#path-2-inside-1_2069_205)"/>
<path d="M64.6792 9.8078C65.2761 9.82485 65.7706 10.3535 65.7536 10.9333C65.7365 11.5301 65.2249 12.0076 64.611 11.9735C64.0142 11.9564 63.5879 11.496 63.5879 10.8992C63.5879 10.2853 64.0824 9.79075 64.6792 9.8078Z" fill="#5D7E9D"/>
</svg>
