<svg width="64" height="102" viewBox="0 0 64 102" fill="none" xmlns="http://www.w3.org/2000/svg">
<path d="M6.03 89.7044C6.522 89.7044 6.999 89.7854 7.461 89.9474C7.929 90.1094 8.34 90.3554 8.694 90.6854C9.048 91.0094 9.333 91.4144 9.549 91.9004C9.765 92.3864 9.873 92.9534 9.873 93.6014C9.873 94.2074 9.762 94.7774 9.54 95.3114C9.318 95.8394 9.006 96.3014 8.604 96.6974C8.202 97.0934 7.716 97.4054 7.146 97.6334C6.582 97.8614 5.958 97.9754 5.274 97.9754C4.578 97.9754 3.954 97.8644 3.402 97.6424C2.85 97.4204 2.379 97.1114 1.989 96.7154C1.599 96.3134 1.299 95.8334 1.089 95.2754C0.885 94.7114 0.783 94.0874 0.783 93.4034C0.783 92.7914 0.906 92.1644 1.152 91.5224C1.404 90.8744 1.791 90.2024 2.313 89.5064L5.418 85.3394C5.526 85.1954 5.682 85.0724 5.886 84.9704C6.096 84.8684 6.336 84.8174 6.606 84.8174H8.586L4.725 89.5424C4.641 89.6444 4.56 89.7404 4.482 89.8304C4.41 89.9204 4.338 90.0134 4.266 90.1094C4.518 89.9834 4.788 89.8844 5.076 89.8124C5.37 89.7404 5.688 89.7044 6.03 89.7044ZM2.916 93.7454C2.916 94.1054 2.964 94.4354 3.06 94.7354C3.162 95.0294 3.309 95.2814 3.501 95.4914C3.699 95.7014 3.942 95.8664 4.23 95.9864C4.518 96.1004 4.851 96.1574 5.229 96.1574C5.583 96.1574 5.907 96.0974 6.201 95.9774C6.501 95.8574 6.756 95.6894 6.966 95.4734C7.182 95.2574 7.35 95.0054 7.47 94.7174C7.59 94.4234 7.65 94.1054 7.65 93.7634C7.65 93.3914 7.593 93.0584 7.479 92.7644C7.365 92.4644 7.203 92.2124 6.993 92.0084C6.783 91.7984 6.531 91.6394 6.237 91.5314C5.943 91.4234 5.619 91.3694 5.265 91.3694C4.911 91.3694 4.59 91.4294 4.302 91.5494C4.014 91.6694 3.765 91.8374 3.555 92.0534C3.351 92.2634 3.192 92.5154 3.078 92.8094C2.97 93.0974 2.916 93.4094 2.916 93.7454ZM11.5214 91.4684H16.1834V93.3224H11.5214V91.4684ZM22.4902 97.9754C21.8182 97.9754 21.2032 97.8854 20.6452 97.7054C20.0932 97.5254 19.6192 97.2704 19.2232 96.9404C18.8272 96.6104 18.5182 96.2114 18.2962 95.7434C18.0802 95.2754 17.9722 94.7534 17.9722 94.1774C17.9722 93.4094 18.1612 92.7614 18.5392 92.2334C18.9172 91.6994 19.5052 91.3034 20.3032 91.0454C19.6672 90.7814 19.1902 90.4064 18.8722 89.9204C18.5602 89.4344 18.4042 88.8494 18.4042 88.1654C18.4042 87.6734 18.5032 87.2144 18.7012 86.7884C18.9052 86.3624 19.1872 85.9934 19.5472 85.6814C19.9072 85.3634 20.3362 85.1174 20.8342 84.9434C21.3382 84.7634 21.8902 84.6734 22.4902 84.6734C23.0902 84.6734 23.6392 84.7634 24.1372 84.9434C24.6412 85.1174 25.0732 85.3634 25.4332 85.6814C25.7932 85.9934 26.0722 86.3624 26.2702 86.7884C26.4742 87.2144 26.5762 87.6734 26.5762 88.1654C26.5762 88.8494 26.4172 89.4344 26.0992 89.9204C25.7812 90.4064 25.3072 90.7814 24.6772 91.0454C25.4752 91.3034 26.0632 91.6994 26.4412 92.2334C26.8192 92.7614 27.0082 93.4094 27.0082 94.1774C27.0082 94.7534 26.8972 95.2754 26.6752 95.7434C26.4592 96.2114 26.1532 96.6104 25.7572 96.9404C25.3612 97.2704 24.8842 97.5254 24.3262 97.7054C23.7742 97.8854 23.1622 97.9754 22.4902 97.9754ZM22.4902 96.2384C22.8562 96.2384 23.1772 96.1874 23.4532 96.0854C23.7292 95.9774 23.9602 95.8304 24.1462 95.6444C24.3382 95.4584 24.4822 95.2364 24.5782 94.9784C24.6742 94.7204 24.7222 94.4414 24.7222 94.1414C24.7222 93.4274 24.5242 92.8874 24.1282 92.5214C23.7322 92.1554 23.1862 91.9724 22.4902 91.9724C21.7942 91.9724 21.2482 92.1554 20.8522 92.5214C20.4562 92.8874 20.2582 93.4274 20.2582 94.1414C20.2582 94.4414 20.3062 94.7204 20.4022 94.9784C20.4982 95.2364 20.6392 95.4584 20.8252 95.6444C21.0172 95.8304 21.2512 95.9774 21.5272 96.0854C21.8032 96.1874 22.1242 96.2384 22.4902 96.2384ZM22.4902 90.2264C22.8502 90.2264 23.1532 90.1694 23.3992 90.0554C23.6452 89.9414 23.8432 89.7914 23.9932 89.6054C24.1432 89.4134 24.2482 89.1974 24.3082 88.9574C24.3742 88.7114 24.4072 88.4594 24.4072 88.2014C24.4072 87.9554 24.3682 87.7214 24.2902 87.4994C24.2122 87.2774 24.0952 87.0824 23.9392 86.9144C23.7832 86.7404 23.5852 86.6024 23.3452 86.5004C23.1052 86.3984 22.8202 86.3474 22.4902 86.3474C22.1602 86.3474 21.8752 86.3984 21.6352 86.5004C21.3952 86.6024 21.1942 86.7404 21.0322 86.9144C20.8762 87.0824 20.7592 87.2774 20.6812 87.4994C20.6092 87.7214 20.5732 87.9554 20.5732 88.2014C20.5732 88.4594 20.6032 88.7114 20.6632 88.9574C20.7292 89.1974 20.8372 89.4134 20.9872 89.6054C21.1372 89.7914 21.3352 89.9414 21.5812 90.0554C21.8272 90.1694 22.1302 90.2264 22.4902 90.2264ZM35.287 95.8334H40.498V97.8314H32.866V84.8174H35.287V95.8334ZM53.7839 97.8314H51.9119C51.7019 97.8314 51.5279 97.7804 51.3899 97.6784C51.2579 97.5704 51.1619 97.4384 51.1019 97.2824L50.1299 94.6274H44.7389L43.7669 97.2824C43.7189 97.4204 43.6229 97.5464 43.4789 97.6604C43.3409 97.7744 43.1699 97.8314 42.9659 97.8314H41.0849L46.1969 84.8174H48.6719L53.7839 97.8314ZM45.3599 92.9174H49.5089L47.9249 88.5884C47.8529 88.3964 47.7719 88.1714 47.6819 87.9134C47.5979 87.6494 47.5139 87.3644 47.4299 87.0584C47.3459 87.3644 47.2619 87.6494 47.1779 87.9134C47.0999 88.1774 47.0219 88.4084 46.9439 88.6064L45.3599 92.9174ZM63.1568 84.8174V86.8064H59.2418V97.8314H56.8208V86.8064H52.8878V84.8174H63.1568Z" fill="#5D7E9D"/>
<path d="M45.1061 54.2628C46.4365 53.9251 47.693 53.6058 48.9402 53.2009C52.2709 52.119 54.7915 50.5447 56.6456 48.3882C58.9464 45.7123 59.6671 42.4645 58.8493 38.4589C58.8036 38.2352 58.6943 37.9441 58.4342 37.8286C58.2102 37.7289 57.9118 37.7772 57.5944 37.9645C57.5223 38.007 57.4498 38.0488 57.3773 38.0908C57.1497 38.2218 56.9348 38.3457 56.7426 38.4881C56.1759 38.9082 55.6579 38.8538 55.1574 38.3234C54.6102 37.7433 54.1069 37.2985 53.6185 36.9638C53.073 36.5902 52.2828 36.194 51.6138 36.4301C50.9384 36.6687 50.5666 37.4869 50.3737 38.1311C50.3442 38.2287 50.3112 38.3396 50.293 38.4382C50.1855 39.0189 50.08 39.5996 49.9682 40.2149L49.7802 41.2492L46.9531 41.0933L47.12 40.4985C47.177 40.2956 47.2322 40.107 47.2847 39.9278C47.3943 39.5539 47.4888 39.2308 47.561 38.9063C47.654 38.4891 47.7672 37.9391 47.8199 37.3841C47.942 36.098 47.4336 35.4254 46.1711 35.2031C45.7121 35.1223 45.3286 35.0941 44.9998 35.1167C44.4087 35.1577 43.8172 35.2284 43.1908 35.3034C42.9228 35.3355 42.6498 35.3682 42.3696 35.3994L41.9841 35.4424L41.8498 35.0785C41.7431 34.7894 41.6375 34.4979 41.5314 34.2053C41.2745 33.4963 41.009 32.7632 40.7218 32.0539C40.4147 31.2957 40.6836 30.8165 41.0199 30.4117L41.3108 30.0628C42.1026 29.114 42.9215 28.1331 43.5378 27.0813C44.0465 26.213 44.2077 25.4855 44.0305 24.857C43.8477 24.209 43.2717 23.6218 42.3187 23.1119C42.286 23.0944 42.2533 23.0762 42.2204 23.0578C42.1428 23.0144 42.0694 22.9734 42.0126 22.9551C41.7066 22.8563 41.4009 22.7566 41.0951 22.6568C40.1483 22.348 39.1693 22.0287 38.2011 21.7468C37.6313 21.5809 37.1853 21.1882 36.9778 20.6693C36.7815 20.1793 36.8266 19.6271 37.101 19.1547C38.0755 17.4767 39.0709 15.6749 39.5925 13.7236C39.936 12.4388 39.9051 11.5034 39.4978 10.8642C39.0877 10.2204 38.2419 9.79301 36.9124 9.55772C35.2239 9.259 33.3849 9.23157 31.1258 9.47181C30.1077 9.57838 29.3794 9.00306 29.1732 7.92926C28.9209 6.61621 28.6068 4.98212 28.0713 3.51987C27.5928 2.21343 26.9534 1.40679 26.171 1.12277C25.3935 0.840564 24.3945 1.04528 23.2027 1.73278C22.3074 2.24912 21.4538 2.90655 20.6283 3.54251C20.1921 3.87858 19.7411 4.22605 19.2837 4.55336C19.0397 4.728 18.6663 4.94048 18.2722 4.96279C17.6804 4.99633 17.0813 5.01269 16.502 5.02855C15.7852 5.04821 15.044 5.06853 14.3231 5.12157C11.9102 5.29919 9.79347 6.05741 8.03183 7.37525C4.90344 9.71601 3.5851 12.6823 4.1135 16.1924C4.81719 20.8666 8.99791 24.513 13.838 24.6739C16.3989 24.7598 18.7391 24.05 20.7931 22.5665C20.8998 22.4893 21.009 22.4293 21.1053 22.3766C21.1432 22.356 21.181 22.3353 21.2182 22.3135L21.4591 22.1727L22.1914 22.5698L22.1017 22.9405C22.061 23.1081 22.0283 23.2804 21.9934 23.4628C21.9128 23.8858 21.8294 24.323 21.6392 24.7375C21.2165 25.658 20.7618 26.5787 20.3222 27.4687C19.9539 28.2146 19.5729 28.986 19.2147 29.7493C18.9073 30.4046 18.4284 30.7709 17.707 30.902C16.3784 31.1434 15.1552 30.8354 13.9724 30.5375C13.7706 30.4866 13.5687 30.4359 13.3662 30.3878C12.7023 30.2301 12.3437 29.8452 12.2378 29.1765C12.1103 28.3702 11.7478 27.7395 11.1606 27.3022C10.8007 27.0342 10.3538 27.056 10.0972 27.3541C9.77332 27.7308 9.79446 28.1526 10.1555 28.5113C10.2807 28.6359 10.3856 28.7709 10.4418 28.8432L10.4666 28.8748L10.8521 29.344L10.3179 29.631C10.0925 29.75 9.86865 29.8595 9.6522 29.9656C9.18181 30.1958 8.73751 30.4131 8.35601 30.689C8.06703 30.898 8.10585 31.3814 8.32164 31.6848C8.47365 31.8986 8.73917 32.1527 9.2854 31.8913C9.38966 31.8414 9.49491 31.7932 9.58512 31.7517L10.196 31.4693L10.3642 32.0096C10.4245 32.2036 10.4782 32.3979 10.5314 32.5902C10.6426 32.9931 10.7477 33.3737 10.9068 33.7131C11.0079 33.9287 11.1868 34.0912 11.411 34.1705C11.6014 34.2377 11.7988 34.2336 11.9531 34.1586C12.3059 33.9872 12.4425 33.419 12.2401 32.9665C12.1863 32.8462 12.1436 32.7285 12.1058 32.6246C12.0914 32.5851 12.0777 32.5471 12.0643 32.5119L11.7484 31.6851L17.6526 32.7898L17.4519 33.3395C17.3782 33.5414 17.3017 33.7458 17.2247 33.9524C17.0576 34.3998 16.8848 34.8624 16.7298 35.3237C15.5959 38.7001 15.6096 41.5032 16.773 44.1452C16.8691 44.3638 16.9573 44.623 16.8825 44.8893C16.6647 45.6637 16.8338 46.4375 17.0127 47.2569C17.0406 47.3847 17.0685 47.513 17.0953 47.6415C17.5485 49.8279 17.1303 51.5988 15.817 53.0551C15.7015 53.1832 15.5975 53.3884 15.5318 53.6179C15.3636 54.2051 15.4764 54.8231 15.8409 55.3131C16.2299 55.8361 16.8432 56.1411 17.5241 56.1497C19.3363 56.1731 21.1815 56.1662 22.9661 56.1594C23.4829 56.1573 23.9998 56.1554 24.5166 56.1541C24.6283 56.1538 24.7633 56.13 24.9179 56.0834C26.6574 55.5588 27.5741 54.8046 27.9827 53.5612L28.1453 53.0662L30.4761 53.9631L30.4286 54.3475C30.2741 55.5928 29.826 56.5953 29.0585 57.4123C28.3077 58.2113 28.1189 58.9563 28.4639 59.7565C28.8242 60.5926 29.4955 60.9827 30.5751 60.9828C30.5849 60.9828 30.5944 60.9827 30.6042 60.9827C31.0131 60.98 31.4217 60.9769 31.8307 60.9736C32.7511 60.9665 33.6865 60.9591 34.6266 60.9591C35.6856 60.9591 36.7503 60.9685 37.8062 60.9976C38.8224 61.0285 39.8311 60.7674 40.9786 60.1848C42.782 59.2695 43.4705 57.7925 43.0249 55.7952C42.9909 55.6429 42.9664 55.4947 42.9484 55.3863L42.8521 54.8493L43.2929 54.7314C43.9029 54.5684 44.5146 54.413 45.1061 54.2628ZM52.0241 37.5865L54.5317 39.7227L51.3148 40.9979L52.0241 37.5865ZM46.4591 36.4717L45.5206 40.5956L42.4369 36.7771L46.4591 36.4717ZM38.903 23.5672C40.03 23.8767 41.0947 24.1692 42.0345 24.8603C42.3756 25.111 42.4255 25.7555 42.2255 26.0878C41.842 26.7242 41.4296 27.3517 41.0308 27.9588C40.8979 28.1609 40.7653 28.3629 40.6332 28.5653L40.3995 28.9245L39.6169 28.5635L37.9652 23.3097L38.903 23.5672ZM32.6784 10.9032C34.1182 10.8106 35.8141 10.7842 37.4779 11.2855C38.1026 11.4739 38.3974 11.9852 38.229 12.5886L38.1418 12.9032C37.9414 13.6264 37.7342 14.3744 37.4678 15.0979C37.2894 15.5822 37.0657 16.0369 36.8291 16.5184C36.7238 16.7322 36.6159 16.9519 36.5082 17.1819L36.093 18.0692L35.6241 17.209C35.4445 16.8797 35.2748 16.5613 35.1097 16.2517C34.7533 15.5832 34.4168 14.9517 34.0531 14.3473C33.689 13.7414 33.2929 13.1545 32.8737 12.5331C32.6842 12.2519 32.4912 11.9659 32.2966 11.671L31.8255 10.9579L32.6784 10.9032ZM21.9069 4.3688C22.7835 3.67964 23.6903 2.96686 24.8664 2.65689C25.2281 2.56139 25.8219 2.77883 25.9974 3.16893C26.322 3.89097 26.6204 4.63382 26.9091 5.35206C27.0028 5.58536 27.0964 5.81849 27.1911 6.0513L27.4044 6.57606L26.515 6.80622L21.1174 4.98906L21.9069 4.3688ZM26.2958 53.7083C25.9686 54.2114 25.3629 54.4919 24.4959 54.5423C23.6014 54.5941 22.7163 54.6096 21.8181 54.6096C21.1615 54.6096 20.4981 54.6012 19.8186 54.5927C19.1471 54.5843 18.4528 54.5755 17.7585 54.5755H16.7675L17.362 53.7825C18.8498 51.7974 19.2513 49.5923 18.6251 46.8426C18.1628 44.812 19.2119 44.0224 20.1733 43.7174C20.9373 43.4752 21.8196 43.5713 22.5331 43.9755C23.1191 44.3072 23.5188 44.8143 23.6587 45.403C23.9971 46.8276 24.6323 48.0936 25.3047 49.4339C25.5747 49.9719 25.8538 50.5282 26.1087 51.0901C26.1857 51.2595 26.2495 51.4293 26.3057 51.579C26.6399 52.4679 26.6366 53.1842 26.2958 53.7083ZM41.3346 58.2824C40.9966 58.7812 40.2737 59.3815 38.7507 59.4097C38.4513 59.4153 38.1501 59.4172 37.851 59.4172C37.6045 59.4172 37.3595 59.416 37.1181 59.4147C36.8747 59.4135 36.6315 59.4124 36.3881 59.4124H29.5002L30.1852 58.5976C32.6318 55.6875 32.388 52.5362 31.7601 49.5646C31.4022 47.8703 32.0473 46.5018 33.4856 45.9033C35.1002 45.2315 37.1673 45.7715 37.9987 47.0827C38.195 47.3925 38.3108 47.6926 38.3422 47.9746C38.5033 49.4167 39.1021 50.6937 39.8094 52.0948L39.9101 52.2941C40.4505 53.3638 41.0096 54.4698 41.4419 55.6161C41.944 56.9485 41.6608 57.8014 41.3346 58.2824ZM42.5507 52.9743C41.9309 52.9743 41.6201 52.5383 41.4331 52.1823C40.7208 50.8256 39.9297 49.2265 39.5576 47.4171C39.1541 45.4537 36.9968 43.9829 34.6324 44.0708C32.3339 44.1557 30.5543 45.4323 29.9884 47.4024C29.7739 48.1484 29.7964 48.9308 30.0632 50.0186C30.1414 50.3372 30.2037 50.6587 30.2696 50.9991C30.3007 51.1603 30.3334 51.3282 30.3694 51.5053L30.5488 52.3865L29.708 52.0674C29.5391 52.0033 29.3785 51.9442 29.2244 51.8873C28.8464 51.7479 28.4891 51.6162 28.1435 51.4615C27.8142 51.314 27.6182 50.986 27.5492 50.8518C27.4466 50.6523 27.3428 50.4525 27.2389 50.2529C26.8415 49.4887 26.4304 48.6988 26.0772 47.8903C25.6907 47.0064 25.2947 46.0619 25.0693 45.0884C24.8036 43.9401 23.9887 42.977 22.8336 42.4463C21.5862 41.873 20.128 41.9039 18.9333 42.5288C18.8424 42.5763 18.753 42.6264 18.6412 42.689L17.8848 43.1085L17.7137 42.5086C17.1916 40.6762 17.2495 38.789 17.8958 36.5694C18.608 34.1237 19.7906 31.869 20.9345 29.6887L21.1865 29.2081C21.2851 29.0194 21.3847 28.8312 21.4842 28.643C22.2973 27.1044 23.0653 25.6514 23.4208 24.0059C23.7794 22.3466 23.3352 21.0933 22.1012 20.2814C21.5898 19.945 21.2028 19.9799 20.7653 20.4018C19.8159 21.3172 18.7504 22.0085 17.5979 22.4564L16.7366 22.7912L16.9342 21.8884C16.9906 21.631 17.0523 21.3773 17.1138 21.1259C17.2475 20.5783 17.3735 20.0611 17.4334 19.542C17.4603 19.3087 17.4581 18.9903 17.2962 18.7978C17.1892 18.6704 17.0097 18.5984 16.7629 18.5842C16.3561 18.5609 15.9848 18.6129 15.9129 19.5007C15.7937 20.9758 14.4752 22.5865 13.0912 22.9476C12.8505 23.0104 12.6142 22.9928 12.4582 22.967C8.95677 22.3855 5.37136 19.4774 5.29404 15.0436C5.24563 12.2688 6.59751 9.99458 9.31234 8.28449C10.726 7.39376 12.3672 6.85314 14.19 6.67783C18.1377 6.29831 21.3281 6.65768 24.2289 7.8093C27.7416 9.20381 30.528 11.7291 32.7475 15.5293C34.6843 18.8459 35.8622 22.4173 37.0948 26.406C37.245 26.8919 37.3932 27.3785 37.5412 27.8653C38.4409 30.8205 39.3714 33.8764 40.7487 36.6951C41.0982 37.41 41.4868 38.0994 41.9035 38.7436C44.1438 42.2059 47.2684 43.4159 51.1877 42.3407C52.3308 42.0273 53.4642 41.5367 54.5605 41.0625C55.0535 40.8492 55.5634 40.6287 56.072 40.4248C56.1856 40.3792 56.3059 40.3175 56.4452 40.2458C56.5239 40.2055 56.6073 40.1625 56.6998 40.1173L57.3811 39.7827L57.4134 40.5409C57.5387 43.4562 56.736 45.7852 54.9598 47.6612C53.3056 49.4084 51.1885 50.6731 48.4874 51.5273C47.2861 51.9073 46.0432 52.1936 44.8416 52.4706C44.2192 52.6138 43.5756 52.7624 42.9494 52.9211C42.804 52.9578 42.6716 52.9743 42.5507 52.9743Z" fill="#5D7E9D" stroke="#5D7E9D" stroke-width="0.3"/>
<path d="M34.2721 36.0661C34.2015 35.8084 33.8764 35.5637 33.5077 35.6114C33.3656 35.6296 33.2012 35.6912 33.0107 35.7626C32.8999 35.8041 32.7834 35.8477 32.6578 35.8886L31.8057 36.1676L32.0227 35.2976C32.0896 35.0291 32.1565 34.7691 32.2216 34.5146C32.3593 33.9786 32.4891 33.4722 32.602 32.9637C33.2345 30.1123 32.4495 27.9069 30.2686 26.4085C29.9701 26.2034 29.6904 26.1178 29.4582 26.161C29.2717 26.196 29.1053 26.3188 28.9642 26.5258C28.8571 26.6829 28.5311 27.1609 29.3554 27.7291C30.7167 28.6673 31.3236 30.0314 31.1105 31.6736C31.0394 32.2221 30.9221 32.7632 30.8088 33.2865C30.7323 33.6396 30.6531 34.0047 30.591 34.361C30.4636 35.0931 30.0557 35.4862 29.307 35.5979C28.4847 35.7206 27.8497 36.097 27.4193 36.7166C27.1593 37.0912 27.2225 37.5402 27.5695 37.7845C27.9894 38.0797 28.2651 38.0563 28.5599 37.6885L28.5288 37.6351L28.7139 37.5051C28.8317 37.3906 29.0458 37.2333 29.297 37.2875L29.6137 37.3559L29.6682 37.6225C29.7834 37.8238 29.8921 38.024 29.9978 38.2187C30.2673 38.715 30.5219 39.1839 30.8375 39.5876C31.0568 39.8681 31.4642 39.8377 31.7317 39.6469C32.0076 39.4498 32.144 38.9931 32.0237 38.6697C31.9839 38.5627 31.9183 38.4493 31.8604 38.3492C31.8309 38.2981 31.8039 38.2514 31.7821 38.2097L31.4931 37.6612L32.0919 37.5001C32.2953 37.4454 32.4985 37.3965 32.7003 37.3479C33.1378 37.2425 33.5512 37.143 33.9337 36.9912C34.284 36.8524 34.3692 36.4208 34.2721 36.0661Z" fill="#5D7E9D" stroke="#5D7E9D" stroke-width="0.3"/>
<path d="M16.7107 9.18823C16.7071 9.18823 16.7031 9.18823 16.6993 9.18823C15.839 9.18823 15.037 9.51703 14.4394 10.1152C13.8426 10.7124 13.5159 11.513 13.5196 12.3695C13.527 14.1374 14.9144 15.5263 16.678 15.5316C17.5354 15.5265 18.3458 15.2013 18.9527 14.5944C19.5541 13.9928 19.8837 13.195 19.8809 12.3477C19.8751 10.6113 18.453 9.19418 16.7107 9.18823ZM17.8343 13.6505C17.5291 13.9557 17.1241 14.1235 16.694 14.1235C16.6937 14.1235 16.6932 14.1235 16.6927 14.1235C15.8086 14.1227 15.0608 13.3732 15.0596 12.4868C15.0583 11.6009 15.8048 10.8501 16.6894 10.8473C17.1221 10.8408 17.525 11.0137 17.832 11.3195C18.1434 11.6298 18.3149 12.0435 18.3151 12.4842C18.3154 12.9263 18.1446 13.3405 17.8343 13.6505Z" fill="#5D7E9D" stroke="#5D7E9D" stroke-width="0.3"/>
</svg>
