<svg width="68" height="101" viewBox="0 0 68 101" fill="none" xmlns="http://www.w3.org/2000/svg">
<path d="M2.421 95.1664H5.058V87.5794C5.058 87.2854 5.067 86.9764 5.085 86.6524L3.213 88.2184C3.135 88.2844 3.054 88.3294 2.97 88.3534C2.892 88.3774 2.814 88.3894 2.736 88.3894C2.616 88.3894 2.505 88.3654 2.403 88.3174C2.307 88.2634 2.235 88.2034 2.187 88.1374L1.485 87.1744L5.454 83.7994H7.281V95.1664H9.621V96.8314H2.421V95.1664ZM19.0994 91.9264H20.7374V93.2134C20.7374 93.3334 20.6984 93.4384 20.6204 93.5284C20.5424 93.6124 20.4284 93.6544 20.2784 93.6544H19.0994V96.8314H17.1554V93.6544H11.6654C11.5154 93.6544 11.3834 93.6094 11.2694 93.5194C11.1554 93.4234 11.0834 93.3064 11.0534 93.1684L10.8284 92.0434L16.9934 83.8084H19.0994V91.9264ZM17.1554 87.6694C17.1554 87.4774 17.1614 87.2704 17.1734 87.0484C17.1854 86.8264 17.2064 86.5954 17.2364 86.3554L13.1954 91.9264H17.1554V87.6694ZM27.3448 86.2744V89.9644H30.8458V91.6114H27.3448V95.3194H25.5448V91.6114H22.0618V89.9644H25.5448V86.2744H27.3448ZM39.2597 94.8334H44.4707V96.8314H36.8387V83.8174H39.2597V94.8334ZM57.7565 96.8314H55.8845C55.6745 96.8314 55.5005 96.7804 55.3625 96.6784C55.2305 96.5704 55.1345 96.4384 55.0745 96.2824L54.1025 93.6274H48.7115L47.7395 96.2824C47.6915 96.4204 47.5955 96.5464 47.4515 96.6604C47.3135 96.7744 47.1425 96.8314 46.9385 96.8314H45.0575L50.1695 83.8174H52.6445L57.7565 96.8314ZM49.3325 91.9174H53.4815L51.8975 87.5884C51.8255 87.3964 51.7445 87.1714 51.6545 86.9134C51.5705 86.6494 51.4865 86.3644 51.4025 86.0584C51.3185 86.3644 51.2345 86.6494 51.1505 86.9134C51.0725 87.1774 50.9945 87.4084 50.9165 87.6064L49.3325 91.9174ZM67.1295 83.8174V85.8064H63.2145V96.8314H60.7935V85.8064H56.8605V83.8174H67.1295Z" fill="#5D7E9D"/>
<path d="M34.891 24.7958C35.6197 24.7958 36.2597 24.7958 36.894 24.7958C37.4211 22.0907 38.9114 20.6609 41.1553 20.6859C43.3497 20.7102 44.8571 22.2 45.2916 24.8221C46.8505 24.8221 48.4196 24.8211 49.9889 24.8225C51.1325 24.8233 51.4881 25.1466 51.4326 26.2785C51.1035 32.9895 48.0312 38.0482 42.157 41.3112C41.1991 41.8434 40.8974 42.3826 41.1803 43.4441C41.4898 43.4441 41.848 43.4346 42.2054 43.4456C43.868 43.4975 45.1799 44.8006 45.2293 46.4635C45.2505 47.174 45.2447 47.8859 45.2324 48.5969C45.2016 50.3717 43.8857 51.6823 42.1103 51.7165C41.7927 51.7225 41.4749 51.7173 41.0977 51.7173C41.0977 52.7228 41.1012 53.6652 41.097 54.6078C41.0831 57.7594 38.8707 59.9795 35.7284 59.9926C34.4137 59.9981 33.0991 60.0073 31.7847 59.9897C28.8829 59.9509 26.6524 57.7051 26.6179 54.796C26.6062 53.8054 26.616 52.8145 26.616 51.7171C26.2638 51.7171 25.9303 51.7228 25.5972 51.7163C23.825 51.6813 22.509 50.3646 22.4799 48.5915C22.4692 47.9452 22.4725 47.2985 22.4787 46.6521C22.4965 44.7661 23.8126 43.4594 25.7069 43.4429C25.9834 43.4405 26.2598 43.4425 26.6139 43.4425C26.6139 42.9774 26.6569 42.5474 26.5938 42.1334C26.5667 41.9565 26.3479 41.7558 26.1665 41.6633C21.0036 39.024 17.8031 34.8755 16.6192 29.2022C14.6934 19.9748 20.9325 10.5175 30.1658 8.67755C31.3209 8.44738 32.5109 8.36652 33.6893 8.28601C34.4855 8.23153 34.8832 8.65945 34.8874 9.46167C34.8974 11.4011 34.8918 13.3407 34.8905 15.2801C34.8896 16.5198 34.4624 16.8617 33.2479 16.5999C32.1098 16.3546 30.9678 17.0925 30.763 18.2054C30.5513 19.3557 31.2878 20.4604 32.4347 20.6428C32.7615 20.6947 33.1176 20.626 33.4508 20.5633C34.3632 20.3914 34.8774 20.7828 34.888 21.7114C34.8999 22.7205 34.891 23.7299 34.891 24.7958ZM39.029 43.4424C39.029 42.7717 39.0628 42.1705 39.0205 41.5746C38.9667 40.8167 39.2879 40.3864 39.9815 40.0936C42.8816 38.8697 45.1812 36.9094 46.8912 34.2724C48.3329 32.0492 49.1454 29.6098 49.3289 26.8911C49.0722 26.8911 48.8613 26.8911 48.6505 26.8911C47.1851 26.8911 45.72 26.8964 44.2547 26.8892C43.2432 26.8842 42.8484 26.3764 43.0678 25.3873C43.2892 24.3894 42.9949 23.5677 42.2354 23.0637C41.5524 22.6103 40.5929 22.6219 39.9212 23.0918C39.1909 23.6029 38.9062 24.4144 39.1219 25.3706C39.3517 26.389 38.954 26.8848 37.8935 26.8902C36.9095 26.895 35.9256 26.8912 34.9284 26.8912C34.9284 27.6226 34.9284 28.2795 34.9284 28.9312C37.3242 29.2189 38.889 30.712 39.0186 32.8104C39.0807 33.815 38.8143 34.7293 38.2202 35.5427C37.4061 36.6574 36.2563 37.1556 34.9424 37.2668C34.9424 39.3535 34.9424 41.3867 34.9424 43.4425C36.1347 43.4425 37.2759 43.4425 38.4171 43.4425C38.5883 43.4424 38.7593 43.4424 39.029 43.4424ZM32.8224 26.9314C32.0862 26.9314 31.4302 26.9314 30.7802 26.9314C30.5025 29.2975 29.0432 30.8494 26.9615 31.0149C25.9822 31.0928 25.0804 30.8501 24.2712 30.293C23.0927 29.4815 22.5566 28.3053 22.4459 26.9333C21.0627 26.9333 19.737 26.9333 18.2095 26.9333C18.5986 28.4508 18.8428 29.9263 19.355 31.302C20.8882 35.42 23.7275 38.3535 27.7629 40.1036C28.4265 40.3914 28.736 40.8154 28.692 41.5431C28.6549 42.1584 28.6844 42.7775 28.6844 43.3965C30.1037 43.3965 31.4464 43.3965 32.8222 43.3965C32.8222 41.0047 32.8196 38.6587 32.8234 36.3127C32.8252 35.2412 33.3141 34.8436 34.3322 35.0703C35.3213 35.2907 36.1511 34.9895 36.6518 34.2285C37.1033 33.5421 37.088 32.5869 36.6146 31.9152C36.1013 31.187 35.2961 30.9077 34.3339 31.1239C33.3426 31.3466 32.8319 30.9544 32.824 29.9494C32.8164 28.9607 32.8224 27.9717 32.8224 26.9314ZM32.7929 10.398C24.6119 10.9421 18.7176 17.7418 18.4245 24.8221C20.015 24.8221 21.6034 24.8218 23.192 24.8223C24.5418 24.8227 24.8552 25.1997 24.5895 26.5009C24.4223 27.32 24.7731 28.176 25.4674 28.6424C26.1472 29.0991 27.1069 29.0931 27.7805 28.6281C28.4737 28.1495 28.8085 27.3067 28.6341 26.479C28.3694 25.2233 28.6982 24.8235 29.997 24.8225C30.9333 24.8218 31.8697 24.8223 32.791 24.8223C32.791 24.0746 32.791 23.4336 32.791 22.7979C30.2532 22.4113 28.737 20.9002 28.688 18.7349C28.6363 16.451 30.0706 14.9339 32.7929 14.4141C32.7929 13.0919 32.7929 11.7654 32.7929 10.398ZM33.8563 45.5114C31.1626 45.5114 28.4691 45.5073 25.7753 45.5139C24.929 45.5159 24.5605 45.893 24.5483 46.739C24.5405 47.2776 24.543 47.8166 24.5476 48.3552C24.5555 49.2831 24.9121 49.6439 25.8398 49.6475C27.262 49.6531 28.6844 49.6491 30.1066 49.6491C34.0286 49.6491 37.9506 49.6512 41.8725 49.6475C42.7996 49.6467 43.1575 49.2824 43.1661 48.3555C43.1708 47.86 43.169 47.3642 43.1665 46.8686C43.1611 45.8556 42.822 45.5132 41.808 45.5121C39.1574 45.5095 36.5068 45.5113 33.8563 45.5114ZM32.8207 51.7492C32.8207 52.7833 32.836 53.7702 32.8155 54.7566C32.8005 55.4819 32.2271 55.9801 31.5954 55.8295C31.0125 55.6903 30.7499 55.2853 30.7525 54.6917C30.7568 53.7107 30.7537 52.7295 30.7537 51.7496C30.0223 51.7496 29.3844 51.7496 28.6858 51.7496C28.6858 52.8076 28.6691 53.8357 28.6896 54.8631C28.7234 56.5581 30.042 57.8872 31.7362 57.918C33.1355 57.9435 34.536 57.9384 35.9354 57.9199C37.47 57.8998 38.781 56.8627 38.9562 55.3507C39.0929 54.1698 38.9836 52.9604 38.9836 51.7658C38.2954 51.7658 37.6421 51.7658 36.9599 51.7658C36.9599 52.7159 36.9626 53.6187 36.959 54.5212C36.9556 55.3767 36.5628 55.8664 35.9018 55.8507C35.2622 55.8355 34.8956 55.3645 34.892 54.5397C34.888 53.6197 34.8911 52.6995 34.8911 51.7494C34.1908 51.7492 33.5529 51.7492 32.8207 51.7492Z" fill="#5D7E9D"/>
<path d="M41.0972 14.535C38.4688 14.0916 36.9856 12.5909 36.9613 10.3993C36.9363 8.14795 38.3707 6.65213 41.097 6.13283C41.097 4.57477 41.096 3.00567 41.0974 1.43657C41.0984 0.301599 41.4239 -0.0154618 42.5642 0.000572282C51.2488 0.122638 58.8036 7.08884 59.6038 15.7164C59.6555 16.2734 59.7005 16.8329 59.7093 17.3919C59.7219 18.1994 59.3359 18.607 58.5467 18.6111C56.4997 18.6222 54.4527 18.6242 52.4059 18.6101C51.5562 18.6042 51.1883 18.0848 51.3012 17.2417C51.365 16.7657 51.4161 16.2414 51.2837 15.795C50.9854 14.7893 49.8609 14.2461 48.8416 14.5124C47.8113 14.7818 47.1384 15.8528 47.3398 16.9031C47.6013 18.2674 47.3125 18.6148 45.916 18.6151C44.7309 18.6154 43.5457 18.6204 42.3608 18.6134C41.4722 18.608 41.1056 18.242 41.0989 17.3567C41.0915 16.4129 41.0972 15.4686 41.0972 14.535ZM45.175 16.5183C45.6626 13.8404 47.1794 12.3847 49.4316 12.4103C51.6274 12.4353 53.1503 13.9414 53.5627 16.5465C54.2158 16.5465 54.8791 16.5465 55.5425 16.5465C56.2232 16.5465 56.9039 16.5465 57.5859 16.5465C57.1883 8.93517 50.6238 2.37741 43.1661 2.13362C43.1661 2.345 43.1661 2.5543 43.1661 2.76361C43.1661 4.20616 43.1687 5.64888 43.1652 7.09143C43.1625 8.22709 42.692 8.59122 41.5653 8.33847C40.6922 8.14261 39.8452 8.4645 39.3564 9.17775C38.8919 9.85567 38.8893 10.8077 39.3503 11.4905C39.8339 12.2068 40.6836 12.5356 41.5541 12.3434C42.7144 12.0872 43.1632 12.4475 43.1658 13.6409C43.1677 14.6 43.1661 15.5593 43.1661 16.5184C43.9009 16.5183 44.5407 16.5183 45.175 16.5183Z" fill="#5D7E9D"/>
<path d="M34.8877 3.10276C34.8875 3.77067 34.9027 4.4391 34.8833 5.10633C34.8644 5.7651 34.4346 6.19992 33.8494 6.19664C33.2644 6.19354 32.8343 5.75769 32.8265 5.09684C32.8106 3.76119 32.8101 2.42501 32.8268 1.08936C32.8351 0.42972 33.2711 -0.00285512 33.8589 7.58371e-05C34.4463 0.0030068 34.8658 0.435065 34.8839 1.09884C34.9021 1.76641 34.8878 2.43484 34.8877 3.10276Z" fill="#5D7E9D"/>
<path d="M11.1294 26.8902C10.4615 26.8902 9.79321 26.9024 9.12564 26.8867C8.43238 26.8704 7.98015 26.429 8.00067 25.8223C8.0205 25.2389 8.45669 24.8335 9.12788 24.8268C10.442 24.8135 11.7564 24.8133 13.0707 24.8268C13.7405 24.8337 14.1779 25.2418 14.1965 25.8247C14.2159 26.4295 13.7612 26.8704 13.0683 26.8869C12.4225 26.9023 11.7757 26.8902 11.1294 26.8902Z" fill="#5D7E9D"/>
<path d="M56.579 26.8902C55.9327 26.8902 55.2859 26.9021 54.6399 26.8868C53.9708 26.8709 53.5337 26.4685 53.5162 25.8859C53.4979 25.278 53.9489 24.8342 54.6446 24.8268C55.9587 24.813 57.2731 24.8132 58.5874 24.8268C59.2569 24.8337 59.6941 25.2428 59.712 25.8257C59.7307 26.4307 59.276 26.8709 58.5828 26.8868C57.915 26.9023 57.2469 26.8904 56.579 26.8902Z" fill="#5D7E9D"/>
<path d="M16.9501 15.2908C16.9713 16.2212 16.2458 16.7925 15.5948 16.4539C14.2802 15.7701 12.9976 15.0196 11.7368 14.2402C11.257 13.9435 11.1977 13.4107 11.4904 12.9237C11.7816 12.4392 12.2577 12.2435 12.7659 12.5197C14.0312 13.2071 15.28 13.9273 16.5086 14.6783C16.7486 14.825 16.867 15.1702 16.9501 15.2908Z" fill="#5D7E9D"/>
<path d="M16.9622 36.4258C16.8562 36.5633 16.6998 36.9245 16.4251 37.095C15.2776 37.8071 14.1016 38.4748 12.9213 39.1322C12.3399 39.456 11.7623 39.2914 11.4706 38.78C11.178 38.2671 11.3337 37.6906 11.9034 37.3518C13.0647 36.6613 14.229 35.9742 15.4133 35.3244C16.162 34.9136 16.975 35.402 16.9622 36.4258Z" fill="#5D7E9D"/>
<path d="M51.6239 35.0583C52.0083 35.2171 52.2349 35.2845 52.4354 35.3979C53.5368 36.021 54.6366 36.6476 55.7274 37.2887C56.3751 37.6694 56.5596 38.2601 56.2331 38.8003C55.9169 39.3235 55.3546 39.4461 54.7181 39.0873C53.5781 38.4451 52.4506 37.781 51.318 37.1258C50.8237 36.84 50.5913 36.3843 50.822 35.8803C50.9763 35.5433 51.3641 35.3133 51.6239 35.0583Z" fill="#5D7E9D"/>
<path d="M24.6557 8.06916C24.3921 8.3464 24.1761 8.72294 23.8535 8.87742C23.384 9.10241 22.9059 8.92483 22.6256 8.45863C22.071 7.53642 21.542 6.59868 21.0057 5.66543C20.8236 5.34837 20.6157 5.03975 20.4831 4.70235C20.2831 4.19374 20.4533 3.75703 20.9138 3.47997C21.3468 3.21963 21.8793 3.21739 22.1422 3.63634C22.9754 4.96424 23.7283 6.34265 24.5068 7.70469C24.5463 7.77382 24.5337 7.87279 24.5452 7.95778C24.5821 7.99485 24.6188 8.03192 24.6557 8.06916Z" fill="#5D7E9D"/>
</svg>
