<svg width="78" height="60" viewBox="0 0 78 60" fill="none" xmlns="http://www.w3.org/2000/svg">
<path d="M21.1143 45.6386C29.6441 50.3024 38.2812 55.0429 46.765 59.722C47.4093 60.0748 47.9156 60.0902 48.5446 59.7373C52.3032 57.6662 56.0619 55.5951 59.8205 53.5394C64.5149 50.9621 69.3628 48.2927 74.1186 45.6693C74.3794 45.5159 74.6249 45.2704 74.8704 44.9943C74.9624 44.9022 75.0391 44.8102 75.1312 44.7181V37.3696C75.1005 37.3236 75.0698 37.2776 75.0391 37.2162C74.5942 36.4798 74.0879 36.5259 73.7504 36.6179C73.2749 36.7406 72.9987 37.1549 72.9834 37.7378C72.9834 38.3975 72.9834 39.0572 72.9834 39.7169C72.9834 40.8061 72.9834 41.926 72.9527 43.0306C72.9373 43.4908 72.6305 44.0278 72.247 44.2426C65.4047 48.0319 58.4244 51.8519 51.6742 55.5645L49.8946 56.5463C49.7873 56.6077 49.6799 56.6537 49.5725 56.6997C49.5111 56.7304 49.4497 56.7458 49.373 56.7918L48.7287 57.0679V50.9314C48.7287 44.6261 48.7287 38.106 48.7134 31.6933C48.7134 30.9416 48.9742 30.4967 49.6185 30.1592C50.9992 29.4228 52.3953 28.6558 53.7453 27.9194C54.3436 27.5972 54.942 27.2597 55.5249 26.9375C55.6937 26.8455 55.8624 26.7688 56.0619 26.6767C56.1539 26.6307 56.2766 26.5847 56.384 26.5233L57.0437 26.2011V28.3182C57.0437 29.4535 57.0437 30.5427 57.0437 31.632C57.0437 31.8007 57.0437 31.9848 57.0437 32.1536C57.0437 32.5678 57.0284 32.9667 57.0591 33.3502C57.0897 33.7798 57.3045 34.1326 57.6113 34.3014C57.9182 34.4701 58.2864 34.4548 58.6546 34.2707C60.2347 33.4422 61.8302 32.5525 63.3797 31.6933L64.2848 31.1871C64.6837 30.9723 64.8525 30.6194 64.8371 30.0518C64.8218 27.1216 64.8218 24.8818 64.8525 22.7647C64.8525 22.4118 65.0059 21.7982 65.4354 21.5527C67.169 20.5709 68.9026 19.6197 70.7435 18.6072C71.2498 18.331 71.7561 18.0549 72.2777 17.7634L72.9527 17.3952V24.8358C72.9527 26.0631 73.3055 26.2932 73.6584 26.4159C74.0266 26.5386 74.4101 26.5847 75.1005 25.7716V15.186C75.0391 15.1247 74.9624 15.048 74.901 14.9866C74.6863 14.7718 74.4868 14.5724 74.272 14.4497C69.4549 11.7649 64.5149 9.04951 59.7284 6.42614C55.9852 4.35506 52.2265 2.29932 48.4832 0.228238C47.9156 -0.0785893 47.44 -0.0785893 46.8417 0.243579C39.125 4.49313 30.6719 9.14156 20.9916 14.4497C20.4239 14.7718 20.1938 15.14 20.2091 15.7537C20.2245 16.4134 20.2245 17.0577 20.2245 17.7481C20.2245 18.0395 20.2245 18.3464 20.2245 18.6532V19.1134H3.74788C3.59447 19.1134 3.42571 19.1134 3.25696 19.1134C2.8274 19.1134 2.41318 19.0981 1.99897 19.1288C1.43134 19.1595 1.03246 19.5583 1.00178 20.1106C0.971097 20.7089 1.33929 21.1538 1.9376 21.2459C2.09102 21.2612 2.27511 21.2612 2.45921 21.2612C2.52057 21.2612 2.58194 21.2612 2.6433 21.2612C7.18434 21.2612 11.7254 21.2612 16.2664 21.2612H20.1478V27.7046H19.6875C18.9665 27.7046 18.2608 27.7046 17.5551 27.7046C15.392 27.7046 13.3516 27.7046 11.2651 27.7199C10.8969 27.7199 10.4827 27.858 10.1912 28.0574C9.77703 28.3489 9.86908 28.8552 9.96112 29.1313C10.1299 29.6223 10.4981 29.8524 11.0657 29.8524C12.968 29.8524 14.855 29.8524 16.7573 29.8524H20.1478V38.7504H17.4477C14.1033 38.7504 10.8049 38.7504 7.50651 38.7504C7.4298 38.7504 7.38378 38.7504 7.30707 38.7504C7.09229 38.7504 6.89286 38.7504 6.70876 38.7657C6.21784 38.8271 5.8343 39.2413 5.78828 39.7322C5.74226 40.2231 6.03374 40.6527 6.47864 40.7908C6.73944 40.8675 7.04627 40.8828 7.32241 40.8828C10.3753 40.8828 13.4436 40.8828 16.4965 40.8828H18.9051H20.2091V41.343C20.2091 41.6499 20.2091 41.9414 20.2091 42.2328C20.2091 42.8772 20.2245 43.4755 20.1938 44.0891C20.1631 44.8255 20.4239 45.2551 21.1143 45.6386ZM62.7047 28.8859C62.7047 29.2387 62.4592 29.6683 62.137 29.8677C61.6461 30.1745 61.1552 30.4353 60.5722 30.7422C60.3574 30.8649 60.1273 30.9876 59.8819 31.1104L59.2068 31.4786V29.8984C59.2068 29.5455 59.2068 29.1774 59.2068 28.8245C59.2068 27.7966 59.1915 26.7381 59.2375 25.6795C59.2529 25.2807 59.529 24.7897 59.8972 24.5596C60.3574 24.2528 60.8484 23.992 61.37 23.7158C61.5847 23.6084 61.8149 23.4857 62.045 23.3476L62.72 22.9795V23.7619C62.72 24.1914 62.72 24.621 62.72 25.0352C62.72 26.3699 62.7354 27.6279 62.7047 28.8859ZM40.4444 6.2267C40.9506 5.95056 41.4416 5.67441 41.9325 5.41361C43.7428 4.41642 45.4457 3.4806 47.1946 2.54478C47.6395 2.29932 48.2685 2.5908 48.5293 2.72888C55.0033 6.27273 61.5694 9.87794 67.9361 13.3758L70.0225 14.5264C70.2526 14.6491 70.4674 14.7718 70.7129 14.9099L71.8021 15.5389L71.081 15.9378C70.5901 16.2139 70.0839 16.4747 69.6083 16.7509C67.8133 17.7481 66.1105 18.6839 64.3462 19.6044C64.2235 19.6657 64.0854 19.6964 63.9473 19.6964C63.5638 19.6964 63.1649 19.497 63.0268 19.4203C57.5193 16.4134 51.9044 13.3297 46.4889 10.3535L44.4178 9.21827C43.5433 8.74268 42.6535 8.25176 41.7484 7.7455L39.7233 6.62558L40.4444 6.2267ZM34.7834 9.341C35.0135 9.21827 35.2283 9.09553 35.4278 8.9728C35.98 8.66598 36.4863 8.37449 37.0386 8.11369C37.4988 7.91425 38.0972 8.1904 38.2659 8.29778C43.4973 11.1513 48.8054 14.0661 53.9294 16.8889L56.2613 18.1623C57.3045 18.7299 58.3324 19.2975 59.3909 19.8805L61.3086 20.9391L60.9097 21.3686C60.8637 21.4146 60.833 21.4453 60.8177 21.476C60.7717 21.5374 60.7103 21.5987 60.6336 21.6448C59.483 22.3505 58.8693 22.688 58.2403 22.688C57.6267 22.688 57.013 22.3658 55.8624 21.7368L47.1639 16.9656C43.2979 14.8485 39.4472 12.7314 35.5812 10.599C35.4124 10.5069 35.259 10.4149 35.0749 10.2922C34.9829 10.2308 34.8908 10.1694 34.7681 10.1081L34.0777 9.69385L34.7834 9.341ZM24.2593 15.1093C24.7962 14.8179 25.3178 14.5264 25.8394 14.2502C27.6957 13.2224 29.4446 12.2712 31.2396 11.32C31.7765 11.0285 32.5436 11.4428 32.6356 11.4888C38.7415 14.8179 44.9394 18.2236 50.9225 21.522L53.1623 22.7493C53.5919 22.9948 54.0368 23.2249 54.497 23.4857L55.9085 24.2681L55.1721 24.667C54.6505 24.9431 54.1442 25.2346 53.6379 25.5108C51.7509 26.554 49.9714 27.5358 48.1457 28.487C48.023 28.5484 47.8849 28.579 47.7469 28.579C47.3633 28.579 46.9645 28.3796 46.8264 28.3029C41.3649 25.3113 35.8113 22.2738 30.4572 19.3282L27.9105 17.9321C27.0821 17.4719 26.2383 17.0117 25.3792 16.5361L23.5229 15.5236L24.2593 15.1093ZM22.3569 24.2068V18.7606C22.3569 18.6379 22.3723 18.5151 22.3723 18.377C22.3723 18.3157 22.3876 18.239 22.3876 18.1469L22.4183 17.4566L23.0473 17.7634C23.1393 17.8094 23.216 17.8401 23.2928 17.8861C23.4462 17.9628 23.5842 18.0242 23.7223 18.1009C25.4252 19.0367 27.1281 19.9725 28.8156 20.893C34.3078 23.9153 39.9995 27.0296 45.5991 30.0825C46.3048 30.466 46.5963 30.957 46.5963 31.7854C46.5809 38.06 46.5809 44.4267 46.5809 50.5939V57.16L43.6967 55.5798C42.1012 54.7053 40.5518 53.8462 38.9869 53.0025L36.5017 51.6371C32.1294 49.2285 27.6037 46.7432 23.1393 44.3193C22.7251 44.0891 22.3109 43.767 22.3109 42.9846C22.3569 36.7253 22.3569 30.3586 22.3569 24.2068Z" fill="#5D7E9D"/>
<path d="M4.32654 39.7629C4.29586 39.2106 3.89699 38.8117 3.3447 38.7811C3.08389 38.7657 2.83843 38.7657 2.56229 38.7811C2.24012 38.7811 1.91795 38.7964 1.58044 38.7657C0.828716 38.7044 0.353135 38.9345 0.015625 39.5174V40.1158C0.107673 40.1925 0.18438 40.2845 0.276428 40.3612C0.521889 40.5913 0.767351 40.8368 0.98213 40.8828C1.76454 41.0362 2.65434 40.9749 3.43674 40.9135C3.97369 40.8215 4.35723 40.3612 4.32654 39.7629Z" fill="#5D7E9D"/>
<path d="M77.4128 32.1229C77.4895 32.0309 77.5509 31.9542 77.6276 31.8621V31.2331C77.6122 31.2178 77.6122 31.2024 77.5969 31.1871C77.5355 31.095 77.4895 31.003 77.4282 30.9109C77.2441 30.6501 76.9526 30.4814 76.6457 30.4354C76.5997 30.4354 76.569 30.4354 76.523 30.4354C76.2776 30.4354 76.0321 30.5274 75.848 30.6962C75.6179 30.8956 75.4798 31.1718 75.4798 31.4632C75.4645 31.7547 75.5872 32.0309 75.802 32.2456C76.0168 32.4604 76.2929 32.5678 76.5844 32.5525C76.9065 32.5371 77.198 32.3837 77.4128 32.1229Z" fill="#5D7E9D"/>
<path d="M7.3186 27.7199C7.30326 27.7199 7.30326 27.7199 7.3186 27.7199C6.72029 27.7199 6.27539 28.1802 6.27539 28.7785C6.27539 29.3768 6.72029 29.8524 7.30326 29.8677C7.5794 29.8677 7.85555 29.7603 8.07033 29.5455C8.28511 29.3308 8.40784 29.0546 8.3925 28.7785C8.37715 28.1955 7.88623 27.7199 7.3186 27.7199Z" fill="#5D7E9D"/>
</svg>
