<svg width="62" height="60" viewBox="0 0 62 60" fill="none" xmlns="http://www.w3.org/2000/svg">
<path d="M24.9843 56.9946C22.5352 58.1442 20.1195 58.4774 16.9207 57.0113C16.7874 57.1612 16.6541 57.3111 16.5042 57.4611C13.372 60.8764 8.30731 60.8598 5.30845 57.3278C2.77609 54.3623 2.35958 50.9636 3.67575 47.3316C3.75905 47.115 3.84235 46.9151 3.89233 46.7818C3.17594 46.282 2.42622 45.8822 1.84311 45.3324C0.46031 44.0329 -0.139461 42.4168 0.0271422 40.5009C0.360348 36.3858 1.87643 32.8372 5.00857 30.0882C6.02485 29.2052 7.17441 28.4888 8.30731 27.6558C8.30731 27.6558 8.27399 27.5725 8.20734 27.4892C5.02523 23.3741 4.30884 18.7759 5.5417 13.7945C5.65832 13.3613 5.59168 13.1447 5.19183 12.8948C2.70945 11.3287 1.52657 8.49649 2.09302 5.5976C2.60949 2.91529 4.87529 0.666155 7.57425 0.149686C10.4731 -0.400104 13.3387 0.832757 14.8715 3.3318C15.1214 3.74831 15.3379 3.81495 15.8044 3.69833C19.2365 2.78201 22.6685 2.78201 26.1005 3.69833C26.5337 3.81495 26.7336 3.76497 26.9835 3.34846C28.6495 0.616174 31.9149 -0.616688 34.9471 0.299628C37.9793 1.21594 40.0618 4.06485 39.9285 7.23031C39.8119 9.76267 38.6457 11.7119 36.4799 13.0447C36.4132 13.0947 36.3466 13.1447 36.2466 13.2114C37.6794 18.4593 36.963 23.3241 33.5976 27.6558C34.5639 28.3389 35.5635 28.9387 36.4632 29.6717C37.3462 30.3881 38.1292 31.2211 38.9622 32.0042C38.9622 30.9879 39.0622 29.9383 38.9456 28.8887C38.6957 26.6562 39.3621 24.8069 40.7616 23.0409C42.6108 20.6918 44.2269 18.1595 45.9596 15.7104C46.6426 14.7441 47.3257 14.7441 48.0088 15.7271C50.2079 18.8592 52.4071 21.9913 54.5896 25.1401C54.8228 25.4733 54.9561 25.9398 54.9728 26.3397C55.0061 30.2881 54.9894 34.2533 54.9894 38.2018C54.9894 38.435 54.9894 38.6516 54.9894 38.9682C55.2393 38.9682 55.4559 38.9682 55.6725 38.9682C57.3552 38.9682 59.0379 38.9682 60.7372 38.9682C61.6369 38.9682 61.9868 39.318 61.9868 40.2177C61.9868 44.6993 61.9868 49.1643 61.9868 53.6459C61.9868 54.6288 61.6536 54.962 60.6706 54.962C53.39 54.962 46.0928 54.962 38.8123 54.9454C38.3291 54.9454 38.0959 55.0953 37.8627 55.5118C36.3466 58.2941 34.0641 59.9601 30.7987 59.9268C28.6662 59.9101 26.9168 58.9605 25.4674 57.4278C25.2675 57.3445 25.1342 57.1779 24.9843 56.9946ZM21.219 31.0212C21.6022 30.9879 22.2353 30.9546 22.8851 30.9046C29.5825 30.2715 34.3473 25.7399 34.8971 19.1757C35.347 13.7778 32.7646 8.37987 27.0668 6.13073C24.4511 5.09779 21.7522 4.84789 18.9699 5.13111C12.2058 5.79752 7.62423 10.3458 7.04112 16.5101C6.60796 21.0583 7.92412 25.0068 11.5227 27.9724C14.2384 30.2215 17.4871 30.9712 21.219 31.0212ZM29.949 42.0503C29.8657 41.3339 29.8157 40.6508 29.6991 39.9844C29.2493 37.2855 28.2663 34.8197 26.4504 32.7372C26.2005 32.454 25.9839 32.3707 25.6007 32.454C22.5185 33.2037 19.4197 33.2037 16.3376 32.4706C15.9044 32.3707 15.6878 32.4706 15.4379 32.7705C13.9218 34.5032 12.9722 36.5191 12.4724 38.7516C12.2225 39.8345 12.1059 40.9507 11.9226 42.0503C15.0047 42.6667 17.004 44.4327 18.1702 47.1484C19.3198 49.8473 19.2031 52.5796 18.0369 55.2286C19.7529 56.2449 22.4852 56.2282 23.8347 55.2119C21.269 49.5808 24.4011 43.0499 29.949 42.0503ZM16.954 51.1635C16.9373 49.6474 16.6375 48.3479 15.9544 47.1484C14.0218 43.7163 9.94001 42.9666 7.19107 45.5656C4.17555 48.4145 4.22554 53.7458 7.29103 56.5281C9.44021 58.4774 12.4391 58.494 14.5882 56.5448C16.2209 55.0787 16.8874 53.1794 16.954 51.1635ZM24.9509 50.647C24.9509 52.8129 25.5507 54.5122 26.617 55.8284C28.7661 58.4774 32.3148 58.7439 34.7472 56.4115C37.7627 53.5293 37.6627 48.1646 34.5306 45.399C32.5813 43.683 29.899 43.5164 27.8165 45.0658C25.8173 46.5319 25.0176 48.6145 24.9509 50.647ZM13.5386 31.6543C12.5224 31.0045 11.3895 30.3048 10.3065 29.5384C9.97333 29.3052 9.75675 29.2386 9.37356 29.4385C4.84197 31.8376 2.3929 35.5695 1.99306 40.6842C1.85977 42.4335 2.82607 44.0329 4.45878 44.6993C4.87529 44.8659 5.14185 44.8326 5.47506 44.4661C6.54132 43.2665 7.87414 42.4835 9.45687 42.1503C9.85671 42.067 10.0067 41.9337 10.0233 41.5172C10.1566 39.4846 10.5398 37.5021 11.3728 35.6528C12.0059 34.2866 12.8222 32.9705 13.5386 31.6543ZM28.2663 31.7376C28.6162 32.2541 29.0494 32.8205 29.4159 33.4203C30.9153 35.886 31.665 38.6016 31.8816 41.4505C31.9149 41.867 31.9982 42.0836 32.498 42.1836C33.8975 42.4502 35.0971 43.1499 36.13 44.1328C36.9797 44.9492 37.2129 44.9825 38.1959 44.2661C38.5291 44.0329 38.829 43.733 39.0955 43.4165C39.8619 42.4668 39.9785 41.3672 39.8452 40.1844C39.2954 35.2029 36.7631 31.621 32.3148 29.3718C32.1648 29.3052 31.9149 29.3219 31.765 29.4052C30.6154 30.1715 29.4659 30.9546 28.2663 31.7376ZM59.9042 41.0507C55.8891 41.0507 51.9239 41.0507 47.9921 41.0507C47.9921 45.0492 47.9921 49.0143 47.9921 52.9628C51.9906 52.9628 55.9391 52.9628 59.9042 52.9628C59.9042 48.981 59.9042 45.0325 59.9042 41.0507ZM52.8902 39.0015C52.8902 34.953 52.8902 31.0045 52.8902 27.0561C48.8918 27.0561 44.9266 27.0561 40.9448 27.0561C40.9448 29.3885 41.0281 31.6876 40.9115 33.9701C40.8115 35.7194 41.4113 37.3188 41.7278 39.0015C41.9111 39.0015 42.0777 39.0015 42.2443 39.0015C45.7763 39.0015 49.3083 39.0015 52.8902 39.0015ZM13.1721 4.41472C12.3558 2.83199 10.2566 1.76573 8.30731 2.04896C6.05817 2.38216 4.4088 3.98155 4.00895 6.23069C3.65909 8.17994 4.67536 10.3458 6.25809 11.1955C7.27437 9.91261 8.15736 8.52981 9.29026 7.41357C10.4398 6.28067 11.8393 5.431 13.1721 4.41472ZM28.6162 4.59798C31.665 6.04743 33.9475 8.27991 35.4469 11.2954C37.3295 10.2125 38.2458 8.1133 37.8127 5.98079C37.3962 3.89825 35.5969 2.2822 33.4477 2.0323C31.4818 1.83237 29.3992 2.93195 28.6162 4.59798ZM38.7956 52.9628C41.1947 52.9628 43.5605 52.9628 45.8929 52.9628C45.8929 48.9643 45.8929 44.9992 45.8929 41.034C44.5601 41.034 43.2606 41.034 41.9944 41.034C41.8778 41.6838 41.7778 42.3169 41.6612 42.9999C41.8944 42.9999 42.111 42.9999 42.3443 42.9999C43.7437 42.9999 43.9603 43.2165 43.9603 44.6327C43.9603 46.2487 43.9603 47.8814 43.9603 49.4975C43.9603 50.697 43.6771 50.9802 42.5109 50.9802C41.6612 50.9802 40.8115 50.9802 39.9452 50.9802C39.6286 50.9802 39.2954 50.9802 38.9956 50.9802C38.9123 51.7133 38.8456 52.3297 38.7956 52.9628ZM52.0239 25.0068C50.2912 22.5411 48.6585 20.192 46.9425 17.7596C45.2265 20.2087 43.5771 22.5578 41.8611 25.0068C45.1099 25.0068 48.2087 25.0068 51.3075 25.0068C51.4908 25.0068 51.674 25.0068 52.0239 25.0068ZM38.779 48.9643C39.8286 48.9643 40.8449 48.9643 41.8945 48.9643C41.8945 47.6315 41.8945 46.332 41.8945 44.9492C41.328 44.9992 40.7282 44.9159 40.2951 45.1491C39.4954 45.599 38.7956 46.2154 38.0293 46.7818C38.2625 47.4316 38.5124 48.1813 38.779 48.9643Z" fill="#5D7E9D"/>
<path d="M21.9521 25.8732C24.4012 25.9065 26.7336 23.8906 26.9502 21.5582C27.0168 20.9084 27.4 20.5086 27.9665 20.5252C28.5496 20.5419 28.9661 20.9917 28.9494 21.6581C28.8828 23.4574 28.0498 24.8736 26.7003 26.0231C23.0517 29.1219 16.7874 28.5222 14.0551 24.8069C13.3554 23.8406 12.9389 22.7744 12.9556 21.5582C12.9556 20.9584 13.3554 20.5419 13.9052 20.5252C14.4217 20.5086 14.8882 20.8751 14.9215 21.4249C15.0881 23.9572 16.7874 25.0735 18.9366 25.7565C19.2365 25.8565 19.5364 25.8732 19.9362 25.9565C19.9362 24.9235 19.9529 23.9572 19.9196 22.9909C19.9196 22.8743 19.7696 22.7244 19.6363 22.6244C19.0699 22.2079 18.4868 21.8081 17.9203 21.3915C17.054 20.7418 16.7208 19.6755 17.054 18.6759C17.3872 17.643 18.2369 17.0599 19.3864 17.0432C20.4194 17.0432 21.469 17.0432 22.5019 17.0432C23.5848 17.0432 24.4178 17.6263 24.7677 18.576C25.1342 19.5756 24.851 20.6585 24.0013 21.3249C23.4349 21.7747 22.8185 22.1746 22.2353 22.6078C22.1021 22.7077 21.9521 22.8743 21.9355 23.0243C21.9355 23.9572 21.9521 24.9069 21.9521 25.8732ZM20.9858 19.0091C20.486 19.0091 19.9862 18.9925 19.4864 19.0258C19.3031 19.0424 19.0032 19.1757 19.0032 19.259C18.9866 19.4423 19.0865 19.7089 19.2365 19.8255C19.6863 20.192 20.1695 20.5252 20.6526 20.8418C20.7692 20.9251 21.0025 20.975 21.0858 20.9251C21.6522 20.5585 22.2187 20.1587 22.7518 19.7255C22.8518 19.6422 22.9018 19.3757 22.8684 19.2257C22.8351 19.1258 22.6185 19.0091 22.4852 19.0091C21.9854 18.9925 21.4856 19.0091 20.9858 19.0091Z" fill="#5D7E9D"/>
<path d="M15.9381 15.977C15.9548 16.5101 15.5049 16.9766 14.9718 16.9933C14.422 17.0099 13.9722 16.5767 13.9555 16.027C13.9389 15.4772 14.372 15.0273 14.9218 15.0107C15.455 15.0107 15.9215 15.4438 15.9381 15.977Z" fill="#5D7E9D"/>
<path d="M26.916 17.0099C26.3662 16.9932 25.933 16.5434 25.9497 15.9936C25.9663 15.4438 26.4162 15.0107 26.966 15.0273C27.4991 15.044 27.9489 15.5105 27.9489 16.0436C27.9156 16.5767 27.4491 17.0266 26.916 17.0099Z" fill="#5D7E9D"/>
<path d="M53.8908 50.9969C52.9745 50.9969 52.0582 51.0135 51.1419 50.9969C50.1423 50.9802 49.6924 50.2971 50.1256 49.4142C51.0752 47.4982 52.0082 45.5656 53.0245 43.683C53.1911 43.3831 53.6409 43.0666 53.9741 43.0666C54.274 43.0499 54.7072 43.3831 54.8738 43.683C55.8901 45.5989 56.8397 47.5315 57.7893 49.4808C58.1892 50.3138 57.756 50.9969 56.823 51.0135C55.8401 51.0135 54.8571 50.9969 53.8908 50.9969ZM55.2903 48.931C54.8571 48.048 54.424 47.1983 53.9408 46.232C53.4577 47.215 53.0245 48.0813 52.5747 48.9976C53.491 48.9976 54.274 48.9976 55.0571 48.9976C55.107 48.9976 55.157 48.9643 55.2903 48.931Z" fill="#5D7E9D"/>
<path d="M46.9595 29.0053C49.1587 29.022 50.9413 30.8379 50.9247 33.0538C50.908 35.2363 49.1087 37.0189 46.9262 37.0022C44.7104 37.0022 42.9277 35.2029 42.9277 32.9871C42.9444 30.788 44.7604 29.0053 46.9595 29.0053ZM46.9429 31.0045C45.8599 31.0045 44.9603 31.9042 44.9436 32.9871C44.9436 34.0867 45.8266 34.9864 46.9095 35.003C48.0258 35.0197 48.9421 34.1034 48.9254 32.9871C48.9254 31.9042 48.0258 31.0212 46.9429 31.0045Z" fill="#5D7E9D"/>
</svg>
