<svg width="69" height="60" viewBox="0 0 69 60" fill="none" xmlns="http://www.w3.org/2000/svg">
<path d="M68.1155 35.4301C68.2709 34.6358 68.3745 33.7898 68.4954 32.9783C68.5472 32.5984 68.599 32.2358 68.6508 31.8559V28.1437L68.6335 28.0228C68.599 27.8674 68.5644 27.6948 68.5472 27.5221C68.4954 27.125 68.4436 26.7279 68.3918 26.3307C68.2882 25.5365 68.2019 24.725 68.0292 23.9653C66.3371 16.0573 62.1414 9.75509 55.5457 5.23132C48.8636 0.673022 41.3355 -0.932743 33.1513 0.517625C28.1613 1.39821 23.603 3.52196 19.58 6.85435C15.2979 10.4112 12.2073 14.8314 10.377 19.9767C10.0662 20.8746 9.80725 21.7897 9.53099 22.7566C9.39286 23.2228 9.272 23.689 9.13387 24.1552L8.66768 25.7264L2.36548 17.853L0 19.7523L1.00145 20.9954C3.55686 24.1897 6.11227 27.4012 8.68495 30.5955C9.51373 31.6315 10.049 31.7523 11.2404 31.148C15.4706 29.0415 19.6836 26.9178 23.9138 24.8113L24.2937 24.6214L22.9469 21.9278L11.8619 27.453L12.0864 25.83C12.9152 19.9077 15.885 14.3307 20.4778 10.1177C25.3469 5.62845 31.7009 3.12484 38.3657 3.05577C45.0823 3.00397 51.5399 5.40399 56.5471 9.84142C61.6061 14.3307 64.7831 20.5638 65.491 27.3667C66.1644 33.9279 64.6105 39.9538 60.8637 45.2719C55.7529 52.5237 48.5873 56.4777 39.5571 56.9957V60C44.3226 59.8791 48.7427 58.6878 52.7313 56.4949C61.0881 51.8503 66.268 44.7711 68.1155 35.4301Z" fill="#5D7E9D"/>
</svg>
