<svg width="42" height="60" viewBox="0 0 42 60" fill="none" xmlns="http://www.w3.org/2000/svg">
<path d="M24.1562 60C23.5469 59.8594 22.9375 59.75 22.3438 59.5938C17.4375 58.2188 14.0781 53.8594 13.9844 48.75C13.9688 47.8594 13.9844 46.9688 13.9844 46C13.6875 46 13.4531 46 13.2344 46C10.5625 46 7.89062 46.0156 5.20312 46C2.53125 45.9844 0.53125 44.3594 0.078125 41.8594C0 41.4375 0 41 0 40.5781C0 28.8906 0 17.1875 0 5.5C0 2.54688 1.29687 0.859375 4.14062 0.078125C4.17187 0.0625 4.20313 0.03125 4.23438 0C11.3906 0 18.5313 0 25.6875 0C26.0156 0.09375 26.3594 0.1875 26.6875 0.296875C28.7031 1.01562 30 2.875 30 5.125C30.0156 8.10938 30 11.0938 30.0156 14.0781C30.0156 14.4062 30.1562 14.8125 30.3594 15.0781C33.375 18.8906 36.4219 22.6719 39.4531 26.4688C41.1406 28.5781 41.9844 30.9531 41.9844 33.6562C41.9687 41.9844 41.9687 50.3281 41.9844 58.6562C41.9844 59.2656 41.8281 59.7188 41.25 59.9844C35.5625 60 29.8594 60 24.1562 60ZM32.1719 38.7656C32.0781 38.5938 32 38.4219 31.875 38.2969C28.9063 35.1406 25.9375 31.9844 22.9688 28.8281C21.5938 27.3594 20.2188 25.8906 18.8281 24.4375C18.0938 23.6719 17.1875 23.4062 16.1563 23.7031C15.2031 23.9844 14.5938 24.6562 14.3594 25.6094C14.125 26.5781 14.4531 27.3906 15.0938 28.1406C17.9219 31.4531 20.7344 34.7812 23.5312 38.125C23.7969 38.4375 23.9531 38.9219 23.9844 39.3281C24.0469 40.3125 23.9844 41.3125 24.0156 42.3125C24.1094 47.0312 26.2813 50.4844 30.4531 52.6719C30.7344 52.8281 31.0312 52.9531 31.3437 53.0938C31.1094 53.7188 30.8906 54.2969 30.6719 54.875C30.5625 54.8594 30.5 54.8594 30.4375 54.8438C30.2969 54.7969 30.1406 54.7344 30 54.6719C26.375 53.0156 23.9219 50.2969 22.6562 46.5312C22.5156 46.1406 22.3594 45.9844 21.9219 45.9844C20.1406 46.0156 18.375 46 16.5938 46C16.4062 46 16.2188 46.0312 15.9219 46.0469C16 47.4844 15.9219 48.8906 16.1719 50.2344C17 54.8594 20.8125 57.9844 25.5156 58C30.1406 58.0156 34.7656 58 39.4062 58C39.5938 58 39.7812 57.9844 39.9844 57.9688C40 57.7812 40 57.6406 40 57.5156C40 49.5312 40 41.5469 40 33.5469C40 31.3594 39.2812 29.4219 37.9062 27.7188C36.0625 25.4219 34.2188 23.1094 32.375 20.8125C31.625 19.875 30.875 18.9375 30 17.8594C30 18.25 30 18.4531 30 18.6562C30 22.5938 30 26.5469 30 30.4844C30 31.4375 29.7812 32.4844 30.1094 33.3281C30.4219 34.1406 31.3125 34.7344 31.9531 35.4219C32.5313 36.0469 33.1094 36.6719 33.7188 37.3125C33.2031 37.7969 32.75 38.2188 32.1719 38.7656ZM16.9688 2C16.7344 2 16.5313 2 16.3438 2C12.6719 2 9 2 5.32813 2C3.20313 2 2 3.20313 2 5.34375C2 17.125 2 28.8906 2 40.6719C2 42.8125 3.1875 44 5.32813 44.0156C9 44.0156 12.6719 44.0156 16.3438 44.0156C16.5469 44.0156 16.75 44 16.9375 43.9844C16.9688 43.875 16.9844 43.8438 16.9844 43.8125C16.9844 40.4688 17 37.1406 16.9844 33.7969C16.9844 33.5938 16.8594 33.3438 16.7188 33.1875C15.5781 31.7969 14.375 30.4688 13.2656 29.0625C11.6875 27.0625 12.0312 24.2969 13.9844 22.6562C14.8438 21.9375 15.8594 21.6406 16.9688 21.5781C16.9688 15.0313 16.9688 8.5625 16.9688 2ZM24.0469 1.90625C24.0156 2.17188 24 2.26562 24 2.35938C24 10.4375 24 18.5156 24.0156 26.5938C24.0156 26.8281 24.1562 27.125 24.3125 27.2969C25.3906 28.4844 26.5 29.6406 27.5938 30.7969C27.6875 30.9062 27.8125 30.9844 28 31.1406C28 30.9062 28 30.7656 28 30.6406C28 22.1719 28 13.7031 28 5.23438C28 3.78125 27.3281 2.65625 26.0938 2.23438C25.4688 2.03125 24.7656 2.01562 24.0469 1.90625ZM18.9844 2.03125C18.9844 2.29688 18.9844 2.5 18.9844 2.71875C18.9844 4.92188 18.9844 7.125 18.9844 9.32812C18.9844 13.4062 18.9844 17.4844 19 21.5625C19 21.7812 19.0938 22.0469 19.2344 22.2031C19.7812 22.75 20.3906 23.25 20.9531 23.7812C21.2656 24.0781 21.5625 24.4219 21.9531 24.8281C21.9531 17.1406 21.9531 9.60938 21.9531 2.03125C20.9688 2.03125 20.0156 2.03125 18.9844 2.03125ZM19.0312 35.875C19.0312 38.6406 19.0312 41.2969 19.0312 43.9375C20.0625 43.9375 21.0312 43.9375 21.9844 43.9375C21.9844 42.4844 21.9844 41.0781 21.9844 39.6719C21.9844 39.5312 21.9531 39.3438 21.875 39.2344C20.9531 38.1406 20.0156 37.0469 19.0312 35.875Z" fill="#5D7E9D"/>
<path d="M9.03125 33.0156C9.96875 33.0156 10.9063 33 11.8438 33.0156C12.625 33.0312 13 33.3906 13 34.1562C13.0156 36.0469 13.0156 37.9375 13 39.8281C13 40.625 12.6094 41 11.7969 41C9.92188 41 8.04688 41.0156 6.1875 41C5.375 41 5.01562 40.625 5 39.8125C4.98438 37.9375 4.98438 36.0625 5 34.2031C5 33.3437 5.35938 33.0156 6.23438 33.0156C7.15625 33 8.09375 33.0156 9.03125 33.0156ZM7.03125 38.9687C8.35938 38.9687 9.65625 38.9687 10.9531 38.9687C10.9531 37.6406 10.9531 36.3437 10.9531 35.0625C9.60938 35.0625 8.32812 35.0625 7.03125 35.0625C7.03125 36.3906 7.03125 37.6562 7.03125 38.9687Z" fill="#5D7E9D"/>
<path d="M5.03125 5.04688C5.6875 5.04688 6.29687 5.04688 6.95312 5.04688C6.95312 9.35938 6.95312 13.6562 6.95312 17.9688C6.3125 17.9688 5.6875 17.9688 5.03125 17.9688C5.03125 13.6719 5.03125 9.39062 5.03125 5.04688Z" fill="#5D7E9D"/>
<path d="M11.9375 12.9844C11.2813 12.9844 10.6719 12.9844 10.0312 12.9844C10.0312 10.3438 10.0312 7.73438 10.0312 5.04688C10.6562 5.04688 11.2813 5.04688 11.9375 5.04688C11.9375 7.6875 11.9375 10.3125 11.9375 12.9844Z" fill="#5D7E9D"/>
</svg>
