<svg width="52" height="60" viewBox="0 0 52 60" fill="none" xmlns="http://www.w3.org/2000/svg">
<path d="M50.7102 58.096C51.2702 57.2 51.4302 56.112 51.1422 55.04C48.6622 45.632 42.9662 39.264 34.1822 36.08L33.9742 36C33.8782 35.968 33.7662 35.936 33.6702 35.888C33.5262 35.84 33.3342 35.728 33.2382 35.44L32.9822 34.912L33.4462 34.544C33.4942 34.512 33.5422 34.464 33.6062 34.432C33.7022 34.368 33.7982 34.304 33.8782 34.24C34.1342 34.032 34.3902 33.824 34.6302 33.632C35.2062 33.184 35.7502 32.752 36.1662 32.24C36.9342 31.312 37.8142 30.944 39.1102 30.992C40.7422 31.056 42.1822 31.04 43.5262 30.944C45.9262 30.768 47.8622 28.736 47.9262 26.32C47.9902 23.824 47.9902 21.136 47.9102 18.08C47.8942 17.456 47.6382 16.752 47.4302 16.208C47.0942 15.376 46.6782 14.528 46.2942 13.712C46.1662 13.456 46.0382 13.2 45.9262 12.944C42.3742 5.584 36.4222 1.264 28.2142 0.128C27.9902 0.096 27.7662 0.064 27.5422 0.032L27.2542 0H24.0062C23.7182 0.048 23.4302 0.08 23.1262 0.128C22.4542 0.224 21.8302 0.304 21.2062 0.448C13.3022 2.144 7.75021 6.896 4.71021 14.56C4.55021 14.976 4.35821 15.36 4.15021 15.696C3.62221 16.528 3.35021 17.456 3.35021 18.432V19.184C3.33421 21.408 3.33421 23.712 3.35021 25.968C3.38221 28.96 5.47821 31.008 8.53421 31.04C9.94221 31.056 11.4462 31.056 13.1422 31.04C13.6862 31.04 14.1182 31.216 14.5342 31.632C15.3182 32.4 16.1182 33.152 16.9182 33.888C17.2222 34.16 17.5102 34.448 17.8142 34.72L18.6462 35.488L17.5902 35.904C17.3342 36 17.0622 36.112 16.7902 36.208C16.1982 36.432 15.5742 36.672 14.9662 36.944C7.38221 40.4 2.39021 46.448 0.150209 54.944C-0.137791 56.048 -0.00979118 57.136 0.518209 58.032C1.06221 58.96 2.00621 59.616 3.15821 59.904C3.25421 59.92 3.31821 59.952 3.38221 59.984H47.6862C47.7662 59.952 47.8622 59.92 47.9742 59.888C49.1422 59.68 50.1182 59.04 50.7102 58.096ZM45.7662 18.336C45.7822 20.944 45.7822 23.568 45.7662 26.128C45.7502 27.504 44.7742 28.656 43.5262 28.768C43.0302 28.816 42.5182 28.816 42.0222 28.816C41.6542 28.816 41.2862 28.816 40.9182 28.8C40.5502 28.8 40.1822 28.784 39.7982 28.784H38.7422L39.1262 27.808C40.5822 24.032 40.5822 20.368 39.1102 16.608L38.7262 15.632H39.7822C40.1502 15.632 40.5182 15.632 40.8702 15.616C41.7022 15.6 42.5662 15.584 43.4302 15.648C44.7582 15.776 45.7662 16.928 45.7662 18.336ZM12.1502 27.824L12.4702 28.656L11.6062 28.8C11.5582 28.8 11.5262 28.816 11.4942 28.816C11.3822 28.832 11.2382 28.864 11.0782 28.864C10.8702 28.864 10.6462 28.864 10.4382 28.864C10.1022 28.864 9.78221 28.864 9.43021 28.864C9.04621 28.864 8.66221 28.864 8.27821 28.848C6.66221 28.8 5.52621 27.664 5.51021 26.096C5.47821 23.504 5.47821 20.896 5.51021 18.336C5.52621 16.736 6.69421 15.6 8.35821 15.584C9.06221 15.568 9.76621 15.584 10.5022 15.584C10.8382 15.584 11.1742 15.584 11.5102 15.584H12.5662L12.1822 16.56C10.7102 20.384 10.6942 24.064 12.1502 27.824ZM11.0302 13.44C10.6622 13.44 10.2942 13.44 9.92621 13.44C9.54221 13.44 9.15821 13.44 8.77421 13.44H7.57421L8.15021 12.384C9.39821 10.064 10.9822 8.16 12.9982 6.544C16.3422 3.872 20.2142 2.4 24.5342 2.16C33.6702 1.696 40.5502 7.136 43.0622 12.4L43.5582 13.424H41.4142C40.2302 13.424 38.9982 13.424 37.7822 13.408C37.4462 13.408 37.1262 13.216 36.8222 12.864C33.8142 9.296 29.8782 7.552 25.1262 7.696C20.8222 7.824 17.2542 9.536 14.4862 12.8C14.2622 13.072 13.8142 13.392 13.3342 13.408C12.5822 13.44 11.8142 13.44 11.0302 13.44ZM13.4782 24.752C12.7262 21.2 13.6062 17.504 15.8782 14.608C18.1982 11.664 21.6542 9.92 25.3662 9.808C28.6942 9.712 31.8462 10.976 34.2782 13.376C36.7422 15.808 38.1182 19.136 38.0702 22.496C38.0542 23.296 37.8942 24.064 37.7342 24.8C37.6542 25.152 37.5902 25.488 37.5262 25.824C37.4622 26.24 37.1902 26.912 36.1502 26.912H36.1342C34.2782 26.896 32.2622 26.896 29.7822 26.912C28.6782 26.912 28.5502 27.44 28.4862 27.664C28.3902 28.048 28.4222 28.368 28.6142 28.624C28.8222 28.896 29.1902 29.056 29.6542 29.072C30.5822 29.088 31.5422 29.088 32.4702 29.088C32.8862 29.088 33.3022 29.088 33.7182 29.088H35.8302L34.9182 30.256C33.2382 32.4 31.0142 33.776 28.3262 34.352C27.4622 34.544 26.5822 34.624 25.7182 34.624C23.3182 34.624 20.9662 33.936 18.9022 32.576C16.0702 30.768 14.1502 27.984 13.4782 24.752ZM47.1742 57.808C46.1182 57.824 45.0462 57.824 44.0062 57.824H43.0782C38.8382 57.824 34.5822 57.824 30.3422 57.824H26.2782L25.5582 57.84C23.7342 57.84 21.9102 57.84 20.1022 57.84C15.0302 57.84 9.78221 57.824 4.63021 57.872C4.61421 57.872 4.59821 57.872 4.59821 57.872C3.62221 57.872 2.95021 57.616 2.56621 57.104C2.16621 56.576 2.10221 55.872 2.35821 54.944C4.47021 47.28 9.09421 41.872 16.0862 38.864C25.2062 34.944 35.9262 36.992 42.7902 43.952C45.8302 47.04 47.9422 50.944 49.0462 55.536C49.1902 56.144 49.0942 56.704 48.7582 57.12C48.4062 57.552 47.8462 57.808 47.1742 57.808Z" fill="#5D7E9D"/>
</svg>
