<svg width="58" height="62" viewBox="0 0 58 62" fill="none" xmlns="http://www.w3.org/2000/svg">
<path d="M43.1575 38.1181C44.1496 37.378 45.1732 36.622 46.1024 35.8032C47.5827 34.4961 49.0315 34.0079 50.6693 34.2756C50.748 34.2913 50.8268 34.2756 50.9213 34.2756C50.9528 34.2756 50.9843 34.2756 51.0315 34.2756C54.5118 34.1339 57.252 31.3937 57.2677 28.0551C57.2992 22.0236 57.2992 15.5827 57.2677 7.22047C57.252 4.66929 55.5984 2.33858 53.1417 1.4252C52.811 1.29921 52.4646 1.20472 52.1339 1.12598C51.9764 1.07874 51.8346 1.04724 51.6772 1H48.0236C47.6929 1.29921 47.5984 1.58268 47.7244 1.91339C47.8661 2.29134 48.1654 2.30709 48.685 2.30709C49.3622 2.29134 50.0236 2.30709 50.7638 2.30709C53.7559 2.32283 55.9449 4.49606 55.9921 7.47244C56.0079 8.2126 55.9921 8.95276 55.9921 9.67717C55.9921 10.0079 55.9921 10.3386 55.9921 10.6535V15.5984C55.9921 19.5512 55.9921 23.6299 55.9921 27.6457C55.9921 30.7638 53.8032 32.9528 50.6693 32.9685C50.4961 32.9685 50.3071 32.9685 50.1339 32.9685C49.5512 32.9685 48.9528 32.9843 48.3543 32.9528C47.9134 32.937 47.5669 33.063 47.2047 33.3307C46.0866 34.2126 44.9213 35.0945 43.8189 35.9449C43.4567 36.2283 43.0787 36.5118 42.7165 36.7795C42.6063 36.8583 42.4961 36.937 42.3701 37.0315C42.3071 37.0787 42.2283 37.126 42.1496 37.189L41.7717 37.4567V36.0079C41.7717 35.2992 41.7717 34.6378 41.7717 33.9764C41.7717 33.1102 41.6142 32.9528 40.748 32.9528C39.7874 32.9528 38.811 32.9528 37.8504 32.9528C35.4567 32.9528 32.9685 32.9685 30.5276 32.937C29.9764 32.937 29.4252 32.7953 28.8898 32.6535C28.685 32.6063 28.4961 32.5591 28.2913 32.5118C27.6614 32.3701 27.5827 31.8661 27.5984 31.5039C27.6142 29.5512 27.6142 27.5669 27.6142 25.6299C27.6142 24.5118 27.6142 23.4094 27.6142 22.2913C27.6142 20.5433 26.9685 19.1417 25.6457 18.0236C25.4409 17.8504 25.252 17.5197 25.2362 17.2205V16.5748C25.2205 13.5039 25.2047 10.3071 25.2362 7.18898C25.2677 4.84252 27 2.82677 29.3622 2.38583C29.7402 2.32283 30.1496 2.29134 30.6378 2.29134C34.5906 2.29134 38.5433 2.29134 42.4961 2.29134C42.8425 2.29134 43.126 2.1811 43.252 1.99213C43.3622 1.85039 43.378 1.64567 43.2992 1.44094C43.2677 1.33071 43.1575 1.22047 43.063 1.11024C43.0315 1.07874 43 1.04724 42.9685 1H29.5669C29.5197 1.0315 29.4724 1.06299 29.3937 1.07874C25.8661 1.8189 23.9291 4.2126 23.9134 7.80315C23.9134 9.22047 23.9134 10.622 23.9134 12.0394C23.9134 13.4252 23.9134 14.811 23.9134 16.1969C23.9134 16.3386 23.8976 16.4803 23.8976 16.6378C23.8976 16.7008 23.8819 16.7795 23.8819 16.8425L23.8661 17.0945L23.6142 17.063C23.4724 17.0472 23.3465 17.0315 23.2362 17.0157C23 16.9843 22.7795 16.9528 22.5748 16.9528C21.378 16.9528 20.1654 16.9528 18.9685 16.9528C14.7323 16.9528 10.3543 16.937 6.03937 16.9685C3.62992 16.9843 1.56693 18.7165 1.12598 21.0787C1 21.7717 1 22.4961 1 23.2205C1 23.4567 1 23.6929 1 23.9291C1 24.1811 1.04724 24.3701 1.15748 24.4961C1.25197 24.6063 1.40945 24.6535 1.62992 24.6535C1.91339 24.6535 2.27559 24.5905 2.30709 23.8976C2.32283 23.5827 2.30709 23.252 2.30709 22.937C2.30709 22.748 2.30709 22.5591 2.30709 22.3701C2.32283 19.8819 3.94488 18.2756 6.43307 18.2598C11.4409 18.2598 16.7323 18.2598 22.1496 18.2598C24.6693 18.2598 26.3071 19.8819 26.3071 22.4016C26.3071 26.1024 26.3071 29.8031 26.3071 33.4882V38.874H26.0709C25.8346 38.874 25.6142 38.874 25.3937 38.874C24.937 38.874 24.4961 38.8583 24.0709 38.8898C22.3543 38.9685 21.0157 40.0079 20.4961 41.6614C20.4173 41.9291 20.2441 42.1811 20.0394 42.3386C19.063 43.126 18.0394 43.8976 17.063 44.6535L16.5748 45.0157C16.4961 45.0787 16.4016 45.1417 16.2913 45.2047C16.2441 45.2362 16.1811 45.2677 16.1024 45.315L15.7402 45.5354V44.4961C15.7402 44.0866 15.7402 43.6929 15.7402 43.315C15.7402 42.2913 15.6299 42.1811 14.5906 42.1811C13.6929 42.1811 12.7953 42.1811 11.8976 42.1811C10.1181 42.1811 8.25984 42.1811 6.44882 42.1811C3.89764 42.1654 2.30709 40.5748 2.30709 38.0394C2.30709 36.7795 2.30709 35.5197 2.30709 34.2441V32.4803C2.30709 32.1968 2.30709 31.8976 2.30709 31.6142C2.30709 30.937 2.30709 30.2283 2.30709 29.5354C2.30709 28.9055 2.00787 28.7953 1.74016 28.7638C1.51969 28.7323 1.34646 28.7795 1.22047 28.8898C1.04724 29.0472 1.01575 29.3307 1.01575 29.5354C1.01575 32.3071 1.01575 35.2047 1.01575 38.3858C1.01575 38.685 1.04724 38.9685 1.09449 39.2205C1.59843 41.7874 3.67716 43.4567 6.38583 43.4724C8.02362 43.4882 9.67717 43.4882 11.2835 43.4724C12.0079 43.4724 12.7323 43.4724 13.4567 43.4724H14.4331V43.7087C14.4331 44.0236 14.4331 44.3228 14.4331 44.622C14.4331 45.3307 14.4331 46.0079 14.4331 46.685C14.4331 47.126 14.4961 47.4095 14.8268 47.5512C15.1417 47.6929 15.378 47.5827 15.7087 47.315C16.7165 46.5276 17.7559 45.7402 18.748 44.9685L19.3622 44.4961C19.4724 44.4173 19.5827 44.3386 19.7244 44.2441C19.8032 44.1968 19.8819 44.1339 19.9606 44.0709L20.3386 43.8031V44.9842C20.3386 45.8976 20.3386 46.811 20.3386 47.7244C20.3386 49.7874 20.3386 51.9291 20.3386 54.0236C20.3543 56.4331 21.9764 58.0551 24.3701 58.0709C25.4252 58.0709 26.4803 58.0709 27.5354 58.0709H29.8661V58.3071C29.8661 58.4961 29.8661 58.6693 29.8661 58.8268C29.8661 59.189 29.8819 59.5354 29.8504 59.8819C29.8032 60.3858 29.9449 60.7323 30.2756 61.0157H30.8268C31.0787 60.811 31.3465 60.6063 31.6142 60.4016C32.2598 59.8976 32.937 59.3779 33.5669 58.8425C34.2283 58.2756 34.9213 58.0236 35.7874 58.0394C35.8032 58.0394 35.8346 58.0394 35.8504 58.0394C37.5827 58.0394 39.0472 56.874 39.4252 55.2047C39.5827 54.5118 39.5827 53.7717 39.5669 53.0472C39.5669 52.9055 39.5669 52.7638 39.5669 52.622C39.5669 52.4331 39.5197 52.2913 39.4252 52.1968C39.2835 52.0551 39.0787 52.0394 38.937 52.0394C38.5276 52.0394 38.3386 52.2441 38.3071 52.6535C38.2913 52.9213 38.2913 53.2047 38.2913 53.4882C38.2913 53.6929 38.2913 53.9134 38.2913 54.1339C38.2598 54.9528 37.9764 55.6772 37.4567 56.1496C36.9685 56.5905 36.3228 56.811 35.5669 56.7638C34.4961 56.7008 33.6929 56.9842 32.9685 57.6772C32.7323 57.8976 32.4646 58.0866 32.2126 58.2756C32.1339 58.3386 32.0551 58.4016 31.9606 58.4488C31.8661 58.5118 31.7874 58.5591 31.6772 58.622C31.6299 58.6535 31.5827 58.6693 31.5197 58.7165L31.1732 58.9213V58.2598C31.1732 58.1181 31.1732 58.0079 31.1732 57.8976C31.1732 56.9055 31.063 56.7953 30.0709 56.7953H27.9921C26.8268 56.7953 25.6772 56.7953 24.5118 56.7953C22.6693 56.7953 21.6457 55.7874 21.6457 53.9449C21.6457 50.4646 21.6457 46.9055 21.6457 43.0787C21.6457 41.2047 22.6535 40.2126 24.5433 40.1968C28.4803 40.1968 32.0236 40.1968 35.4095 40.1968C37.2835 40.1968 38.2913 41.2047 38.2913 43.0945C38.2913 44.3386 38.2913 45.5984 38.2913 46.8425V46.937C38.2913 47.3779 38.4173 47.5827 38.7165 47.6929C38.9528 47.7717 39.1575 47.7402 39.315 47.6299C39.4882 47.5039 39.5827 47.2835 39.5827 47C39.5984 46.5276 39.5827 46.0551 39.5827 45.5827C39.5669 44.8583 39.5669 44.1181 39.6142 43.378C39.6929 42.0551 39.2992 40.8898 38.4803 40.0709C37.6614 39.2362 36.4803 38.811 35.1417 38.874C33.6142 38.937 32.0551 38.9213 30.5591 38.9055C29.8976 38.9055 29.2047 38.8898 28.5276 38.8898H27.6299V33.9291L27.9134 33.9764C30.3386 34.4016 32.8268 34.3543 35.2205 34.3228C36.8583 34.2913 38.5591 34.2598 40.2283 34.3858L40.4488 34.4016V34.622C40.4488 35 40.4488 35.378 40.4488 35.7559C40.4488 36.685 40.4488 37.6457 40.4488 38.5905C40.4488 39.0472 40.4961 39.2992 40.8425 39.4567C41.1575 39.5984 41.378 39.5039 41.7244 39.2362C42.1968 38.8268 42.685 38.4646 43.1575 38.1181Z" fill="#5D7E9D" stroke="#5D7E9D" stroke-width="0.5"/>
<path d="M15.9297 36.4173C16.0557 35.7874 16.1502 35.1417 16.2447 34.5275L16.2919 34.2756C16.4651 33.1575 16.5754 33.063 17.6935 33.063C17.9297 33.063 18.1659 33.063 18.4021 33.063C18.9848 33.063 19.5832 33.063 20.1659 33.0472C20.6384 33.0315 20.8903 32.7953 20.8903 32.3858C20.8746 31.9921 20.6384 31.7874 20.1817 31.7559C19.9454 31.7401 19.6935 31.7401 19.4415 31.7401C19.3313 31.7401 19.2368 31.7401 19.1266 31.7401H17.6462H16.7171L17.158 29.0945H18.0242C18.2447 29.0945 18.4651 29.0945 18.6856 29.0945C19.2053 29.0945 19.7407 29.0945 20.2604 29.0787C20.6226 29.063 20.8273 28.8897 20.8746 28.5275C20.9218 28.1811 20.7801 27.9449 20.4336 27.8346C20.2762 27.7874 20.0872 27.7874 19.8982 27.7874H19.851C19.3313 27.7874 18.8116 27.7874 18.2762 27.7874H17.3628L17.536 26.6693C17.6462 26.0079 17.7407 25.3779 17.851 24.748C17.914 24.3858 17.8825 23.9291 17.3785 23.8346C17.1895 23.8031 17.0321 23.8189 16.9061 23.9134C16.7486 24.0236 16.6384 24.2441 16.5754 24.5433C16.5124 24.9055 16.4494 25.2834 16.3864 25.6457C16.3077 26.1496 16.2132 26.6535 16.1187 27.1575C16.0714 27.3622 15.851 27.7401 15.5675 27.7716C15.1108 27.8031 14.6699 27.8031 14.1974 27.8031C14.0399 27.8031 13.8667 27.8031 13.6935 27.8031H13.41L13.4573 27.5354C13.5045 27.2205 13.5518 26.9212 13.599 26.622C13.7092 25.9134 13.8195 25.2362 13.914 24.559C13.9612 24.1811 13.788 23.9449 13.41 23.8661C12.9218 23.7559 12.7329 24.1338 12.6541 24.3543C12.6226 24.4645 12.6069 24.5905 12.5754 24.7165L12.5596 24.7795C12.4336 25.4882 12.3234 26.1968 12.1974 26.9212L12.0557 27.8031H11.1738C10.8903 27.8031 10.6226 27.8031 10.3392 27.8031C9.69348 27.8031 9.01632 27.8031 8.3549 27.8189C7.94545 27.8346 7.67773 28.0866 7.67773 28.4645C7.67773 28.8425 7.94545 29.0787 8.37065 29.0945C8.63836 29.1102 8.92183 29.1102 9.20529 29.1102C9.31553 29.1102 9.42577 29.1102 9.55175 29.1102H10.9533H11.8667L11.8195 29.3779C11.788 29.5827 11.7565 29.7716 11.725 29.9449C11.6462 30.3386 11.5832 30.685 11.5675 31.0315C11.5203 31.6929 11.0951 31.7559 10.7171 31.7559C9.94545 31.7401 9.12655 31.7401 8.30766 31.7716C7.9297 31.7874 7.72498 31.9764 7.69348 32.3701C7.66199 32.7165 7.89821 32.9842 8.29191 33.0315C8.46514 33.0472 8.65411 33.0472 8.84309 33.0472C8.90608 33.0472 8.96907 33.0472 9.03207 33.0472C9.47301 33.0472 9.91396 33.0472 10.3706 33.0472H10.9376H11.2525L11.0636 34.1811C10.9533 34.811 10.8588 35.4252 10.7486 36.0236C10.7014 36.3386 10.6856 36.8897 11.221 37C11.41 37.0315 11.5675 37 11.6777 36.9212C11.851 36.7953 11.9612 36.559 12.0242 36.2283C12.1344 35.5354 12.2604 34.8268 12.3864 34.1338L12.5596 33.0945H15.0478L15.0636 33.2992C15.0636 33.3307 15.0636 33.3464 15.0793 33.3622C15.0793 33.4094 15.0951 33.4567 15.0793 33.5197C15.0163 33.8661 14.9691 34.2283 14.9061 34.5748C14.8273 35.0945 14.7329 35.6142 14.6541 36.1338C14.5754 36.5748 14.7801 36.9212 15.1581 36.9842C15.5675 37.0787 15.851 36.8582 15.9297 36.4173ZM12.7958 31.7244L12.8431 31.4567C12.8746 31.2992 12.8903 31.1417 12.9218 30.9685C13.0006 30.496 13.0636 30.0394 13.158 29.5827C13.2053 29.3622 13.473 29.1417 13.6935 29.126C14.1502 29.1102 14.5911 29.1102 15.0636 29.1102C15.221 29.1102 15.3943 29.1102 15.5675 29.1102H15.8195L15.3943 31.7086H12.7958V31.7244Z" fill="#5D7E9D" stroke="#5D7E9D" stroke-width="0.5"/>
<path d="M33.2998 44.9055C32.3391 44.3858 31.1738 44.4016 30.3234 44.9528C30.0872 45.1102 29.7092 45.0158 29.536 44.9213C29.0636 44.6536 28.5596 44.5276 28.0399 44.5276C27.6462 44.5276 27.2683 44.6063 26.9061 44.7638C26.0714 45.126 25.473 45.8347 25.2525 46.748C24.8588 48.3386 25.3155 49.7402 26.5754 50.811C27.3785 51.5039 28.3234 52.0709 29.2368 52.6221C29.3785 52.7165 29.5202 52.7953 29.662 52.8898C29.8037 52.9843 30.1502 52.9843 30.2919 52.8898L30.5911 52.7008C31.6305 52.0394 32.6856 51.3465 33.6305 50.5591C34.4336 49.8819 34.8273 48.9055 34.8273 47.5827C34.8431 46.4173 34.2919 45.4567 33.2998 44.9055ZM32.8746 49.441C32.2762 50.0079 31.599 50.4803 30.9376 50.9528C30.7171 51.1102 30.4966 51.2677 30.2919 51.4252C30.2132 51.4882 30.1029 51.5039 29.9927 51.5039C29.8667 51.5039 29.725 51.4725 29.6462 51.4095C29.4415 51.2677 29.2368 51.126 29.0321 50.9843C28.4021 50.5433 27.7407 50.1024 27.1895 49.5669C26.8746 49.2677 26.7013 48.8425 26.5439 48.4331C26.4651 48.2599 26.4021 48.0866 26.3234 47.9291L26.2447 47.7717L26.4179 47.6142C26.4336 47.5512 26.4494 47.4882 26.4494 47.4252C26.4966 47.2205 26.5281 47 26.6226 46.7953C26.8588 46.2599 27.3313 45.8976 27.8667 45.8347C28.4179 45.7717 28.9533 46.0236 29.3155 46.4961C29.4887 46.7323 29.7407 47 30.0084 47C30.2604 47 30.4809 46.7323 30.6384 46.5118C30.9848 45.9921 31.473 45.7717 32.0872 45.8662C32.7328 45.9606 33.1895 46.3228 33.41 46.937C33.725 47.8976 33.536 48.7953 32.8746 49.441Z" fill="#5D7E9D" stroke="#5D7E9D" stroke-width="0.5"/>
<path d="M40.8905 8.51182C40.8433 8.65355 40.8275 8.82678 40.8118 9.00001C40.796 9.17324 40.7803 9.36222 40.733 9.53544C40.67 9.74017 40.6228 9.94489 40.5756 10.1654C40.4338 10.7795 40.2763 11.4095 39.9141 11.9134C39.3 12.7953 38.6071 13.5984 37.9299 14.3701C37.6622 14.6851 37.4102 14.9685 37.1582 15.2677L37.0637 15.378L36.922 15.3465C36.733 15.315 36.5756 15.2677 36.4181 15.2362C36.1346 15.1732 35.8826 15.1102 35.6464 15.1102C34.3393 15.0788 33.0008 15.0945 31.7252 15.0945H31.5204C30.8275 15.0945 30.6543 15.2677 30.6543 15.9606C30.6543 19.315 30.6543 22.7638 30.6543 26.2284C30.6543 26.9055 30.8275 27.0945 31.5204 27.0945H32.2763C33.4417 27.0945 34.6385 27.1102 35.8197 27.0788C36.0244 27.0788 36.2448 27 36.4811 26.9055C36.5913 26.8583 36.7173 26.8268 36.8433 26.7795L36.9063 26.7638L36.9693 26.7795C37.2527 26.8583 37.5362 26.937 37.8039 27.0315C38.4023 27.2205 39.0008 27.4095 39.5992 27.4252C42.1819 27.5039 45.0322 27.5197 48.5598 27.4725C49.7409 27.4567 50.5441 26.5748 50.5441 25.2992C50.5441 22.5118 50.5441 19.7717 50.5441 17.1575C50.5441 15.7244 49.7094 14.9055 48.2763 14.9055C47.3472 14.9055 46.4023 14.9055 45.4574 14.9055H43.8196L44.0244 14.3228C44.0874 14.1496 44.1504 13.9921 44.1976 13.8347C44.859 11.9134 44.7015 10.0551 43.7252 8.2756C43.4102 7.69292 42.8905 7.42521 42.2291 7.4882C41.5834 7.55119 41.111 7.89765 40.8905 8.51182ZM35.363 25.7717H31.9771V16.4488H35.363V25.7717ZM42.5913 8.90552C43.3787 10.3701 43.5204 11.8032 43.0322 13.2677C42.8905 13.6929 42.7173 14.1024 42.5441 14.4961C42.4653 14.6851 42.3708 14.8898 42.2921 15.0788C42.1819 15.3307 42.1031 15.6929 42.2448 15.9291C42.4023 16.1654 42.7803 16.2126 43.0637 16.2126C44.1346 16.2126 45.2055 16.2126 46.2921 16.2284C46.9063 16.2284 47.5362 16.2284 48.1504 16.2284C49.048 16.2284 49.2527 16.4331 49.2527 17.2992C49.2527 19.9134 49.2527 22.5276 49.2527 25.1575C49.2527 25.9921 49.0165 26.2284 48.1976 26.2284H46.9693C46.0559 26.2284 45.1267 26.2284 44.1976 26.2284C42.8748 26.2284 41.5519 26.2284 40.2291 26.2126C39.6779 26.2126 39.0952 26.1024 38.5441 25.9291C37.0323 25.4252 36.7173 25 36.7173 23.3937C36.7173 22.9528 36.7173 22.5276 36.7173 22.0866C36.7173 20.874 36.7173 19.6142 36.733 18.3701C36.7488 17.9764 36.9063 17.5354 37.1425 17.2362C38.1819 16.0079 39.2212 14.8425 40.1189 13.8662C41.363 12.4961 41.9929 11.0473 42.0716 9.40946C42.0716 9.34647 42.0874 9.28348 42.1189 9.18899C42.1346 9.14174 42.1504 9.063 42.1661 8.98426L42.3078 8.37009L42.5913 8.90552Z" fill="#5D7E9D" stroke="#5D7E9D" stroke-width="0.5"/>
</svg>
