<svg width="26" height="25" viewBox="0 0 26 25" fill="none" xmlns="http://www.w3.org/2000/svg">
<circle cx="13.0625" cy="12.5" r="12.5" fill="url(#paint0_linear_2069_23)"/>
<path fill-rule="evenodd" clip-rule="evenodd" d="M15.6153 5.46875C16.9472 5.46875 18.2028 5.99079 19.1508 6.93882C20.0987 7.88673 20.6209 9.14242 20.6209 10.4744V15.0526C20.6209 16.3847 20.0987 17.6404 19.1508 18.5883C18.2029 19.5363 16.9472 20.0584 15.6153 20.0584H11.0369C9.70492 20.0584 8.44923 19.5363 7.50132 18.5883C6.55329 17.6404 6.03125 16.3847 6.03125 15.0526V10.4744C6.03125 9.14242 6.55329 7.88673 7.50132 6.93882C8.44923 5.99079 9.70492 5.46875 11.0369 5.46875H15.6153ZM9.46494 12.7636C9.46494 14.8926 11.197 16.6247 13.3261 16.6247C15.4551 16.6247 17.1872 14.8926 17.1872 12.7636C17.1872 10.6345 15.4551 8.90244 13.3261 8.90244C11.197 8.90244 9.46494 10.6345 9.46494 12.7636ZM17.3013 9.21577C17.4137 9.21577 17.524 9.17014 17.6035 9.09066C17.6831 9.01108 17.7287 8.90077 17.7287 8.78834C17.7287 8.67581 17.6831 8.5655 17.6035 8.48603C17.524 8.40644 17.4137 8.36091 17.3013 8.36091C17.1886 8.36091 17.0786 8.40644 16.9992 8.48603C16.9194 8.5655 16.8738 8.67581 16.8738 8.78834C16.8738 8.90088 16.9194 9.01108 16.9992 9.09066C17.0786 9.17014 17.1887 9.21577 17.3013 9.21577ZM10.3204 12.7635C10.3204 11.1059 11.669 9.75727 13.3267 9.75727C14.9844 9.75727 16.3329 11.1059 16.3329 12.7635C16.3329 14.4212 14.9843 15.7698 13.3267 15.7698C11.669 15.7698 10.3204 14.4212 10.3204 12.7635Z" fill="url(#paint1_linear_2069_23)"/>
<defs>
<linearGradient id="paint0_linear_2069_23" x1="25.5625" y1="0" x2="25.5625" y2="25" gradientUnits="userSpaceOnUse">
<stop stop-color="#F4F6F8"/>
<stop offset="1" stop-color="#F4F6F8"/>
</linearGradient>
<linearGradient id="paint1_linear_2069_23" x1="18.2393" y1="6.14592" x2="7.2381" y2="18.86" gradientUnits="userSpaceOnUse">
<stop offset="0.17301" stop-color="#4967D5"/>
<stop offset="0.688933" stop-color="#DB2E7D"/>
<stop offset="1" stop-color="#FFAF00"/>
</linearGradient>
</defs>
</svg>
