<svg width="26" height="25" viewBox="0 0 26 25" fill="none" xmlns="http://www.w3.org/2000/svg">
<ellipse cx="12.8906" cy="12.5" rx="12.8906" ry="12.5" fill="url(#paint0_linear_2069_31)"/>
<path d="M19.6205 7.81421L17.7021 5.89749C17.5667 5.76156 17.4059 5.65371 17.2287 5.58013C17.0516 5.50656 16.8617 5.4687 16.6698 5.46875C16.2789 5.46875 15.9115 5.62187 15.6358 5.89749L13.5714 7.96192C13.4355 8.09726 13.3277 8.25812 13.2541 8.43526C13.1805 8.6124 13.1427 8.80233 13.1427 8.99414C13.1427 9.38505 13.2958 9.75254 13.5714 10.0282L15.081 11.5378C14.7277 12.3166 14.2364 13.0252 13.6309 13.6292C13.0269 14.2362 12.3184 14.7293 11.5395 15.0848L10.0299 13.5752C9.89456 13.4392 9.73371 13.3314 9.55657 13.2578C9.37943 13.1842 9.1895 13.1464 8.99769 13.1464C8.60679 13.1464 8.2393 13.2995 7.96369 13.5752L5.89748 15.6378C5.76139 15.7734 5.65345 15.9345 5.57987 16.112C5.50629 16.2895 5.46853 16.4797 5.46875 16.6718C5.46875 17.0627 5.62187 17.4302 5.89748 17.7058L7.81237 19.6208C8.25191 20.0621 8.85898 20.3125 9.48227 20.3125C9.61377 20.3125 9.73987 20.3017 9.86416 20.2801C12.2925 19.8802 14.7009 18.5885 16.6446 16.6466C18.5865 14.7065 19.8763 12.2998 20.2817 9.86423C20.4042 9.12024 20.1574 8.35463 19.6205 7.81421Z" fill="url(#paint1_linear_2069_31)"/>
<defs>
<linearGradient id="paint0_linear_2069_31" x1="25.7812" y1="0" x2="25.7812" y2="25" gradientUnits="userSpaceOnUse">
<stop stop-color="#F4F6F8"/>
<stop offset="1" stop-color="#F4F6F8"/>
</linearGradient>
<linearGradient id="paint1_linear_2069_31" x1="17.8894" y1="6.15772" x2="6.69663" y2="19.0933" gradientUnits="userSpaceOnUse">
<stop offset="0.17301" stop-color="#4967D5"/>
<stop offset="0.688933" stop-color="#DB2E7D"/>
<stop offset="1" stop-color="#FFAF00"/>
</linearGradient>
</defs>
</svg>
