<svg width="27" height="25" viewBox="0 0 27 25" fill="none" xmlns="http://www.w3.org/2000/svg">
<ellipse cx="13.1719" cy="12.5" rx="12.8906" ry="12.5" fill="url(#paint0_linear_2069_17)"/>
<path d="M23.411 7.22949C22.7328 7.52703 22.0042 7.72807 21.2383 7.81894C22.0286 7.35075 22.6198 6.61387 22.9017 5.7458C22.1592 6.18246 21.3466 6.48981 20.4992 6.65451C19.9293 6.05208 19.1745 5.65278 18.3519 5.5186C17.5294 5.38443 16.6851 5.52288 15.9501 5.91247C15.2152 6.30205 14.6307 6.92098 14.2875 7.67315C13.9442 8.42532 13.8614 9.26866 14.0518 10.0722C12.5473 9.99743 11.0755 9.61027 9.73194 8.93586C8.38837 8.26145 7.20303 7.31486 6.25287 6.15753C5.92798 6.71241 5.74117 7.35574 5.74117 8.04089C5.74081 8.65769 5.89422 9.26503 6.18779 9.80904C6.48136 10.3531 6.90602 10.8169 7.42409 11.1595C6.82327 11.1405 6.23571 10.9798 5.71031 10.6906V10.7389C5.71024 11.604 6.01248 12.4424 6.56572 13.112C7.11896 13.7815 7.88914 14.241 8.74557 14.4123C8.18821 14.5617 7.60386 14.5837 7.03666 14.4766C7.27829 15.221 7.74897 15.8719 8.3828 16.3382C9.01664 16.8046 9.78189 17.063 10.5714 17.0773C9.23114 18.1191 7.57588 18.6841 5.87194 18.6816C5.5701 18.6817 5.26852 18.6643 4.96875 18.6294C6.69835 19.7304 8.71173 20.3148 10.768 20.3125C17.7287 20.3125 21.5339 14.6045 21.5339 9.65406C21.5339 9.49322 21.5299 9.33078 21.5226 9.16995C22.2627 8.63998 22.9017 7.98372 23.4094 7.2319L23.411 7.22949Z" fill="url(#paint1_linear_2069_17)"/>
<defs>
<linearGradient id="paint0_linear_2069_17" x1="26.0625" y1="0" x2="26.0625" y2="25" gradientUnits="userSpaceOnUse">
<stop stop-color="#F4F6F8"/>
<stop offset="1" stop-color="#F4F6F8"/>
</linearGradient>
<linearGradient id="paint1_linear_2069_17" x1="5.86837" y1="6.59328" x2="16.214" y2="18.0634" gradientUnits="userSpaceOnUse">
<stop stop-color="#009EFF"/>
<stop offset="1" stop-color="#00FAFA"/>
</linearGradient>
</defs>
</svg>
